<?xml version="1.0" standalone="no"?>
<!DOCTYPE svg PUBLIC "-//W3C//DTD SVG 20010904//EN"
 "http://www.w3.org/TR/2001/REC-SVG-20010904/DTD/svg10.dtd">
<svg version="1.0" xmlns="http://www.w3.org/2000/svg"
 width="1920.000000pt" height="1920.000000pt" viewBox="0 0 1920.000000 1920.000000"
 preserveAspectRatio="xMidYMid meet">

<g transform="translate(0.000000,1920.000000) scale(0.100000,-0.100000)"
fill="#800080" stroke="none">
<path d="M8090 11889 c0 -46 48 -295 84 -434 87 -336 236 -622 429 -822 69
-71 173 -162 205 -179 1 0 -13 -27 -32 -59 -50 -82 -91 -185 -132 -332 -20
-70 -38 -130 -39 -131 -2 -2 -69 33 -149 78 -275 154 -786 376 -1186 515 -456
157 -958 262 -1615 337 -185 21 -242 23 -770 23 -582 0 -711 -5 -1115 -46
-785 -78 -1789 -284 -2950 -605 -326 -90 -324 -85 -37 -104 308 -20 611 -76
857 -156 308 -101 689 -326 964 -568 201 -178 418 -474 578 -791 39 -77 72
-142 74 -144 2 -2 56 19 121 47 239 102 416 162 634 216 195 49 298 60 517 53
417 -13 656 -109 918 -371 259 -260 400 -581 490 -1115 14 -86 27 -157 29
-159 2 -2 65 20 142 49 258 97 501 164 708 194 318 48 778 -8 1080 -130 272
-110 576 -316 810 -550 237 -237 470 -584 665 -988 41 -86 77 -156 80 -156 3
-1 41 72 85 161 334 675 738 1128 1280 1436 354 200 812 314 1270 314 310 0
662 -61 1036 -181 53 -17 101 -31 106 -31 6 0 14 26 18 58 21 175 103 501 166
659 134 338 353 594 632 739 158 82 278 113 517 135 390 35 832 -72 1413 -340
49 -23 90 -41 92 -41 2 0 37 64 77 143 230 444 474 734 830 988 379 271 723
410 1208 489 138 22 409 49 504 51 139 2 120 12 -189 97 -1124 308 -2055 503
-2805 586 -427 48 -601 58 -1145 63 -432 4 -552 2 -710 -11 -478 -42 -921
-114 -1330 -218 -501 -126 -1270 -435 -1688 -677 -49 -28 -92 -51 -96 -51 -4
0 -13 26 -20 58 -32 146 -115 367 -162 433 -12 17 -18 34 -13 38 5 4 42 34 82
66 262 210 479 569 602 996 50 175 100 388 91 393 -12 7 -253 -54 -359 -90
-198 -68 -343 -144 -509 -267 -135 -102 -288 -243 -415 -384 l-107 -119 -78
14 c-99 17 -235 17 -340 -1 l-82 -13 -48 65 c-26 36 -88 112 -137 169 -257
298 -630 517 -1031 606 l-105 23 0 -28z"/>
</g>
</svg>
