<?xml version="1.0" standalone="no"?>
<!DOCTYPE svg PUBLIC "-//W3C//DTD SVG 20010904//EN"
 "http://www.w3.org/TR/2001/REC-SVG-20010904/DTD/svg10.dtd">
<svg version="1.0" xmlns="http://www.w3.org/2000/svg"
 width="1084.000000pt" height="451.000000pt" viewBox="0 0 1084.000000 451.000000"
 preserveAspectRatio="xMidYMid meet">
<metadata>
Created by potrace 1.16, written by Peter Selinger 2001-2019
</metadata>
<g transform="translate(0.000000,451.000000) scale(0.100000,-0.100000)"
fill="#ff0000" stroke="none">
<path d="M6264 4005 c-238 -62 -381 -149 -586 -356 l-127 -129 -58 11 c-52 10
-153 6 -208 -7 -16 -4 -32 11 -73 64 -163 216 -435 386 -679 427 -52 8 -51 14
-18 -149 58 -289 154 -479 319 -633 l75 -71 -29 -53 c-16 -30 -41 -97 -56
-149 -15 -52 -28 -96 -29 -98 -2 -2 -48 22 -103 52 -197 109 -576 265 -817
336 -218 63 -459 110 -755 147 -175 22 -781 25 -1000 5 -441 -40 -838 -110
-1375 -243 -255 -63 -648 -170 -658 -179 -4 -4 47 -10 115 -13 469 -24 825
-173 1123 -472 128 -127 196 -220 286 -391 29 -54 54 -101 55 -103 2 -2 61 19
131 47 276 108 392 136 578 135 206 0 324 -31 457 -119 78 -52 189 -168 236
-247 76 -126 139 -320 172 -525 10 -61 15 -73 29 -69 9 3 68 24 131 47 63 23
162 53 220 68 95 24 123 27 290 27 193 0 270 -11 413 -56 145 -47 332 -160
482 -293 146 -129 298 -338 420 -579 39 -75 72 -137 75 -137 3 0 34 58 70 128
117 229 284 459 426 585 108 97 244 190 359 247 141 69 206 91 375 127 107 23
150 27 305 27 109 1 209 -4 255 -12 96 -18 293 -66 365 -90 30 -11 58 -16 60
-12 2 4 9 38 15 76 52 328 163 555 346 702 138 111 279 154 504 155 205 0 408
-51 673 -169 56 -25 107 -48 114 -51 7 -3 31 33 62 94 97 193 236 377 373 490
304 252 607 365 1067 398 53 4 88 11 80 15 -55 30 -817 215 -1172 285 -530
104 -780 129 -1327 129 -386 1 -440 -1 -585 -21 -453 -63 -732 -136 -1120
-293 -153 -62 -366 -164 -449 -214 -32 -20 -60 -35 -61 -34 -2 2 -13 39 -25
83 -25 89 -63 181 -85 206 -14 14 -9 21 45 64 162 130 290 358 365 650 36 140
40 166 28 164 -5 0 -49 -11 -99 -24z"/>
</g>
</svg>
