<?xml version="1.0" standalone="no"?>
<!DOCTYPE svg PUBLIC "-//W3C//DTD SVG 20010904//EN"
 "http://www.w3.org/TR/2001/REC-SVG-20010904/DTD/svg10.dtd">
<svg version="1.0" xmlns="http://www.w3.org/2000/svg"
 width="1080.000000pt" height="1080.000000pt" viewBox="0 0 1080.000000 1080.000000"
 preserveAspectRatio="xMidYMid meet">
<metadata>
Created by potrace 1.16, written by Peter Selinger 2001-2019
</metadata>
<g transform="translate(0.000000,1080.000000) scale(0.100000,-0.100000)"
fill="#8B8000" stroke="none">
<path d="M9325 9631 c-16 -4 -40 -13 -52 -19 -12 -7 -31 -12 -41 -12 -18 0
-46 -26 -92 -87 -40 -52 -60 -83 -60 -95 -1 -7 -9 -31 -20 -53 -11 -22 -19
-52 -20 -67 0 -15 -4 -29 -9 -32 -5 -4 -12 -25 -16 -49 -4 -23 -15 -76 -25
-117 -10 -41 -22 -122 -25 -180 -4 -58 -9 -108 -12 -113 -6 -10 -4 -254 3
-322 3 -27 8 -94 12 -148 8 -104 25 -131 30 -45 2 29 7 57 12 63 4 5 5 57 1
115 -4 58 -6 113 -3 122 2 10 -1 31 -7 49 -8 23 -8 36 2 52 6 12 12 51 13 87
1 36 7 101 13 145 7 44 14 98 16 120 6 59 31 186 42 215 6 14 18 50 28 80 26
80 100 185 152 216 59 34 147 38 172 8 9 -12 27 -27 40 -33 27 -15 63 -92 81
-174 16 -70 0 -229 -28 -280 -41 -74 -73 -117 -123 -160 -86 -75 -165 -74
-216 2 -25 37 -28 68 -13 120 11 41 6 51 -16 29 -11 -11 -16 -38 -17 -93 -2
-74 -1 -78 28 -102 42 -34 68 -43 132 -43 42 0 68 6 102 26 49 28 101 72 101
86 0 5 16 31 35 58 20 28 35 62 35 78 0 15 8 39 18 52 24 36 24 230 -1 277 -9
18 -17 40 -17 51 0 23 -71 119 -111 151 -33 26 -94 35 -144 22z"/>
<path d="M7278 9134 c-21 -15 -38 -35 -38 -44 0 -9 -9 -25 -20 -35 -11 -10
-22 -34 -25 -54 -4 -20 -11 -45 -17 -56 -34 -60 -5 -270 49 -362 78 -133 222
-167 350 -81 46 31 70 88 58 135 -9 37 -29 22 -36 -27 -4 -33 -15 -51 -44 -78
l-38 -35 -80 6 c-71 6 -84 10 -122 41 -44 36 -68 86 -85 176 -5 25 -11 52 -14
61 -4 8 -2 54 3 101 10 91 33 147 77 195 24 25 32 28 88 27 34 -1 77 -8 96
-16 71 -30 197 -153 310 -304 19 -25 62 -81 95 -123 33 -42 68 -92 78 -112 9
-20 23 -42 32 -49 8 -7 15 -17 15 -23 0 -5 25 -47 55 -93 30 -46 55 -92 55
-102 0 -11 9 -27 20 -37 11 -10 20 -26 20 -35 0 -9 14 -38 32 -66 17 -27 34
-65 37 -84 8 -43 25 -42 29 3 2 22 -4 41 -18 57 -14 16 -19 32 -15 47 3 14 -4
35 -20 59 -14 20 -25 44 -25 53 -1 27 -39 102 -74 145 -18 23 -36 52 -39 66
-4 14 -17 40 -29 59 -13 19 -32 49 -43 67 -58 93 -122 177 -185 244 -38 41
-70 79 -70 85 -1 19 -169 158 -229 189 -18 10 -67 19 -114 22 -78 5 -84 4
-119 -22z"/>
<path d="M8825 8008 c-10 -6 -40 -13 -65 -15 -25 -2 -83 -6 -129 -9 -62 -4
-92 -11 -109 -25 -14 -10 -35 -19 -47 -19 -12 0 -28 -7 -35 -15 -7 -9 -29 -15
-52 -15 -24 0 -57 -10 -86 -27 -26 -14 -63 -35 -82 -45 -128 -68 -165 -95
-176 -130 -3 -10 -15 -18 -28 -18 -26 0 -65 -45 -89 -103 -13 -29 -23 -38 -56
-47 -29 -8 -41 -16 -41 -29 0 -10 -16 -39 -36 -65 -19 -26 -38 -63 -41 -84 -3
-20 -11 -46 -16 -57 -10 -19 -39 -189 -39 -230 0 -66 78 -262 116 -294 21 -18
21 -50 -1 -58 -9 -4 -34 4 -57 17 -36 21 -58 24 -174 28 -109 4 -140 2 -177
-12 -37 -14 -51 -16 -79 -6 -28 9 -42 8 -71 -5 -21 -8 -44 -15 -52 -15 -8 0
-26 -9 -40 -20 -14 -11 -36 -20 -49 -20 -14 0 -47 -16 -74 -35 -27 -19 -54
-35 -59 -35 -5 0 -19 -14 -31 -31 -13 -17 -32 -34 -44 -39 -28 -10 -106 -123
-106 -153 0 -12 -9 -40 -21 -62 -21 -39 -22 -89 -7 -260 4 -46 74 -172 121
-218 77 -77 223 -177 258 -177 6 0 25 -6 42 -14 99 -45 138 -58 192 -66 204
-32 224 -33 249 -22 19 8 34 8 57 0 25 -8 41 -7 84 7 50 17 85 16 85 -3 0 -5
-27 -23 -61 -41 -172 -90 -337 -229 -386 -324 -49 -98 -27 -195 56 -245 44
-26 52 -27 176 -27 152 1 251 24 314 74 21 17 42 31 47 31 17 0 134 118 134
136 0 8 -1 14 -3 14 -1 0 -31 -27 -66 -60 -35 -33 -69 -60 -74 -60 -5 0 -32
-13 -58 -30 -161 -99 -376 -105 -467 -14 -34 34 -35 37 -29 95 3 34 12 68 21
78 9 10 16 22 16 28 0 12 153 143 167 143 6 0 18 9 28 20 10 11 22 20 26 20 4
0 30 15 57 33 84 54 115 71 152 82 39 12 57 46 46 88 -8 34 -48 46 -85 25 -20
-12 -73 -15 -236 -17 -192 -2 -216 -1 -270 18 -33 12 -63 28 -68 36 -4 8 -18
15 -30 15 -40 0 -157 50 -217 93 -50 36 -159 150 -175 186 -10 20 -27 54 -38
77 -16 34 -19 55 -15 141 2 55 9 107 15 114 6 8 14 30 18 49 9 40 76 131 126
172 69 55 87 68 102 68 8 0 25 8 38 18 23 18 98 43 184 63 160 36 328 40 427
9 34 -11 77 -20 94 -20 17 0 37 -7 44 -15 7 -8 23 -15 35 -15 26 0 250 -112
281 -141 11 -10 24 -19 29 -19 4 0 14 -8 21 -17 7 -10 16 -15 20 -10 4 4 -9
23 -29 42 -78 73 -23 76 122 6 49 -23 301 -23 357 1 21 9 50 19 64 22 24 5 57
43 47 53 -3 2 -18 -4 -33 -14 -25 -16 -50 -18 -209 -18 -141 1 -193 4 -240 18
-79 23 -168 62 -230 101 -83 52 -89 55 -120 69 -38 18 -154 137 -179 185 -14
27 -21 65 -24 144 -4 92 -1 116 18 175 65 192 156 314 320 428 32 22 78 58
102 79 48 44 132 78 183 74 21 -1 41 5 53 15 10 9 26 17 36 17 9 0 38 9 64 19
26 11 76 22 112 25 36 3 106 9 155 14 102 11 128 10 275 -12 79 -11 119 -23
160 -45 30 -17 62 -31 70 -31 8 0 38 -16 65 -36 28 -19 73 -50 100 -68 68 -46
145 -155 160 -227 3 -19 16 -63 27 -98 17 -53 20 -80 15 -156 -3 -55 -12 -105
-21 -123 -9 -17 -16 -39 -16 -49 -1 -42 -209 -250 -294 -294 -17 -9 -70 -37
-119 -63 -48 -25 -94 -46 -101 -46 -7 0 -19 -7 -27 -16 -7 -8 -26 -21 -43 -29
l-31 -13 44 -1 c60 -1 303 95 315 124 7 18 63 20 68 3 6 -18 -3 -58 -13 -58
-5 0 -9 -8 -9 -17 0 -13 5 -12 26 8 14 13 29 32 33 41 9 24 141 158 156 158 7
0 30 25 50 55 21 30 45 55 52 55 18 0 196 149 231 194 7 9 27 16 46 16 18 0
44 8 57 18 37 27 105 62 122 62 8 0 36 10 62 21 41 18 62 21 142 17 l93 -4 65
-64 c73 -72 97 -126 124 -273 18 -103 -17 -281 -71 -359 -10 -14 -18 -32 -18
-38 0 -45 -225 -320 -262 -320 -8 0 -27 -13 -43 -30 -16 -16 -33 -30 -39 -30
-5 0 -18 -8 -28 -17 -11 -10 -40 -20 -66 -23 -41 -4 -47 -8 -50 -31 -3 -22 4
-28 40 -45 46 -20 158 -119 158 -139 0 -7 14 -31 31 -55 27 -38 32 -53 36
-124 5 -73 3 -86 -22 -134 -31 -62 -96 -128 -133 -135 -15 -3 -67 -20 -117
-37 -49 -17 -103 -30 -120 -29 -109 5 -132 -14 -30 -25 78 -8 171 11 263 55
128 60 208 170 206 284 -1 95 -19 141 -94 240 -37 49 -78 98 -90 108 -21 17
-21 19 -5 37 9 10 32 26 50 34 18 9 48 28 66 43 64 51 239 235 239 250 0 8 13
34 30 58 16 24 34 55 40 69 5 15 17 29 25 32 8 4 15 15 15 26 0 10 6 31 14 46
19 37 28 127 27 261 0 94 -4 120 -21 152 -11 22 -20 47 -20 57 -1 30 -114 171
-156 193 -78 41 -236 43 -321 4 -18 -8 -48 -21 -65 -29 -138 -58 -222 -109
-342 -209 -21 -17 -42 -33 -47 -35 -18 -7 -21 29 -5 62 20 42 20 73 1 110 -19
35 -19 50 -1 65 11 9 14 30 11 82 -2 56 -9 78 -33 117 -16 26 -32 63 -35 83
-6 43 -62 124 -132 193 -64 63 -172 136 -191 129 -8 -3 -23 2 -34 12 -24 22
-139 56 -210 62 -30 3 -60 9 -67 15 -7 5 -31 6 -57 3 -33 -5 -50 -3 -68 9 -26
19 -113 21 -143 4z"/>
<path d="M9100 6519 c-19 -4 -64 -13 -100 -18 -108 -16 -194 -44 -303 -97 -27
-13 -60 -24 -73 -24 -13 0 -28 -9 -34 -20 -6 -11 -36 -33 -68 -49 -31 -16 -65
-42 -74 -58 -10 -15 -22 -35 -27 -43 -5 -8 -12 -27 -16 -42 -4 -21 -11 -28
-30 -28 -24 0 -55 -41 -55 -72 0 -7 -11 -30 -25 -50 -13 -20 -27 -54 -31 -77
-4 -22 -13 -46 -20 -52 -8 -6 -14 -28 -14 -48 0 -20 -7 -55 -15 -79 -11 -32
-15 -85 -15 -200 0 -86 1 -172 0 -190 0 -18 7 -49 15 -69 8 -19 15 -49 15 -65
0 -36 61 -167 89 -190 12 -10 21 -27 21 -38 0 -14 10 -24 30 -31 25 -9 30 -16
30 -42 0 -26 17 -51 93 -134 108 -119 215 -206 310 -252 37 -18 67 -35 67 -39
0 -4 18 -18 40 -31 22 -14 42 -32 45 -41 3 -9 25 -46 49 -84 25 -37 52 -89 61
-117 23 -68 45 -66 45 4 0 41 -5 58 -20 72 -11 10 -20 30 -20 45 0 24 -49 97
-107 158 -7 7 -13 17 -13 20 0 13 -105 88 -170 121 -85 44 -84 43 -170 136
-98 106 -202 252 -198 278 2 17 19 25 93 44 50 13 110 28 135 33 52 12 190 53
269 82 41 14 68 17 106 13 40 -5 54 -3 64 9 9 11 30 16 63 16 27 0 63 7 79 16
17 8 71 20 121 25 75 9 93 8 105 -4 23 -22 -9 -47 -60 -47 -24 0 -52 -7 -63
-14 -12 -8 -43 -20 -70 -27 -27 -6 -53 -15 -59 -19 -36 -24 -114 -41 -203 -44
-67 -2 -107 -8 -123 -19 -13 -8 -53 -18 -90 -22 -84 -9 -173 -50 -177 -84 -3
-21 -1 -23 20 -17 66 20 107 26 200 30 57 2 119 9 138 15 33 11 120 26 295 52
44 6 112 22 150 34 106 35 180 55 209 55 15 0 30 8 36 20 13 24 48 27 57 4 3
-8 -3 -25 -14 -37 -10 -12 -25 -33 -31 -47 -7 -14 -23 -43 -37 -65 -13 -22
-27 -47 -31 -55 -10 -22 -111 -149 -151 -190 -45 -46 -113 -137 -113 -150 0
-14 -65 -107 -105 -150 -36 -38 -75 -109 -75 -136 0 -9 -9 -32 -21 -50 -11
-19 -17 -34 -12 -34 4 0 18 -3 30 -6 18 -5 22 0 28 28 4 18 23 52 41 75 19 23
34 48 34 55 0 8 41 56 90 106 50 51 90 96 90 101 0 5 18 32 40 60 22 28 40 55
40 60 0 6 14 20 30 33 17 12 60 66 96 119 36 54 72 103 80 110 8 6 14 19 14
29 0 10 6 23 14 29 7 6 16 30 20 52 4 22 14 52 23 65 13 21 15 42 9 125 -5 82
-3 107 10 135 12 26 15 49 10 89 -3 31 -1 65 5 82 15 39 13 147 -5 202 -15 47
-41 145 -51 194 -8 40 -109 192 -172 259 -29 31 -53 60 -53 65 0 15 -137 88
-194 105 -23 6 -48 17 -56 23 -19 16 -145 25 -190 14z m152 -93 c19 -14 39
-26 45 -26 5 0 24 -7 42 -16 18 -9 41 -14 53 -11 28 8 48 -2 48 -24 0 -13 -7
-19 -24 -19 -14 0 -28 -5 -31 -10 -15 -25 -90 -62 -136 -67 -27 -3 -54 -12
-60 -19 -7 -8 -31 -14 -56 -14 -30 0 -59 -9 -88 -25 -24 -14 -72 -33 -107 -42
-34 -8 -68 -20 -75 -25 -7 -5 -34 -16 -60 -23 -70 -20 -137 -45 -147 -56 -6
-5 -24 -9 -42 -9 -20 0 -45 -11 -70 -31 -25 -20 -45 -28 -59 -25 -13 3 -27 -2
-38 -14 -9 -11 -24 -20 -32 -20 -8 0 -15 -9 -15 -20 0 -11 -5 -20 -11 -20 -15
0 -2 68 19 100 9 14 22 37 29 53 7 15 16 27 21 27 6 0 13 12 16 26 7 27 197
224 216 224 5 0 33 16 60 35 27 19 57 35 67 35 9 0 24 7 32 15 24 21 130 34
257 31 103 -3 114 -5 146 -30z m-69 -390 c8 -19 -12 -36 -43 -36 -15 0 -35 -9
-45 -20 -10 -11 -22 -20 -27 -20 -6 0 -21 -9 -35 -20 -14 -11 -38 -20 -53 -20
-15 0 -33 -7 -40 -15 -23 -27 -95 -52 -163 -57 -65 -4 -66 -3 -53 16 7 12 47
32 92 48 43 15 91 34 106 43 14 8 33 15 42 15 9 0 33 9 53 20 21 11 43 20 50
20 7 0 22 9 33 20 23 23 75 27 83 6z m498 -46 c26 -55 54 -220 50 -300 -8
-192 -19 -270 -38 -277 -8 -3 -38 6 -68 21 -52 25 -54 27 -48 60 4 27 1 36
-18 50 -27 19 -107 21 -159 5 -19 -6 -69 -17 -110 -25 -142 -25 -165 -30 -185
-41 -11 -6 -34 -8 -52 -6 -18 3 -45 -1 -62 -10 -16 -8 -54 -20 -83 -27 -29 -6
-69 -16 -88 -20 -262 -64 -339 -85 -358 -98 -12 -8 -51 -17 -86 -19 -64 -6
-64 -6 -70 23 -3 16 -8 105 -10 198 l-5 169 27 33 c23 30 31 33 57 28 47 -10
54 -23 23 -46 -49 -35 -29 -76 23 -48 22 12 83 26 189 44 42 6 87 20 100 29
14 9 35 17 48 17 13 0 32 5 43 11 11 6 44 17 72 25 54 15 208 58 265 73 18 5
47 20 65 33 17 14 46 28 62 32 47 11 138 49 164 68 14 11 42 18 70 18 25 0 64
9 86 20 22 10 47 18 55 17 8 -1 26 -27 41 -57z"/>
<path d="M5297 4154 c-2 -2 -32 -11 -68 -19 -35 -9 -90 -25 -121 -37 -61 -21
-70 -37 -44 -71 11 -15 22 -17 53 -11 21 4 49 12 63 20 33 16 163 34 250 34
63 0 71 2 86 25 8 13 14 32 12 42 -3 16 -16 18 -116 19 -62 0 -114 -1 -115 -2z"/>
<path d="M5986 3958 c-9 -12 -16 -28 -16 -35 0 -6 26 -32 59 -57 80 -62 153
-152 193 -239 20 -43 38 -53 67 -37 33 17 26 60 -24 142 -43 69 -91 120 -196
209 -54 45 -62 47 -83 17z"/>
<path d="M9074 3773 c-4 -10 -12 -32 -20 -50 -8 -17 -14 -36 -14 -42 0 -6 -9
-28 -20 -48 -11 -21 -20 -45 -20 -55 0 -9 -5 -20 -10 -23 -6 -3 -15 -26 -21
-50 -6 -25 -17 -50 -25 -56 -8 -6 -14 -20 -14 -30 0 -10 -4 -21 -10 -24 -19
-12 -10 -32 25 -50 19 -11 36 -17 37 -15 2 3 14 28 27 55 13 28 32 67 42 87
11 20 19 44 19 52 0 8 6 27 14 43 61 127 79 198 55 214 -24 15 -59 10 -65 -8z"/>
<path d="M4595 3718 c-50 -59 -161 -224 -186 -278 -6 -14 -16 -35 -22 -48 -12
-26 -4 -38 35 -47 23 -6 30 -2 52 34 14 22 26 44 26 47 0 6 18 33 107 164 9
14 32 44 50 67 37 47 42 78 14 93 -30 16 -37 13 -76 -32z"/>
<path d="M1575 3599 c-162 -26 -208 -37 -228 -57 -19 -19 -19 -24 -7 -47 15
-28 53 -34 85 -11 18 12 104 25 295 45 36 3 71 10 78 14 17 12 15 54 -4 61
-21 8 -157 5 -219 -5z"/>
<path d="M2285 3470 c-15 -17 -16 -24 -7 -45 6 -14 18 -25 25 -25 25 0 186
-115 251 -178 58 -58 66 -62 90 -52 45 17 43 37 -10 92 -105 107 -274 228
-319 228 -7 0 -20 -9 -30 -20z"/>
<path d="M850 3275 c-50 -33 -255 -248 -278 -292 -18 -33 -15 -41 20 -59 l31
-16 40 43 c21 24 45 55 52 69 12 23 141 152 193 192 27 22 27 27 -1 60 l-22
27 -35 -24z"/>
<path d="M6200 3063 c-57 -123 -77 -161 -107 -205 -18 -26 -33 -51 -33 -55 0
-4 -12 -25 -27 -46 l-27 -39 29 -24 c17 -13 33 -24 37 -24 10 0 112 159 147
230 17 36 35 72 40 80 58 111 58 111 -5 124 -30 7 -33 5 -54 -41z"/>
<path d="M8627 2883 c-15 -21 -44 -62 -65 -92 -20 -29 -67 -92 -105 -139 -37
-47 -66 -90 -64 -96 2 -5 15 -19 30 -30 l27 -20 23 22 c13 12 52 63 88 113 35
50 80 111 100 137 20 26 44 62 55 80 19 33 19 34 0 48 -33 24 -60 17 -89 -23z"/>
<path d="M4207 2848 c-16 -36 -23 -102 -33 -298 -5 -108 -4 -128 10 -139 9 -8
26 -11 40 -7 24 6 25 9 28 119 2 61 12 160 22 219 20 117 16 138 -29 138 -16
0 -27 -10 -38 -32z"/>
<path d="M2938 2772 c-16 -9 -28 -23 -28 -30 0 -7 21 -45 46 -85 99 -154 111
-173 123 -204 19 -48 76 -102 100 -96 43 11 45 30 10 84 -18 29 -40 64 -48 80
-31 55 -74 125 -103 167 -17 24 -33 55 -37 70 -9 32 -27 36 -63 14z"/>
<path d="M306 2466 c-10 -19 -22 -52 -27 -73 -4 -21 -12 -56 -18 -78 -38 -151
-52 -225 -49 -251 3 -27 6 -29 48 -29 l45 0 6 85 c3 47 13 107 23 133 9 26 16
60 16 75 0 15 6 36 14 47 7 11 17 34 20 52 6 25 3 35 -15 52 -31 29 -41 27
-63 -13z"/>
<path d="M5609 2317 c-91 -84 -117 -107 -123 -107 -4 0 -30 -17 -59 -37 -28
-20 -68 -47 -87 -60 -19 -13 -36 -26 -38 -28 -2 -2 4 -15 13 -29 20 -30 41
-33 75 -8 14 9 34 22 45 27 57 28 259 185 279 217 8 13 5 23 -14 43 -13 14
-28 25 -34 25 -6 0 -32 -19 -57 -43z"/>
<path d="M7980 2147 c-36 -28 -81 -66 -100 -84 -75 -67 -96 -85 -130 -107 -53
-35 -65 -53 -50 -72 28 -33 47 -35 87 -8 21 14 40 28 43 32 3 4 21 18 40 32
77 54 230 193 230 210 0 18 -30 50 -46 50 -5 0 -38 -24 -74 -53z"/>
<path d="M3511 1997 c-27 -30 -21 -45 37 -89 42 -32 69 -49 138 -86 43 -23
111 -52 125 -52 8 0 23 -7 33 -15 11 -8 32 -15 48 -15 48 0 53 71 6 89 -13 4
-39 14 -58 21 -114 40 -133 50 -258 140 -23 16 -44 30 -46 30 -1 0 -12 -11
-25 -23z"/>
<path d="M4310 1923 c-19 -8 -37 -17 -39 -18 -12 -12 133 -262 180 -310 16
-17 29 -36 29 -41 0 -6 11 -21 24 -33 21 -20 26 -21 45 -9 40 24 37 54 -8 103
-62 67 -57 76 52 103 50 12 102 22 114 22 12 0 34 7 50 15 15 8 47 20 70 25
44 11 60 33 48 69 -9 30 -34 33 -77 11 -21 -11 -50 -20 -64 -20 -14 0 -35 -5
-47 -12 -19 -10 -70 -21 -208 -44 -45 -8 -75 8 -83 43 -6 25 -45 114 -49 112
-1 0 -18 -7 -37 -16z"/>
<path d="M7215 1624 c-22 -13 -47 -27 -55 -30 -8 -3 -52 -24 -97 -45 -44 -22
-84 -39 -89 -39 -4 0 -31 -12 -61 -27 -50 -24 -54 -28 -48 -52 4 -14 10 -30
15 -35 10 -10 62 6 150 46 36 16 90 41 120 55 126 57 145 70 145 99 0 16 -8
32 -20 40 -17 11 -26 9 -60 -12z"/>
<path d="M6347 1304 c-4 -4 -42 -13 -84 -20 -43 -7 -103 -17 -133 -22 -30 -6
-81 -13 -113 -17 -63 -7 -87 -24 -87 -61 0 -40 36 -41 200 -9 134 26 233 48
257 57 23 7 23 8 6 43 -16 33 -32 43 -46 29z"/>
<path d="M4982 1267 c-12 -13 -22 -26 -22 -30 0 -15 53 -39 112 -52 35 -8 105
-23 157 -34 52 -12 105 -21 118 -21 13 0 23 -4 23 -10 0 -5 11 -10 25 -10 20
0 26 7 36 40 16 54 2 70 -63 70 -61 0 -251 36 -295 56 -44 20 -66 18 -91 -9z"/>
</g>
</svg>
