<?xml version="1.0" standalone="no"?>
<!DOCTYPE svg PUBLIC "-//W3C//DTD SVG 20010904//EN"
 "http://www.w3.org/TR/2001/REC-SVG-20010904/DTD/svg10.dtd">
<svg version="1.0" xmlns="http://www.w3.org/2000/svg"
 width="1080.000000pt" height="1080.000000pt" viewBox="0 0 1080.000000 1080.000000"
 preserveAspectRatio="xMidYMid meet">

<g transform="translate(0.000000,1080.000000) scale(0.100000,-0.100000)"
fill="#0000FF" stroke="none">
<path d="M6430 5983 c-48 -13 -80 -124 -80 -272 0 -57 2 -102 5 -99 3 2 7 49
9 104 8 193 56 289 124 246 21 -14 31 -68 21 -107 -19 -69 -85 -99 -100 -45
l-7 25 -1 -27 c-1 -22 5 -29 25 -34 69 -17 126 78 95 159 -18 48 -46 63 -91
50z"/>
<path d="M5886 5845 c-32 -32 -32 -102 0 -152 25 -40 105 -27 103 17 0 9 -4 6
-9 -7 -7 -17 -18 -23 -39 -23 -39 0 -64 36 -63 91 1 50 23 78 57 71 42 -8 130
-118 199 -247 14 -27 26 -43 26 -35 0 23 -71 156 -109 203 -70 86 -130 116
-165 82z"/>
<path d="M6270 5541 c-78 -12 -200 -80 -200 -111 0 -6 -6 -10 -14 -10 -19 0
-46 -71 -46 -121 0 -22 6 -52 14 -67 l14 -27 -74 1 c-137 2 -228 -71 -212
-171 14 -83 112 -147 229 -148 l67 -1 -42 -27 c-48 -30 -86 -74 -86 -99 0 -60
116 -67 177 -11 16 14 22 21 13 14 -49 -38 -135 -54 -158 -31 -33 33 3 85 90
129 58 30 44 43 -43 40 -61 -2 -83 2 -125 23 -134 65 -142 186 -17 243 76 35
165 30 248 -15 33 -18 51 -24 43 -15 -11 15 -11 16 7 9 34 -14 109 -18 135 -7
21 8 13 10 -43 10 -76 1 -151 32 -193 79 -29 34 -31 89 -4 141 22 44 105 117
141 125 13 3 44 10 69 17 95 23 225 -13 265 -75 9 -13 18 -46 22 -75 5 -43 2
-56 -18 -86 -25 -36 -80 -78 -126 -96 -14 -5 -23 -12 -20 -15 3 -3 27 4 52 15
56 25 59 25 52 8 -3 -7 27 18 66 56 103 99 199 134 241 88 27 -29 38 -85 27
-128 -15 -54 -71 -130 -111 -150 -19 -10 -37 -19 -38 -20 -2 -1 12 -18 32 -38
63 -62 42 -126 -49 -150 -28 -8 -40 -14 -27 -14 31 -1 83 22 105 47 27 29 24
75 -6 113 l-25 33 46 42 c99 88 122 214 52 284 -36 36 -118 19 -206 -45 -20
-15 -20 -14 -18 30 3 53 -17 109 -54 147 -42 46 -159 73 -252 59z"/>
<path d="M6405 5430 c-4 -6 -3 -16 3 -22 6 -6 12 -6 17 2 4 6 3 16 -3 22 -6 6
-12 6 -17 -2z"/>
<path d="M6152 5376 c1 -10 8 -17 13 -17 15 1 12 24 -3 29 -9 3 -13 -2 -10
-12z"/>
<path d="M6340 5133 c-48 -17 -130 -57 -130 -63 0 -4 -9 -17 -20 -30 -27 -31
-50 -112 -50 -172 0 -49 34 -148 51 -148 5 0 9 -6 9 -13 0 -17 65 -79 108
-103 19 -11 45 -37 58 -59 13 -22 24 -34 24 -28 0 7 6 21 14 30 8 10 31 38 51
63 20 25 43 53 50 62 48 59 69 102 71 151 2 29 6 66 9 82 7 41 -18 123 -52
168 -41 54 -132 82 -193 60z m98 -22 c42 -16 42 -17 20 -28 -13 -6 -66 -26
-118 -43 -52 -18 -101 -37 -107 -42 -7 -6 -13 -7 -13 -3 0 4 -7 1 -17 -6 -15
-13 -15 -12 1 18 28 55 84 100 139 113 45 11 47 11 95 -9z m-71 -127 c-27 -14
-56 -24 -65 -22 -10 2 7 13 38 25 74 29 86 28 27 -3z m184 -4 c11 -38 10 -113
-1 -130 -9 -13 -13 -11 -29 9 -18 24 -20 24 -82 11 -35 -7 -98 -21 -139 -32
-41 -11 -88 -23 -103 -25 l-28 -5 3 57 c2 36 8 60 16 63 7 2 10 -2 6 -12 -5
-13 -1 -14 22 -7 16 5 65 19 109 31 44 12 85 26 90 30 17 13 99 39 115 37 8
-1 17 -13 21 -27z m-113 -189 c-25 -10 -71 -22 -101 -25 -30 -4 -63 -14 -73
-21 -18 -14 -17 -14 11 -10 136 20 181 29 225 40 l49 13 -19 -36 c-10 -21 -31
-50 -45 -67 -15 -16 -43 -56 -63 -88 -23 -37 -38 -54 -42 -45 -11 29 -37 56
-78 82 -45 28 -108 105 -95 116 11 9 129 41 173 46 18 3 36 7 39 9 2 3 18 5
35 5 29 -1 28 -2 -16 -19z m-231 3 c-3 -3 -12 -4 -19 -1 -8 3 -5 6 6 6 11 1
17 -2 13 -5z"/>
<path d="M5323 4489 c-37 -11 -46 -34 -10 -26 12 4 41 9 65 13 23 4 42 10 42
15 0 11 -55 10 -97 -2z"/>
<path d="M5540 4436 c0 -8 7 -16 15 -20 9 -3 25 -21 36 -41 22 -37 39 -46 39
-20 0 16 -67 95 -81 95 -5 0 -9 -6 -9 -14z"/>
<path d="M6361 4344 c-15 -36 -20 -59 -14 -65 10 -10 53 78 53 107 0 30 -17
11 -39 -42z"/>
<path d="M5147 4358 c-39 -53 -50 -78 -34 -78 11 0 77 90 77 106 0 14 -22 -1
-43 -28z"/>
<path d="M4308 4343 c-17 -3 -28 -11 -28 -20 0 -9 6 -13 14 -10 7 3 34 9 60
12 25 4 49 11 52 16 5 9 -46 10 -98 2z"/>
<path d="M4536 4311 c-7 -10 93 -85 102 -77 8 8 -38 55 -70 72 -15 8 -29 10
-32 5z"/>
<path d="M4107 4222 c-33 -34 -47 -62 -31 -62 11 0 91 90 86 95 -10 10 -18 5
-55 -33z"/>
<path d="M5577 4159 c-17 -31 -25 -55 -19 -61 5 -5 22 15 41 52 21 39 28 60
19 60 -7 0 -26 -23 -41 -51z"/>
<path d="M6228 4110 c-23 -30 -33 -52 -26 -56 10 -7 43 28 73 79 29 48 -7 31
-47 -23z"/>
<path d="M5057 4143 c-11 -10 -8 -123 3 -123 6 0 10 15 10 34 0 18 3 48 6 65
6 29 -3 40 -19 24z"/>
<path d="M4713 4122 c-14 -9 46 -111 65 -112 17 0 16 0 -21 63 -20 32 -38 52
-44 49z"/>
<path d="M3986 3999 c-19 -64 -20 -79 -3 -79 15 0 39 110 27 124 -5 5 -16 -15
-24 -45z"/>
<path d="M5402 3970 c-61 -44 -53 -67 8 -25 47 32 64 51 53 58 -4 3 -32 -12
-61 -33z"/>
<path d="M6056 3930 c-46 -38 -55 -52 -39 -57 14 -5 108 83 97 90 -6 3 -32
-12 -58 -33z"/>
<path d="M4866 3912 c-8 -13 23 -38 67 -57 45 -18 47 -19 47 -1 0 8 -12 17
-27 21 -15 3 -39 15 -54 26 -15 11 -30 15 -33 11z"/>
<path d="M5091 3850 c26 -46 56 -76 65 -67 4 4 1 14 -6 23 -17 20 -4 29 51 38
26 4 39 11 39 22 0 11 -6 14 -22 8 -73 -23 -93 -24 -107 -4 -7 11 -20 20 -28
20 -11 0 -9 -9 8 -40z"/>
<path d="M5833 3791 c-49 -23 -68 -41 -42 -41 18 0 109 42 109 51 0 17 -17 15
-67 -10z"/>
<path d="M3975 3780 c-3 -5 1 -10 10 -10 9 0 13 5 10 10 -3 6 -8 10 -10 10 -2
0 -7 -4 -10 -10z"/>
<path d="M5591 3715 c-68 -13 -85 -39 -19 -29 68 11 88 18 80 29 -5 7 -25 7
-61 0z"/>
<path d="M5266 3711 c-6 -9 15 -17 97 -35 19 -5 27 -2 27 7 0 9 -16 16 -43 20
-24 3 -50 9 -59 12 -9 4 -19 2 -22 -4z"/>
</g>
</svg>
