<?xml version="1.0" standalone="no"?>
<!DOCTYPE svg PUBLIC "-//W3C//DTD SVG 20010904//EN"
 "http://www.w3.org/TR/2001/REC-SVG-20010904/DTD/svg10.dtd">
<svg version="1.0" xmlns="http://www.w3.org/2000/svg"
 width="1080.000000pt" height="1080.000000pt" viewBox="0 0 1080.000000 1080.000000"
 preserveAspectRatio="xMidYMid meet">
<metadata>
Created by potrace 1.16, written by Peter Selinger 2001-2019
</metadata>
<g transform="translate(0.000000,1080.000000) scale(0.100000,-0.100000)"
fill="#ff0000" stroke="none">
<path d="M5645 10046 c-20 -20 -23 -31 -18 -63 3 -21 12 -49 20 -61 23 -37 10
-64 -44 -89 -88 -40 -85 -34 -88 -174 -1 -68 -7 -158 -13 -199 -6 -41 -14 -96
-17 -122 -5 -40 -11 -50 -39 -68 -44 -27 -64 -25 -98 7 -21 20 -29 23 -33 12
-23 -64 -55 -173 -55 -189 0 -28 15 -32 35 -10 9 10 30 22 46 25 34 8 35 13
12 54 -27 46 -9 57 85 53 81 -3 110 -19 95 -52 -8 -18 -16 -148 -14 -245 0
-16 -2 -83 -5 -147 l-5 -118 -72 -73 c-46 -47 -86 -78 -109 -86 -21 -7 -40
-16 -43 -21 -11 -18 35 -19 159 -5 110 13 135 13 175 1 45 -13 116 -48 136
-67 20 -19 51 -7 98 39 l48 47 107 1 c151 2 152 2 152 20 0 9 -11 29 -25 46
-34 40 -40 71 -27 129 13 57 10 71 -21 84 -16 7 -28 30 -45 85 -13 41 -30 90
-38 108 -8 18 -14 51 -14 73 0 22 -7 56 -15 76 -24 57 -20 82 17 97 31 14 32
15 34 90 2 43 10 89 19 105 19 38 19 125 0 159 -23 44 -77 175 -84 207 -5 23
-19 36 -61 59 -121 63 -130 72 -130 122 0 99 -67 148 -125 90z m296 -488 c3
-20 11 -43 16 -50 15 -18 27 -101 18 -127 -9 -29 -39 -26 -60 6 -18 27 -31
147 -20 191 9 37 39 24 46 -20z m-166 -453 c5 -11 20 -34 31 -50 12 -17 25
-41 29 -55 4 -14 30 -62 58 -108 45 -74 49 -85 38 -108 -17 -39 -14 -49 35
-109 33 -41 44 -63 42 -83 -3 -25 -8 -28 -58 -34 -71 -8 -288 -9 -317 -2 -43
12 -55 133 -18 164 12 10 15 34 14 99 -1 86 3 105 52 207 10 22 19 46 19 53 0
48 54 67 75 26z"/>
<path d="M6253 8442 c-57 -1 -103 -6 -103 -11 0 -18 34 -35 83 -43 112 -17
294 -40 332 -42 28 -1 40 3 43 14 2 11 -13 21 -50 33 -125 39 -202 52 -305 49z"/>
<path d="M5910 8350 c-14 -4 -63 -24 -110 -45 l-85 -37 -90 12 c-49 6 -105 16
-123 22 -18 5 -113 11 -210 12 -109 1 -201 7 -240 16 -73 16 -86 8 -77 -46 10
-60 -19 -80 -79 -53 -20 10 -30 9 -51 -5 -34 -22 -29 -35 29 -70 l47 -30 186
3 c133 2 199 7 230 17 59 20 97 15 101 -12 5 -33 -20 -50 -100 -70 -60 -15
-111 -18 -278 -17 -200 0 -207 1 -275 28 -57 22 -87 28 -159 29 -52 1 -90 -3
-92 -9 -2 -5 5 -21 15 -34 16 -21 32 -25 137 -36 223 -24 803 -7 917 27 61 18
79 19 185 10 64 -6 200 -11 301 -12 102 -1 205 -5 230 -10 89 -16 196 -21 241
-11 28 6 69 6 110 1 325 -43 427 -47 417 -17 -11 36 -673 110 -792 89 -33 -6
-127 -14 -210 -17 -145 -6 -201 -1 -435 35 -125 19 -176 43 -163 77 5 12 25
14 127 8 66 -4 159 -13 205 -21 96 -16 831 -21 831 -5 0 14 -56 20 -205 20
-197 1 -362 12 -381 25 -12 9 -13 17 -5 38 8 21 6 29 -9 43 -29 27 -112 53
-140 45z"/>
<path d="M4363 8009 c-21 -21 -15 -43 20 -77 58 -56 235 -76 456 -51 77 9 124
9 208 -1 59 -7 128 -15 153 -17 69 -6 84 -11 116 -35 41 -33 129 -58 203 -58
61 0 65 2 104 40 63 63 46 68 -149 44 -57 -7 -87 12 -82 50 4 27 76 47 173 46
361 -1 641 3 648 10 18 16 -16 20 -155 19 -147 -2 -167 -2 -440 2 -104 1 -179
-3 -208 -10 -25 -7 -68 -16 -96 -21 -28 -4 -66 -16 -85 -25 -32 -17 -37 -17
-102 0 -62 16 -83 17 -240 5 -135 -9 -178 -9 -202 0 -16 7 -43 16 -60 20 -16
5 -61 20 -100 34 -90 33 -146 41 -162 25z"/>
<path d="M6310 7950 c-8 -5 -13 -10 -10 -11 3 0 46 -4 95 -9 50 -5 135 -14
190 -20 55 -6 143 -15 195 -19 126 -12 410 -50 421 -57 5 -3 16 -1 24 3 11 7
0 13 -42 26 -98 27 -153 36 -410 61 -325 32 -444 39 -463 26z"/>
<path d="M4107 7852 c-17 -18 -24 -82 -10 -82 4 0 22 14 40 31 31 31 33 31 57
16 13 -9 27 -30 31 -46 3 -16 15 -37 27 -47 18 -17 39 -19 227 -19 172 1 223
5 311 23 127 27 174 27 220 4 46 -22 49 -60 6 -80 -40 -20 -710 -41 -737 -24
-26 17 -39 15 -95 -10 -31 -13 -88 -26 -153 -32 -151 -16 -142 -32 21 -41 113
-6 142 -4 187 10 38 13 71 16 124 12 92 -6 372 8 507 27 101 14 126 19 253 54
45 12 65 13 95 4 68 -20 115 -24 392 -33 503 -17 674 -26 709 -39 25 -10 62
-11 145 -4 134 10 498 10 810 -1 192 -6 228 -5 224 6 -9 26 -108 38 -314 37
-213 -1 -276 10 -333 53 -25 20 -51 25 -51 10 0 -6 5 -13 10 -16 6 -3 10 -15
10 -27 0 -20 -1 -20 -292 -13 -161 4 -368 8 -459 9 -148 1 -169 3 -188 20 -16
14 -18 23 -10 37 9 18 24 19 207 19 197 0 511 -15 545 -26 14 -5 18 -1 15 13
-3 15 -17 19 -86 25 -46 4 -99 12 -118 18 -23 8 -104 11 -242 9 -195 -3 -211
-2 -276 20 -88 30 -125 25 -240 -34 l-88 -45 -134 0 c-156 0 -230 16 -279 59
-53 46 -177 56 -483 41 l-231 -12 -59 31 c-111 60 -261 81 -295 43z"/>
<path d="M5926 7862 c-11 -18 26 -24 209 -32 99 -5 198 -13 220 -18 22 -6 96
-13 165 -16 122 -6 238 -21 390 -51 109 -21 395 -49 425 -41 18 5 25 12 23 24
-3 14 -19 18 -103 23 -55 3 -125 10 -155 16 -115 24 -179 33 -310 43 -74 6
-169 16 -210 21 -182 25 -644 47 -654 31z"/>
<path d="M5083 7565 c-34 -7 -72 -19 -85 -26 -15 -9 -80 -14 -185 -17 -90 -2
-163 -7 -163 -11 0 -9 144 -31 200 -31 63 1 225 26 284 45 61 19 97 19 122 1
19 -15 19 -15 -2 -36 -38 -39 -239 -80 -434 -89 l-135 -6 3 -32 c2 -25 -1 -33
-20 -38 -13 -3 -32 -10 -43 -15 -59 -27 -209 -72 -270 -81 -88 -14 -111 -25
-71 -35 48 -12 137 3 221 36 50 19 112 34 165 40 84 9 93 14 119 58 14 24 154
58 346 83 50 7 113 21 140 32 130 51 289 58 600 28 72 -7 158 -7 250 -1 137 9
284 26 292 34 13 12 -118 16 -288 8 -243 -11 -320 -10 -439 8 -106 16 -182 18
-251 6 -41 -7 -55 -5 -113 23 -75 35 -136 39 -243 16z"/>
<path d="M6943 7510 c-62 -3 -114 -8 -117 -11 -3 -3 29 -11 72 -18 42 -7 94
-19 115 -27 26 -10 82 -14 181 -14 79 0 206 -7 283 -16 178 -21 175 -21 180
-8 9 26 -88 44 -387 74 -47 4 -101 13 -120 19 -19 6 -48 10 -65 9 -16 -1 -80
-4 -142 -8z"/>
<path d="M4395 7495 c-140 -10 -153 -13 -186 -37 -19 -15 -60 -39 -92 -53 -98
-45 -78 -62 31 -26 31 10 80 24 107 29 28 6 77 21 110 32 33 12 91 25 128 30
69 7 105 24 70 31 -10 3 -86 0 -168 -6z"/>
<path d="M6445 7417 c-143 -5 -397 -10 -565 -11 -344 -2 -456 -9 -550 -36 -36
-10 -123 -25 -195 -33 -133 -16 -145 -19 -315 -100 -47 -22 -98 -43 -115 -48
-197 -53 -326 -101 -543 -198 -157 -70 -259 -101 -340 -102 -117 -1 -249 -60
-185 -83 10 -3 38 -17 63 -31 74 -43 114 -47 226 -26 55 11 140 33 189 51 50
17 99 34 110 37 21 5 80 30 105 45 16 9 46 23 70 32 8 4 27 14 42 24 82 53
121 73 141 70 57 -8 11 -53 -143 -137 -25 -14 -63 -35 -85 -47 -115 -65 -225
-109 -325 -129 -36 -8 -83 -18 -105 -24 -92 -24 -128 -16 -274 59 -140 73
-171 97 -171 134 0 11 -5 28 -10 36 -7 12 -12 7 -25 -22 -8 -21 -15 -51 -15
-68 0 -27 6 -34 43 -50 23 -11 52 -20 64 -20 12 0 24 -4 27 -9 4 -5 43 -28 89
-50 45 -23 93 -48 107 -55 14 -8 77 -40 141 -72 l117 -58 78 71 c44 39 113 92
154 120 41 27 99 66 128 86 28 20 76 54 105 74 28 20 76 54 105 76 29 22 124
75 210 118 86 43 173 88 194 100 64 39 94 1 38 -49 -16 -15 -62 -45 -102 -66
-40 -21 -102 -58 -138 -81 -36 -23 -101 -61 -145 -85 -44 -23 -82 -46 -85 -50
-3 -5 -17 -14 -30 -19 -46 -20 -131 -83 -213 -157 -26 -24 -74 -62 -107 -85
-32 -22 -79 -67 -105 -100 -25 -32 -53 -59 -61 -59 -9 0 -34 15 -57 33 -59 46
-227 127 -265 127 -21 0 46 -59 95 -85 64 -32 161 -104 181 -133 23 -33 52
-151 52 -210 0 -24 6 -75 14 -115 8 -40 17 -90 21 -112 6 -43 28 -111 86 -275
20 -58 47 -136 59 -175 12 -38 38 -95 56 -126 19 -31 34 -60 34 -63 0 -6 38
-64 50 -76 10 -10 50 -69 50 -74 0 -4 31 -53 82 -130 27 -40 135 -175 214
-266 180 -209 333 -314 513 -351 24 -5 49 -13 55 -18 6 -4 27 -11 46 -15 35
-6 145 -48 156 -59 3 -3 -11 -9 -32 -13 -47 -9 -160 9 -269 42 -44 14 -98 30
-120 36 -57 17 -287 199 -348 275 -28 35 -54 63 -58 63 -5 0 -12 -7 -17 -16
-17 -30 -43 0 -83 95 -33 79 -127 231 -319 516 -41 61 -68 115 -89 175 -14 39
-25 55 -38 56 -45 1 -64 17 -89 72 -50 110 -54 120 -54 146 0 15 -7 43 -15 63
-8 19 -15 45 -15 56 0 11 -14 42 -31 70 -17 27 -34 59 -39 71 -7 20 -132 165
-210 247 -35 36 -142 121 -192 152 -34 21 -77 22 -85 1 -7 -18 10 -34 127
-124 89 -69 124 -106 215 -225 37 -49 73 -94 79 -100 41 -36 85 -111 108 -180
42 -125 73 -187 137 -263 58 -69 101 -138 101 -164 0 -7 6 -24 13 -38 53 -98
74 -134 122 -200 30 -41 91 -136 135 -210 45 -74 95 -154 111 -177 39 -56 189
-192 242 -221 23 -12 80 -45 127 -72 47 -27 106 -58 132 -69 25 -10 49 -24 52
-30 4 -6 20 -11 35 -11 15 0 36 -7 47 -15 10 -8 40 -17 67 -21 26 -4 50 -11
53 -15 3 -5 90 -9 193 -9 l189 0 118 39 c169 56 332 122 379 153 92 61 349
334 429 457 36 55 66 103 66 107 0 3 9 18 19 33 11 15 34 54 52 86 129 239
170 306 195 317 30 14 54 4 54 -23 0 -40 -35 -101 -293 -509 -29 -47 -70 -114
-90 -150 -43 -78 -155 -191 -317 -320 -145 -115 -205 -148 -360 -199 -256 -83
-259 -84 -388 -76 -126 7 -167 13 -337 52 -151 35 -193 50 -240 84 -22 16 -61
45 -87 64 -26 19 -51 35 -55 35 -5 0 -32 15 -60 34 -28 19 -56 35 -62 37 -5 2
-40 29 -76 59 -83 68 -189 200 -243 302 -60 112 -86 151 -149 221 -51 56 -123
172 -123 197 0 5 -25 52 -56 106 -32 54 -68 123 -82 154 -14 30 -47 83 -74
118 -28 38 -48 74 -48 89 0 52 -37 130 -100 213 -107 141 -151 183 -150 148 0
-7 44 -67 96 -132 53 -66 100 -130 105 -143 15 -41 11 -74 -11 -80 -32 -8 -24
-25 46 -99 74 -77 84 -93 118 -196 43 -126 51 -144 77 -179 29 -39 129 -207
129 -218 0 -3 36 -42 81 -86 62 -61 89 -97 113 -150 28 -59 50 -87 141 -174
60 -57 127 -115 150 -130 22 -14 42 -28 45 -31 9 -10 266 -179 281 -185 8 -3
19 -17 26 -31 11 -24 11 -26 -10 -19 -12 3 -36 10 -54 15 -38 9 -112 51 -164
92 -20 15 -39 28 -43 28 -18 0 -194 133 -271 205 -49 46 -115 106 -145 134
-46 41 -58 60 -69 102 -10 40 -20 55 -45 70 -34 20 -134 147 -177 226 -83 150
-170 335 -190 403 -10 35 -35 68 -109 145 -84 87 -224 261 -272 335 -8 14 -50
61 -92 104 -55 58 -79 77 -87 69 -27 -27 2 -72 110 -175 59 -57 134 -139 166
-183 68 -93 143 -181 203 -239 38 -37 52 -72 36 -89 -11 -11 -59 20 -95 61
-19 22 -72 84 -119 138 -102 119 -332 356 -338 349 -11 -11 59 -97 168 -210
64 -66 149 -158 190 -205 41 -47 119 -128 173 -182 53 -53 97 -101 97 -106 0
-6 32 -76 70 -155 38 -79 70 -149 70 -156 0 -30 179 -262 274 -355 88 -86 358
-296 381 -296 3 0 25 -15 49 -34 66 -50 155 -89 301 -131 141 -40 202 -51 340
-61 50 -3 123 -9 164 -13 40 -4 94 -4 120 0 117 20 321 3 321 -26 0 -27 -33
-38 -128 -43 -73 -3 -113 0 -162 13 -50 13 -99 17 -209 15 -79 -1 -154 -6
-167 -11 -32 -12 -31 -43 3 -58 49 -22 190 -32 303 -22 217 21 349 40 385 55
21 9 49 16 64 16 43 0 58 16 22 23 -17 4 -31 10 -31 15 0 11 102 62 124 62 29
0 188 169 236 250 24 41 75 111 114 155 65 75 166 219 166 239 0 4 51 90 114
190 62 99 135 219 162 266 112 198 147 256 168 279 20 22 103 81 153 109 12 7
23 17 23 23 0 5 5 9 11 9 10 0 90 59 114 84 12 12 72 56 78 56 1 0 48 25 102
55 61 33 112 55 131 55 75 0 50 -31 -106 -131 -71 -46 -156 -101 -188 -121
-31 -21 -64 -41 -72 -45 -21 -10 -70 -44 -96 -68 -33 -30 -154 -176 -154 -185
0 -5 -22 -41 -48 -82 -148 -224 -136 -202 -212 -398 -54 -139 -84 -181 -266
-370 -55 -58 -131 -145 -169 -195 -38 -49 -85 -105 -104 -123 -39 -37 -142
-102 -160 -102 -6 0 -11 -4 -11 -10 0 -19 47 -10 110 23 191 99 274 147 330
193 51 42 155 154 175 186 30 52 -2 28 -80 -59 -85 -96 -145 -143 -182 -143
-61 0 -26 68 92 178 39 37 106 110 148 163 47 59 110 123 162 163 103 82 183
168 228 244 32 52 130 211 160 256 6 10 30 41 52 69 60 74 84 110 84 126 1 11
-4 9 -17 -5 -26 -29 -65 -79 -82 -104 -8 -13 -31 -44 -51 -69 -19 -25 -82
-113 -139 -196 -109 -156 -214 -275 -243 -275 -30 0 -20 51 29 145 91 176 231
371 362 505 69 71 93 90 115 90 22 0 31 -7 41 -32 l14 -32 25 55 c19 40 45 70
99 115 161 134 242 183 393 237 120 43 226 77 241 77 8 0 14 5 14 11 0 19
-128 5 -186 -20 -43 -19 -73 -23 -195 -25 -175 -4 -262 -28 -340 -95 -29 -25
-58 -41 -73 -41 -32 0 -32 1 -2 49 30 47 83 89 170 137 l68 36 172 8 c169 9
226 19 226 40 0 8 -42 9 -137 5 -227 -11 -273 -19 -357 -60 -87 -44 -186 -119
-193 -146 -3 -10 -9 -19 -14 -19 -5 0 -9 -6 -10 -12 -2 -50 -305 -335 -379
-357 -48 -14 -97 -69 -153 -173 -22 -40 -47 -84 -57 -98 -9 -14 -43 -74 -75
-135 -32 -60 -79 -138 -104 -173 -25 -35 -53 -75 -61 -90 -42 -75 -354 -358
-430 -389 -19 -9 -77 -35 -128 -59 -133 -62 -290 -108 -345 -99 -61 9 -146 38
-392 130 -186 71 -349 164 -403 232 -62 77 -190 250 -206 278 -63 114 -82 146
-115 195 -19 30 -44 64 -54 75 -67 72 -68 73 -65 207 2 78 -1 133 -8 149 -28
57 -59 173 -69 254 -24 199 -27 273 -12 321 9 27 21 78 28 114 13 70 42 110
80 110 18 0 20 -4 16 -27 -24 -116 -31 -142 -43 -171 -14 -33 -17 -133 -5
-187 6 -26 7 -28 14 -10 5 10 12 69 18 130 12 137 13 144 51 224 38 82 50 98
125 160 33 27 73 69 89 93 16 24 38 51 49 60 15 13 16 17 5 18 -8 0 -51 -38
-95 -85 -81 -85 -81 -85 -131 -85 -47 0 -55 -4 -111 -55 -88 -79 -118 -138
-128 -250 -14 -162 -6 -275 22 -307 21 -24 13 -62 -14 -66 -23 -3 -31 -26 -13
-37 14 -9 58 -106 91 -202 34 -99 29 -138 -16 -138 -31 0 -29 -4 -70 140 -8
28 -26 82 -40 120 -15 39 -29 79 -32 90 -3 11 -11 27 -17 35 -40 50 -76 268
-76 456 0 62 4 77 29 114 37 55 96 117 141 146 31 20 49 34 110 86 50 43 111
88 120 88 5 0 10 3 10 8 0 8 45 36 120 73 30 15 91 59 135 98 44 39 107 85
140 102 56 30 112 65 209 132 21 15 57 32 80 38 23 6 55 16 71 23 86 37 289
81 416 91 62 4 80 3 93 -10 28 -29 15 -40 -104 -87 -33 -13 -173 -37 -278 -48
-71 -7 -100 -16 -199 -64 -64 -31 -145 -76 -182 -100 -89 -58 -246 -159 -268
-171 -10 -6 -38 -24 -63 -40 -25 -17 -50 -32 -56 -35 -6 -3 -76 -50 -155 -105
-254 -177 -299 -241 -299 -418 0 -105 13 -145 24 -71 3 26 6 66 6 90 0 72 72
231 112 247 7 3 68 45 136 95 67 49 152 105 187 123 36 18 102 59 148 90 116
81 400 251 477 287 53 24 88 32 193 41 77 7 157 21 200 35 40 13 95 30 122 37
28 7 73 30 102 51 48 36 58 40 150 49 54 5 114 14 134 19 19 6 189 10 378 10
l342 1 57 -28 c93 -46 73 -91 -33 -72 -27 5 -129 16 -225 25 -143 13 -202 13
-325 4 -201 -15 -391 -38 -442 -55 -23 -7 -50 -11 -60 -9 -11 3 -27 -3 -37
-15 -11 -12 -26 -21 -35 -21 -9 0 -29 -9 -46 -20 -16 -11 -38 -20 -48 -20 -11
0 -31 -7 -45 -15 -15 -8 -52 -26 -83 -40 -31 -14 -80 -46 -110 -72 -30 -27
-75 -64 -99 -83 -25 -19 -47 -37 -50 -40 -15 -18 -267 -233 -322 -275 -87 -67
-205 -220 -238 -308 -7 -18 -16 -41 -21 -52 -10 -22 -32 -102 -50 -178 -12
-53 -5 -93 11 -67 6 8 10 27 10 42 0 41 30 114 126 313 50 104 82 143 104 130
15 -9 12 -59 -5 -81 -16 -21 -21 -75 -6 -59 5 6 28 47 51 92 24 44 52 92 64
105 218 250 332 359 426 405 14 7 39 22 55 32 17 11 55 32 85 47 30 16 61 32
68 38 37 27 231 107 281 116 31 5 85 14 121 20 36 6 94 16 130 23 99 18 503
14 614 -7 53 -9 141 -16 220 -16 73 0 136 -4 142 -8 5 -4 36 -16 69 -26 33
-10 78 -24 100 -31 101 -34 183 -47 301 -49 88 -1 124 2 124 10 0 13 -82 37
-185 54 -38 6 -101 17 -140 25 -38 8 -88 17 -110 20 -84 13 -156 40 -205 77
-28 21 -70 45 -94 53 -127 43 -347 66 -459 46 -39 -7 -234 -13 -487 -16 -231
-2 -424 -6 -428 -9 -5 -3 -67 -10 -138 -16 -71 -6 -149 -17 -174 -24 -25 -8
-92 -21 -150 -30 -165 -26 -226 -44 -324 -93 -130 -66 -226 -78 -226 -28 0 31
24 49 105 78 39 14 122 48 185 75 101 45 128 52 223 62 59 6 147 23 195 37 86
26 89 26 402 25 173 0 387 -1 475 -2 94 -1 213 4 290 13 248 30 434 1 663
-104 34 -16 73 -29 86 -29 14 0 37 -5 53 -11 15 -6 46 -14 68 -19 22 -4 109
-22 193 -40 84 -17 158 -29 165 -27 20 7 -65 44 -118 51 -27 4 -63 11 -80 16
-16 5 -75 19 -130 31 -129 27 -145 34 -145 59 0 37 41 46 123 26 40 -9 99 -23
132 -31 235 -54 218 -51 223 -36 5 15 -65 56 -133 77 -47 14 -111 20 -300 25
-237 8 -283 12 -440 42 -118 23 -127 23 -410 14z m-1910 -337 c16 -26 -12 -50
-128 -108 -301 -151 -441 -202 -552 -202 -76 0 -148 24 -143 49 4 19 41 28
123 30 87 2 184 25 249 59 30 17 83 40 116 51 33 12 68 25 78 30 9 5 37 18 62
29 69 30 73 32 110 52 39 21 76 25 85 10z m-435 -449 c0 -16 -61 -81 -76 -81
-17 0 -101 25 -111 33 -7 5 -13 18 -13 28 0 19 49 38 100 40 14 0 34 4 45 8
26 11 55 -4 55 -28z m2208 -2278 c2 -14 -21 -43 -81 -99 -66 -62 -99 -85 -153
-106 -126 -50 -212 -46 -198 9 5 16 18 26 47 34 58 15 175 68 225 101 24 15
45 28 48 28 2 0 23 14 46 30 46 33 61 34 66 3z"/>
<path d="M4458 7389 c-32 -4 -66 -13 -76 -18 -36 -19 -359 -103 -417 -108 -33
-3 -97 -16 -142 -29 -44 -12 -109 -26 -142 -30 -67 -7 -82 -17 -51 -34 30 -16
181 12 375 68 39 11 107 25 151 31 81 10 130 23 314 79 138 43 133 62 -12 41z"/>
<path d="M4075 7179 c-103 -34 -162 -50 -257 -68 -59 -12 -119 -21 -133 -21
-39 0 -155 -31 -155 -41 0 -21 256 15 420 58 90 23 201 57 245 74 30 12 -84 9
-120 -2z"/>
<path d="M4115 7087 c-22 -15 -85 -38 -189 -68 -63 -18 -154 -31 -329 -48 -37
-3 -67 -10 -67 -16 0 -27 276 -9 385 25 64 19 150 52 202 75 17 8 35 15 41 15
5 0 15 7 22 15 11 13 8 15 -17 15 -16 0 -37 -6 -48 -13z"/>
<path d="M6200 7090 c-55 -4 -133 -18 -185 -33 -49 -15 -98 -27 -108 -27 -10
0 -64 -22 -120 -49 -56 -27 -127 -59 -157 -72 -110 -46 -203 -120 -395 -313
-149 -150 -242 -270 -300 -387 -15 -30 -33 -66 -41 -81 -8 -14 -14 -35 -14
-45 0 -11 -7 -28 -15 -39 -8 -10 -15 -29 -15 -41 0 -12 -6 -37 -14 -55 -37
-87 -69 -258 -48 -258 12 0 42 56 42 78 0 7 7 28 15 45 31 68 47 125 55 187 8
69 54 184 103 260 73 110 130 179 169 205 24 15 93 78 153 139 189 191 302
272 462 332 34 13 82 32 105 43 82 37 117 50 165 57 26 4 65 13 87 20 27 10
92 14 216 14 97 0 206 3 241 7 64 7 64 7 24 14 -47 9 -289 8 -425 -1z"/>
<path d="M6744 7059 c-3 -5 -2 -18 1 -29 11 -34 -31 -40 -298 -40 -248 0 -254
-1 -365 -30 -63 -16 -147 -45 -186 -64 -40 -19 -103 -44 -140 -56 -45 -16 -85
-38 -119 -69 -97 -85 -211 -196 -279 -273 -48 -53 -85 -85 -121 -102 -86 -41
-226 -199 -227 -256 0 -8 -7 -24 -15 -34 -8 -11 -15 -30 -15 -43 0 -24 -24
-125 -41 -178 -6 -16 -28 -82 -50 -145 l-40 -114 11 -86 c6 -47 15 -89 21 -94
8 -9 14 6 10 28 -4 22 19 227 28 243 5 10 21 54 35 98 42 133 76 227 105 290
16 33 41 87 56 120 44 96 61 115 101 115 53 0 50 -26 -16 -135 -26 -44 -57
-102 -68 -130 -11 -27 -36 -88 -55 -135 -80 -194 -116 -366 -101 -477 6 -52
-8 -95 -40 -122 -20 -17 -20 -51 -1 -88 8 -15 39 -79 70 -141 30 -63 62 -123
70 -134 39 -57 224 -232 274 -260 52 -29 62 -31 151 -30 104 0 135 6 258 50
54 19 95 41 118 63 57 54 167 189 208 254 21 33 50 77 65 98 14 21 31 45 36
55 6 9 24 36 41 62 17 25 45 71 63 103 53 95 102 153 168 197 34 23 77 60 95
83 92 120 406 409 462 427 115 35 199 75 251 121 11 9 51 36 90 59 l69 42 226
5 c223 4 278 -2 240 -27 -8 -5 -35 -12 -60 -15 -25 -4 -58 -10 -73 -15 -15 -5
-98 -12 -183 -16 -89 -4 -161 -12 -167 -18 -96 -90 -197 -156 -237 -156 -7 0
-26 -7 -43 -16 -18 -9 -41 -22 -52 -27 -11 -6 -30 -16 -43 -23 -13 -6 -40 -27
-60 -46 -45 -41 -124 -111 -212 -186 -97 -83 -268 -259 -287 -295 -21 -43 -99
-155 -132 -192 -26 -29 -121 -155 -154 -205 -10 -13 -17 -36 -17 -51 0 -15 -7
-32 -16 -40 -8 -7 -24 -29 -34 -48 -26 -50 -224 -243 -287 -279 -112 -66 -251
-86 -373 -53 -166 44 -209 70 -298 179 -31 38 -90 107 -130 151 -79 89 -83 97
-137 246 -20 55 -53 143 -74 195 -53 132 -79 200 -87 233 -8 34 -24 35 -24 1
0 -26 63 -221 83 -259 13 -24 75 -197 86 -240 24 -93 75 -171 185 -283 112
-114 126 -134 106 -147 -26 -16 -69 13 -189 130 -112 109 -132 134 -161 198
-18 39 -43 95 -56 122 -13 28 -39 111 -58 185 -19 74 -43 158 -52 185 -13 37
-18 91 -20 215 -2 91 -3 167 -3 169 -1 2 -10 -4 -20 -13 -19 -17 -20 -17 -31
4 -9 17 -9 33 -1 64 6 22 16 73 21 111 21 156 99 340 177 419 26 26 91 80 143
119 189 141 460 383 460 410 0 12 -67 0 -105 -20 -16 -9 -36 -19 -42 -22 -7
-3 -63 -38 -125 -77 -62 -39 -147 -91 -188 -114 -41 -24 -89 -54 -105 -66 -17
-12 -42 -27 -58 -33 -32 -12 -36 -31 -6 -31 12 0 23 -8 26 -20 3 -11 7 -20 9
-20 2 0 25 23 51 51 43 46 293 229 312 229 5 0 14 7 21 15 16 19 60 20 60 1 0
-19 -63 -75 -210 -186 -69 -52 -171 -140 -226 -195 -88 -87 -107 -112 -143
-187 -22 -48 -41 -94 -41 -102 0 -8 -6 -27 -14 -43 -33 -67 -66 -191 -66 -247
0 -78 58 -350 115 -536 9 -30 25 -93 35 -140 42 -191 44 -195 128 -310 76
-103 113 -141 212 -220 78 -62 153 -100 198 -100 10 0 33 -13 52 -29 72 -59
93 -64 245 -65 224 -2 272 20 546 249 46 39 110 87 141 109 46 30 60 46 68 76
5 20 21 54 35 74 14 20 25 40 25 43 0 4 7 14 16 24 8 9 14 28 12 41 -3 21 -5
19 -27 -17 -36 -58 -61 -108 -61 -119 0 -19 -72 -96 -91 -96 -15 0 -19 7 -19
34 0 19 4 37 9 40 5 4 28 38 50 77 74 128 151 205 179 177 8 -8 13 -6 19 8 4
10 52 86 107 168 76 112 119 165 176 215 41 36 77 69 81 73 3 4 28 25 55 45
81 61 184 159 184 176 0 30 49 57 102 57 29 0 63 7 81 17 35 19 149 107 194
149 37 34 66 45 103 37 56 -11 51 -16 -109 -118 -8 -5 -21 -16 -29 -22 -7 -7
-17 -13 -22 -13 -5 0 -34 -31 -64 -68 -56 -71 -50 -67 -246 -161 -37 -18 -89
-61 -170 -141 -63 -63 -136 -132 -161 -152 -58 -46 -95 -102 -194 -293 -43
-82 -95 -172 -115 -200 -21 -27 -50 -73 -64 -101 -33 -63 -171 -230 -229 -278
-58 -47 -239 -139 -326 -165 -104 -31 -236 -38 -352 -16 -97 17 -132 31 -234
90 -33 19 -86 48 -117 66 -69 38 -247 194 -292 256 -18 24 -43 66 -56 91 -12
26 -27 54 -32 62 -4 8 -11 22 -14 30 -11 29 -46 115 -59 145 -7 17 -16 41 -19
55 -32 129 -59 213 -83 255 -43 76 -43 26 0 -66 31 -66 36 -86 42 -194 7 -108
10 -124 34 -155 29 -39 31 -43 97 -155 26 -44 61 -98 77 -120 50 -65 180 -191
217 -210 19 -9 42 -23 50 -30 8 -7 49 -30 90 -51 41 -21 86 -46 100 -55 14
-10 56 -22 94 -29 39 -6 90 -20 115 -32 40 -18 56 -19 165 -13 157 9 277 36
394 87 40 18 218 163 272 223 14 15 62 56 108 92 45 36 82 68 82 72 0 4 21 34
46 66 25 33 61 89 81 125 20 36 69 123 109 193 41 71 74 133 74 138 0 12 41
68 89 123 30 35 32 40 17 51 -9 7 -16 18 -16 25 0 24 32 78 53 89 12 6 34 19
49 29 58 38 121 72 134 72 34 0 23 -27 -37 -84 -35 -34 -77 -71 -94 -83 -34
-24 -29 -39 10 -29 28 7 265 228 283 264 23 44 174 191 242 233 62 39 70 47
70 75 0 39 11 44 101 44 38 0 84 6 102 14 18 7 78 16 133 20 124 9 139 13 123
32 -19 23 -3 41 40 48 46 7 53 21 17 38 -18 8 -64 7 -173 -2 -81 -7 -222 -16
-313 -20 -163 -7 -221 -18 -270 -51 -90 -60 -208 -121 -269 -138 -39 -11 -104
-39 -144 -63 -40 -24 -90 -51 -112 -62 -22 -10 -47 -22 -55 -27 -70 -39 -93
-49 -101 -44 -33 21 41 91 158 149 54 26 105 52 113 57 19 11 100 50 162 79
27 12 50 25 53 30 6 10 108 78 152 102 23 13 75 20 195 28 247 16 469 36 517
46 18 4 21 8 12 17 -15 15 -202 14 -296 -3 -38 -6 -155 -15 -260 -20 -104 -5
-206 -13 -225 -19 -19 -6 -55 -11 -80 -11 -31 0 -62 -9 -100 -30 -30 -17 -141
-73 -246 -124 -190 -93 -192 -95 -291 -193 -55 -54 -115 -123 -135 -153 -19
-30 -59 -80 -87 -110 -46 -49 -72 -89 -144 -220 -101 -185 -220 -373 -269
-426 -32 -34 -58 -65 -58 -69 0 -24 -59 -79 -113 -107 -59 -30 -67 -31 -172
-29 l-109 1 -38 37 c-21 20 -40 46 -44 57 -3 12 -12 35 -19 51 -31 66 -76 194
-90 255 -22 97 -20 223 6 290 11 30 25 69 30 85 6 17 17 42 25 57 8 14 14 33
14 42 0 44 85 206 173 330 108 151 169 219 325 360 73 67 150 146 171 176 37
55 62 72 151 105 25 10 56 22 70 28 l25 11 -30 4 c-69 7 -386 -117 -511 -200
-67 -45 -219 -212 -265 -290 -23 -40 -68 -111 -99 -158 -136 -203 -222 -436
-248 -675 -6 -57 -4 -118 6 -210 14 -121 17 -132 47 -170 17 -22 48 -65 68
-95 37 -58 112 -121 181 -154 35 -17 62 -20 183 -19 164 0 165 1 253 93 88 93
96 105 265 400 143 250 205 339 287 414 35 32 81 84 103 116 139 201 239 285
465 390 52 24 101 49 109 54 7 6 27 16 45 22 17 6 38 14 46 18 22 9 42 -8 34
-28 -11 -28 -116 -93 -246 -152 -68 -31 -130 -62 -139 -70 -8 -8 -19 -14 -24
-14 -21 0 -142 -117 -161 -156 -27 -55 -92 -142 -171 -226 -50 -53 -63 -74
-63 -99 0 -22 -10 -41 -37 -68 -53 -53 -73 -90 -73 -139 0 -59 -23 -101 -61
-109 -17 -3 -43 -19 -59 -34 -29 -30 -38 -44 -98 -164 -27 -52 -64 -99 -146
-183 -61 -63 -124 -121 -141 -130 -24 -13 -62 -16 -180 -17 -147 0 -151 1
-210 30 -76 38 -229 187 -277 270 -62 109 -78 157 -78 238 0 88 17 278 29 327
5 19 19 78 31 130 23 99 112 298 192 428 22 36 44 76 49 90 18 46 136 206 205
277 103 106 298 230 449 286 50 18 108 44 130 58 39 25 45 26 330 37 224 8
303 15 349 29 49 14 81 16 180 11 134 -6 225 -18 271 -34 55 -19 119 -33 230
-48 61 -8 140 -19 178 -24 37 -6 86 -10 108 -10 22 0 49 -5 60 -11 11 -5 28
-9 37 -7 26 6 -110 43 -223 62 -133 22 -245 49 -330 79 -73 26 -223 47 -335
47 -36 0 -91 6 -123 14 -32 7 -60 10 -63 5z m-875 -388 c23 -15 3 -44 -78
-114 -114 -97 -293 -302 -379 -436 -54 -82 -169 -319 -194 -396 -15 -49 -37
-215 -38 -283 0 -63 18 -142 46 -195 7 -16 14 -33 14 -39 0 -6 16 -51 36 -101
19 -49 34 -99 32 -111 -8 -53 -76 -12 -113 68 -13 28 -34 76 -48 106 -52 113
-60 163 -53 301 7 120 35 269 66 344 46 112 149 307 212 400 40 61 86 131 100
156 30 51 163 186 219 222 19 12 43 28 54 35 24 15 98 52 105 52 3 0 11 -4 19
-9z m901 -728 c0 -8 -79 -93 -175 -189 -152 -153 -178 -175 -202 -172 -15 2
-29 10 -31 18 -1 9 52 75 119 148 90 98 140 143 193 175 70 43 96 49 96 20z
m-12 -501 c2 -13 -9 -38 -26 -60 -29 -37 -112 -175 -169 -282 -41 -75 -118
-194 -137 -209 -22 -18 -36 -5 -36 33 0 25 12 48 44 87 24 30 60 91 79 137 33
77 124 229 165 278 21 25 53 44 67 40 6 -1 11 -12 13 -24z"/>
<path d="M7230 6817 c-3 -3 -81 -11 -175 -18 l-170 -14 105 -6 c58 -4 175 -7
260 -8 170 -2 329 -19 460 -50 86 -20 224 -30 238 -17 9 9 -22 33 -65 52 -34
15 -156 29 -383 44 -74 5 -164 12 -200 15 -36 4 -67 5 -70 2z"/>
<path d="M6645 6789 c-219 -9 -332 -28 -427 -73 -119 -56 -178 -95 -270 -178
-46 -43 -121 -105 -165 -138 -154 -114 -410 -478 -434 -615 -3 -22 -16 -84
-28 -137 -27 -119 -17 -157 18 -76 13 29 30 68 38 85 9 18 36 48 62 67 27 20
56 54 71 82 14 26 36 66 50 89 39 62 47 76 81 135 18 30 51 82 73 115 44 64
59 88 77 121 13 26 53 46 74 38 31 -12 15 -56 -49 -138 -61 -78 -106 -153
-106 -176 0 -6 -36 -72 -80 -146 -81 -135 -130 -234 -130 -260 0 -20 19 -17
27 4 7 19 123 219 156 269 23 35 51 43 61 18 7 -19 1 -34 -53 -130 -71 -124
-84 -152 -78 -167 3 -8 9 -1 16 17 7 16 15 32 19 35 4 3 13 16 20 30 13 26 21
39 63 105 13 22 33 60 43 85 30 75 59 129 86 157 14 15 39 44 55 64 122 151
155 186 228 241 90 70 88 68 184 119 37 19 97 51 133 70 36 19 92 45 125 58
33 13 78 32 100 41 102 44 174 69 220 75 28 3 57 11 65 16 16 11 -83 7 -265
-12 -55 -6 -122 -12 -150 -15 -51 -5 -89 -14 -235 -59 -79 -25 -103 -35 -188
-80 -19 -9 -76 -57 -128 -106 -88 -83 -98 -89 -137 -89 -35 0 -46 -5 -67 -31
-14 -17 -42 -51 -63 -76 -60 -72 -151 -194 -183 -246 -16 -27 -39 -65 -51 -85
-12 -21 -22 -45 -23 -54 0 -10 -13 -32 -29 -50 -27 -30 -31 -32 -45 -18 -13
12 -15 27 -10 64 6 38 19 64 68 127 114 147 183 244 216 302 38 68 52 79 155
132 43 22 104 63 134 90 96 87 187 155 238 176 26 11 62 27 80 35 17 8 40 14
51 14 12 0 33 5 48 10 14 6 70 15 123 20 53 5 123 14 156 20 33 6 92 14 130
18 111 12 32 18 -150 11z"/>
<path d="M7096 6705 c9 -6 14 -22 12 -36 -2 -19 -11 -26 -43 -33 -120 -26
-240 -62 -321 -97 -50 -21 -101 -39 -113 -39 -11 0 -21 -4 -21 -10 0 -5 6 -10
13 -10 19 0 36 -20 30 -37 -10 -25 -61 -43 -124 -43 -46 0 -71 -6 -98 -22 -39
-23 -129 -91 -173 -130 -26 -24 -57 -41 -128 -71 -79 -33 -227 -205 -274 -320
-12 -29 -35 -72 -50 -97 -16 -25 -44 -68 -62 -96 -18 -28 -50 -87 -72 -130
-22 -44 -58 -104 -81 -134 -22 -30 -41 -58 -41 -62 0 -19 20 -15 42 10 20 21
177 247 220 316 4 6 39 76 78 156 40 80 78 152 86 161 8 8 14 20 14 26 0 17
121 134 133 130 25 -8 18 -46 -16 -84 -18 -21 -51 -64 -71 -96 -21 -31 -42
-60 -47 -63 -18 -11 -10 -44 11 -44 25 0 90 82 161 202 73 123 233 267 299
268 8 0 24 7 34 15 11 8 30 15 43 15 42 0 97 30 149 81 43 42 71 58 195 108
79 32 158 61 174 64 17 4 138 9 270 12 219 5 247 4 315 -14 255 -68 230 -65
314 -46 42 9 79 21 82 27 15 24 -19 32 -119 30 -93 -3 -305 20 -329 34 -12 8
-162 31 -281 44 -48 5 -104 14 -125 19 -20 5 -51 9 -69 8 -27 0 -30 -2 -17
-12z"/>
<path d="M7118 6546 c-15 -8 -42 -17 -60 -21 -37 -8 -223 -104 -338 -174 -75
-46 -143 -74 -212 -86 -21 -4 -42 -13 -49 -21 -6 -8 -17 -14 -25 -14 -14 0
-124 -104 -167 -159 -31 -39 -34 -56 -12 -65 21 -8 19 -43 -7 -83 -20 -33 -23
-35 -64 -29 -28 3 -44 1 -48 -7 -3 -7 -14 -24 -24 -39 -35 -53 -157 -264 -179
-308 -12 -25 -40 -81 -61 -125 -41 -83 -136 -217 -194 -272 -36 -34 -110 -63
-162 -63 -36 0 -102 42 -130 82 -9 13 -26 53 -37 89 l-20 65 26 73 c15 40 25
74 23 75 -2 1 -17 6 -35 13 -42 15 -45 6 -33 -120 15 -159 26 -191 88 -252 43
-44 63 -56 107 -66 84 -19 128 -2 208 79 92 92 83 80 229 339 49 88 113 190
152 243 90 123 239 290 300 336 36 27 66 55 66 62 0 18 -7 15 -56 -20 -32 -23
-47 -29 -55 -21 -22 22 1 63 64 113 66 52 108 64 126 33 8 -15 14 -13 49 19
58 53 303 188 340 188 11 0 95 35 132 54 51 27 192 41 398 40 225 -1 255 9
111 38 -110 22 -411 25 -451 4z"/>
<path d="M3570 6493 c0 -15 30 -38 85 -64 127 -61 240 -162 284 -253 34 -68
10 -124 -33 -80 -22 21 -67 90 -91 138 -19 36 -121 126 -144 126 -5 0 -16 6
-23 13 -19 18 -188 117 -200 117 -24 0 5 -29 89 -90 133 -96 188 -145 240
-214 25 -33 65 -81 89 -106 24 -25 62 -81 85 -125 22 -44 45 -85 49 -90 5 -6
18 -53 30 -105 22 -97 62 -195 68 -165 2 9 -1 21 -6 28 -5 7 -12 32 -16 57 -4
24 -11 49 -17 56 -5 7 -12 36 -16 65 -3 30 -10 63 -16 74 -13 25 -34 124 -51
235 -15 107 -28 131 -113 211 -95 89 -293 205 -293 172z"/>
<path d="M3350 6244 c0 -9 12 -30 26 -47 14 -17 36 -51 48 -76 38 -79 78 -144
130 -211 65 -84 178 -210 189 -210 12 0 -38 85 -82 140 -20 25 -39 50 -43 55
-4 6 -30 37 -58 70 -40 48 -50 67 -50 97 0 20 5 40 10 43 22 14 5 43 -57 98
-66 57 -113 75 -113 41z"/>
<path d="M8105 5868 c-44 -16 -95 -33 -114 -38 -18 -5 -38 -13 -44 -19 -6 -6
-18 -11 -27 -11 -22 0 -186 -81 -226 -111 -83 -64 -328 -381 -396 -514 -25
-49 -53 -103 -61 -119 -29 -54 -167 -214 -275 -318 -59 -57 -120 -121 -137
-143 -16 -22 -35 -46 -42 -53 -20 -21 -16 -30 15 -34 42 -5 39 -35 -13 -105
-78 -105 -337 -303 -482 -369 -61 -28 -79 -44 -49 -44 8 0 42 14 77 31 66 33
94 31 94 -7 0 -27 -41 -46 -273 -124 l-213 -71 -251 -16 c-273 -17 -301 -16
-463 33 -49 14 -129 27 -205 33 -135 10 -145 13 -235 66 -33 19 -67 38 -75 41
-8 3 -27 12 -42 20 -14 8 -32 14 -40 14 -30 1 -212 102 -299 168 -194 145
-316 255 -397 357 -44 55 -112 131 -151 170 -39 38 -71 73 -71 77 0 4 -18 34
-41 65 -23 32 -48 70 -57 85 -10 15 -59 55 -109 89 -93 61 -115 84 -145 149
-8 19 -22 51 -31 70 -9 19 -23 52 -33 73 -17 37 -38 56 -51 44 -10 -10 18 -95
69 -212 26 -60 48 -122 48 -136 0 -57 45 -128 156 -246 266 -283 306 -328 368
-421 68 -100 77 -122 52 -122 -19 0 -47 26 -136 130 -78 90 -279 289 -293 290
-4 0 3 -15 17 -33 26 -34 34 -81 16 -92 -20 -12 -10 -45 19 -59 29 -16 192
-141 269 -207 71 -62 360 -249 462 -300 172 -86 388 -170 495 -194 44 -9 87
-21 95 -26 95 -56 109 -58 385 -70 265 -11 337 -11 455 1 274 29 409 66 655
180 11 5 57 21 103 35 146 46 259 105 359 188 51 43 101 89 110 105 10 15 21
32 26 37 38 49 79 110 111 163 40 67 156 188 273 284 64 53 118 111 133 143 3
6 35 55 72 110 107 159 296 383 398 471 51 43 111 96 134 118 22 21 58 49 79
62 46 30 47 44 4 44 -104 0 -335 -237 -561 -574 -47 -70 -86 -130 -86 -132 0
-8 -65 -101 -88 -126 -29 -32 -72 -38 -72 -10 0 9 8 31 18 47 10 17 41 71 67
120 58 106 134 215 214 305 75 85 153 178 224 267 42 53 82 89 145 130 48 32
88 66 90 76 4 22 -25 34 -47 19 -36 -26 -149 -88 -193 -107 -84 -37 -192 -109
-248 -166 -30 -31 -84 -106 -119 -165 -73 -124 -260 -409 -288 -439 -37 -40
-220 -282 -272 -359 -114 -170 -294 -369 -393 -435 -65 -44 -92 -51 -102 -25
-5 12 21 43 91 111 54 52 117 110 141 130 67 56 152 177 174 246 19 62 38 91
103 162 72 78 258 315 309 394 28 44 82 126 120 183 38 57 90 135 115 173 59
91 126 162 176 187 22 12 65 38 95 58 30 20 66 41 80 45 14 4 30 11 35 15 6 4
42 17 80 30 149 48 191 64 206 77 8 7 21 13 27 13 18 0 25 20 12 35 -17 20
-32 18 -125 -17z m-240 -330 c-4 -13 -35 -52 -70 -88 -54 -57 -238 -289 -272
-345 -56 -91 -155 -268 -200 -356 -37 -74 -75 -130 -117 -176 -105 -115 -188
-214 -293 -349 -56 -71 -112 -139 -125 -150 -12 -12 -70 -48 -128 -80 -95 -52
-148 -76 -235 -106 -16 -5 -44 -16 -62 -24 -17 -8 -36 -14 -41 -14 -6 0 -23
-7 -39 -14 -69 -36 -218 -86 -294 -100 -46 -8 -109 -20 -139 -26 -106 -21
-276 -32 -405 -26 -126 5 -150 10 -242 52 -86 39 -116 44 -264 44 -160 0 -165
1 -307 66 -41 19 -76 34 -79 34 -4 0 -94 44 -202 97 -240 120 -267 145 -510
471 -50 67 -133 166 -185 220 -51 53 -108 115 -127 137 -19 21 -58 64 -87 95
-56 59 -71 92 -53 114 16 19 49 9 84 -23 29 -27 127 -164 127 -178 0 -11 88
-114 183 -213 45 -47 111 -123 147 -170 125 -162 247 -271 370 -327 112 -52
153 -70 175 -77 20 -7 123 -65 174 -98 55 -36 109 -56 176 -68 39 -6 90 -15
115 -20 25 -5 83 -9 130 -8 69 2 94 -2 132 -20 26 -12 53 -22 60 -22 8 0 19
-5 25 -11 34 -34 341 -43 478 -15 39 8 90 18 115 21 48 7 171 36 260 61 145
41 162 47 285 99 17 7 50 21 75 31 40 17 241 164 287 211 46 46 266 337 289
382 15 27 63 94 108 148 69 83 166 216 166 228 0 27 311 473 367 527 83 79
162 114 148 66z"/>
<path d="M3260 5800 c0 -21 114 -177 164 -225 84 -79 310 -390 475 -653 35
-56 74 -111 86 -122 20 -18 18 -11 -12 52 -19 40 -43 84 -53 98 -45 64 -134
241 -150 299 -9 35 -37 69 -153 190 -78 80 -186 197 -241 259 -93 105 -116
126 -116 102z"/>
<path d="M5928 5753 c-50 -122 -71 -159 -205 -366 -91 -141 -157 -186 -222
-153 -47 25 -52 60 -22 193 9 45 14 88 10 95 -5 8 -10 2 -14 -18 -3 -16 -10
-42 -16 -59 -46 -132 -51 -197 -19 -227 26 -24 85 -40 120 -31 31 8 89 44 111
69 34 38 133 191 181 279 28 49 63 109 79 132 35 54 49 113 25 113 -9 0 -22
-12 -28 -27z"/>
<path d="M3250 5552 c0 -4 30 -51 68 -103 37 -52 79 -113 94 -135 14 -23 46
-62 70 -87 24 -25 65 -80 92 -122 108 -169 442 -565 605 -718 55 -51 154 -127
165 -127 3 0 25 -13 49 -29 24 -17 83 -50 133 -76 49 -25 103 -54 119 -63 43
-26 153 -86 227 -124 56 -29 75 -33 173 -39 68 -4 124 -12 147 -22 38 -17 98
-23 98 -9 0 4 -20 15 -45 26 -25 10 -74 44 -110 77 -48 43 -79 62 -120 75 -31
8 -68 22 -83 30 -15 8 -32 14 -38 14 -14 0 -52 21 -261 144 -193 115 -246 152
-356 250 -44 39 -91 80 -104 90 l-26 20 13 -23 c19 -36 159 -179 207 -211 24
-17 55 -33 68 -36 13 -3 29 -12 36 -20 6 -8 15 -14 20 -14 4 0 36 -19 71 -43
71 -48 235 -147 244 -147 3 0 21 -7 38 -15 18 -9 82 -35 142 -58 85 -33 110
-47 112 -63 5 -37 -21 -48 -86 -36 -74 13 -108 27 -217 86 -93 51 -154 84
-265 143 -36 19 -105 65 -155 102 -49 37 -113 84 -142 105 -92 66 -185 176
-471 556 -43 58 -91 131 -107 163 -16 31 -34 57 -40 57 -15 0 -103 93 -160
170 -27 36 -69 88 -94 116 -25 28 -54 63 -64 78 -17 24 -47 36 -47 18z"/>
<path d="M8055 5363 c-133 -119 -166 -158 -275 -328 -93 -145 -170 -246 -270
-350 -72 -75 -154 -166 -208 -230 -40 -48 -294 -317 -407 -430 -94 -95 -122
-117 -195 -152 -171 -83 -558 -217 -763 -264 -73 -16 -154 -39 -182 -50 l-50
-20 65 6 c72 5 365 74 475 110 39 13 120 43 180 68 61 24 142 56 180 70 114
44 247 138 370 262 137 139 286 301 345 375 25 32 103 123 173 204 139 160
333 406 351 446 22 51 83 128 136 174 30 26 88 78 129 114 41 37 80 71 87 75
20 11 17 27 -3 27 -10 -1 -72 -49 -138 -107z"/>
<path d="M8095 5252 c-60 -58 -115 -125 -164 -200 -115 -175 -90 -158 99 68
25 29 75 85 113 123 65 68 81 97 54 97 -7 0 -53 -39 -102 -88z"/>
<path d="M3124 5227 c-7 -20 7 -52 68 -152 66 -110 71 -121 57 -147 -11 -20
-11 -20 -36 4 -13 12 -30 37 -37 53 -14 33 -73 95 -91 95 -6 0 -20 -6 -30 -14
-18 -13 -15 -19 62 -100 122 -128 242 -284 270 -348 25 -55 48 -77 65 -60 11
11 -42 127 -104 223 -41 65 -50 87 -58 152 -8 62 -21 98 -67 192 -41 81 -63
115 -76 115 -10 0 -20 -6 -23 -13z"/>
<path d="M8120 5139 c-46 -55 -105 -129 -130 -165 -230 -325 -471 -633 -644
-820 -88 -97 -167 -185 -175 -195 -17 -25 -176 -162 -290 -252 -47 -38 -121
-96 -164 -130 -109 -86 -142 -109 -218 -149 -79 -42 -319 -122 -409 -137 -141
-23 -223 -41 -234 -49 -6 -5 -24 -14 -41 -21 -27 -10 -23 -10 30 -7 51 3 188
30 444 86 72 16 295 129 352 178 24 21 96 77 159 123 174 129 325 262 430 378
52 58 149 163 215 233 66 71 136 148 155 172 99 121 243 310 310 405 41 59
130 180 198 269 67 89 122 166 122 172 0 28 -33 1 -110 -91z"/>
<path d="M8222 5028 c-12 -18 -48 -60 -82 -93 -34 -33 -81 -89 -105 -125 -24
-36 -93 -121 -155 -190 -113 -128 -123 -141 -205 -270 -27 -41 -80 -111 -119
-155 -39 -44 -89 -100 -111 -125 -78 -88 -161 -166 -255 -240 -52 -41 -149
-129 -215 -196 -82 -83 -142 -133 -188 -160 -91 -52 -91 -52 -174 -107 -40
-26 -74 -47 -77 -47 -3 0 -25 -13 -48 -29 -24 -16 -56 -33 -71 -36 -15 -4 -30
-11 -33 -16 -9 -15 55 -10 88 7 17 9 52 22 78 30 26 8 65 26 86 41 240 164
245 166 299 174 43 6 67 17 114 53 33 26 66 52 73 59 7 7 56 46 108 87 52 40
122 97 155 125 79 67 181 145 227 173 38 24 145 139 218 236 39 52 189 189
290 265 71 54 88 81 50 81 -35 0 -72 -26 -150 -105 -41 -41 -100 -91 -130
-110 -36 -23 -103 -89 -193 -190 -131 -147 -232 -240 -546 -505 -133 -112
-166 -134 -187 -126 -40 15 5 62 286 304 200 171 217 189 404 410 127 150 143
165 201 191 46 21 72 41 94 72 31 42 43 75 19 51 -7 -7 -25 -12 -40 -12 -21 0
-28 5 -28 19 0 37 95 159 237 303 99 100 144 152 141 165 -6 31 -34 26 -56 -9z"/>
<path d="M7785 4857 c-27 -33 -67 -86 -89 -116 -21 -31 -76 -99 -121 -151 -45
-52 -88 -106 -95 -120 -7 -14 -63 -77 -125 -140 -61 -63 -124 -132 -139 -153
-64 -87 -159 -176 -319 -299 -102 -79 -185 -135 -210 -143 -23 -7 -78 -23
-122 -36 -44 -12 -87 -28 -95 -34 -54 -39 -168 -79 -385 -134 -228 -57 -292
-69 -455 -86 -306 -31 -474 -29 -647 7 -47 10 -55 9 -74 -8 -12 -11 -42 -21
-72 -24 l-52 -6 55 -11 c158 -33 564 -46 736 -24 163 22 353 53 399 66 28 8
84 24 125 35 41 12 123 37 182 56 59 19 112 34 118 34 6 0 34 15 63 33 88 55
176 92 188 80 35 -35 -57 -105 -221 -170 -125 -50 -430 -144 -491 -153 -41 -6
-87 -15 -104 -20 -16 -5 -61 -13 -100 -19 -38 -5 -155 -24 -259 -41 l-190 -32
-160 16 c-89 9 -181 19 -206 22 -25 4 -42 3 -39 0 15 -16 313 -79 369 -79 19
0 78 8 130 16 52 9 154 26 225 37 183 29 233 38 269 49 17 5 51 13 75 16 24 4
59 14 77 21 18 8 44 14 57 14 23 0 158 40 202 59 11 5 63 26 115 47 155 61
180 77 321 205 74 67 179 158 234 203 55 45 118 99 140 121 169 170 329 341
370 398 28 38 99 130 159 205 93 117 226 304 226 318 0 14 -21 -5 -65 -59z"/>
<path d="M3137 4723 c-14 -13 -5 -27 62 -97 72 -75 101 -120 101 -158 0 -36
36 -85 77 -107 33 -16 178 -123 193 -141 27 -33 256 -167 267 -157 2 2 -23 20
-54 40 -32 20 -72 50 -90 67 -18 16 -37 30 -44 30 -7 0 -51 39 -99 86 -75 75
-92 87 -126 90 -50 4 -72 31 -80 96 -7 53 -23 76 -135 196 -62 66 -62 66 -72
55z"/>
<path d="M8214 4458 c-47 -35 -122 -106 -199 -187 -193 -205 -270 -281 -375
-375 -63 -55 -155 -140 -205 -187 -55 -51 -127 -106 -181 -138 -49 -29 -96
-57 -104 -62 -8 -5 -22 -12 -30 -16 -8 -3 -44 -23 -80 -43 -36 -21 -121 -67
-190 -102 -69 -36 -152 -81 -185 -101 -33 -19 -85 -43 -115 -52 -30 -9 -71
-23 -90 -30 -111 -41 -395 -103 -530 -115 -69 -5 -156 -15 -195 -20 -313 -42
-572 -47 -715 -12 -52 13 -106 25 -120 27 l-25 5 26 -9 c14 -4 36 -14 50 -22
13 -8 40 -18 59 -24 25 -8 35 -16 35 -30 0 -19 7 -20 136 -18 75 1 181 7 235
13 55 6 153 15 219 20 66 5 176 18 245 29 69 11 145 22 170 25 42 6 94 16 250
51 36 7 85 17 110 20 68 10 158 42 230 82 221 123 434 245 475 273 58 40 153
90 170 90 27 0 16 -18 -49 -76 -75 -67 -162 -122 -576 -364 -74 -44 -162 -76
-230 -85 -25 -3 -70 -12 -100 -20 -129 -34 -393 -87 -524 -105 -78 -11 -181
-27 -231 -35 -49 -8 -126 -17 -170 -21 -44 -3 -111 -10 -150 -16 -105 -16
-673 -16 -680 0 -2 6 -12 12 -21 12 -10 0 -40 7 -68 15 -28 9 -123 31 -211 51
-88 20 -189 42 -224 50 -35 8 -110 17 -165 19 -139 7 -190 14 -271 37 -61 17
-134 32 -199 41 -25 3 -32 -19 -9 -31 10 -6 70 -17 133 -26 101 -14 219 -36
358 -67 23 -5 63 -9 88 -9 25 0 91 -9 147 -20 89 -17 175 -32 332 -59 48 -8
65 -18 65 -35 0 -17 0 -16 425 -16 198 0 387 4 420 10 33 5 112 19 175 29 63
11 144 22 180 26 36 3 99 15 140 25 41 10 104 22 140 25 36 4 110 17 165 30
55 13 123 28 150 33 89 17 239 52 274 63 32 11 126 68 266 162 70 47 171 110
234 144 77 44 218 152 247 191 72 95 188 223 236 259 29 23 62 49 73 60 11 10
52 45 90 78 257 217 396 357 486 490 37 55 28 77 -17 43z"/>
<path d="M3141 4321 c5 -14 38 -34 92 -55 36 -15 38 -18 35 -52 -3 -33 -7 -39
-43 -51 -22 -7 -44 -18 -49 -23 -13 -13 63 0 96 16 15 8 31 14 36 14 6 0 42
-25 81 -55 66 -51 91 -60 91 -34 0 13 -90 95 -101 92 -5 -2 -9 2 -9 8 0 26
-55 79 -113 107 -74 37 -122 51 -116 33z"/>
<path d="M8143 4183 c-11 -10 -42 -44 -69 -77 -56 -67 -258 -267 -389 -383
-104 -93 -133 -123 -117 -123 17 0 228 174 386 319 127 115 236 239 236 269 0
17 -25 15 -47 -5z"/>
<path d="M3607 4033 c-4 -3 -7 -19 -7 -35 0 -21 5 -28 19 -28 10 0 24 -6 30
-14 15 -18 55 -25 74 -14 9 5 18 4 22 -2 3 -5 -3 -10 -14 -10 -12 0 -21 -4
-21 -9 0 -13 26 -21 58 -17 15 2 19 1 9 -1 -30 -7 -13 -28 24 -29 26 0 33 -4
31 -17 -2 -13 5 -17 28 -17 18 0 33 -6 36 -15 4 -8 11 -15 16 -15 5 0 51 -25
101 -55 51 -30 136 -72 190 -95 54 -22 116 -52 137 -65 22 -14 42 -25 44 -25
3 0 32 -16 65 -35 32 -19 64 -35 70 -35 19 0 12 18 -9 25 -11 3 -20 15 -20 26
0 14 -7 19 -26 19 -15 0 -23 4 -19 10 9 15 80 4 181 -26 45 -13 89 -24 98 -24
29 0 17 15 -27 32 -64 25 -113 35 -212 43 -49 3 -94 10 -100 14 -5 5 -44 18
-85 31 -75 22 -228 101 -307 159 -24 17 -45 31 -49 31 -3 0 -25 16 -48 35 -24
19 -46 35 -50 35 -7 0 -66 39 -76 51 -10 11 -91 49 -104 49 -8 0 -16 7 -20 15
-6 15 -28 20 -39 8z"/>
<path d="M3964 3968 c65 -66 182 -141 236 -153 19 -4 67 -23 105 -42 71 -35
164 -68 405 -143 74 -23 146 -46 160 -51 48 -17 154 -38 163 -32 11 7 -49 42
-72 43 -8 0 -48 13 -90 29 -98 37 -211 71 -234 71 -10 0 -58 14 -107 30 -49
17 -95 30 -103 30 -8 0 -34 13 -58 30 -24 16 -80 44 -124 61 -84 33 -127 55
-237 126 -36 24 -71 43 -76 43 -5 0 9 -19 32 -42z"/>
<path d="M8084 3914 c-27 -31 -50 -60 -52 -65 -2 -5 -8 -9 -13 -9 -17 0 -72
-43 -145 -113 -39 -37 -111 -95 -160 -130 -86 -61 -291 -256 -365 -347 -23
-28 -77 -71 -148 -115 -62 -38 -140 -87 -173 -109 -34 -21 -100 -55 -147 -76
-47 -21 -115 -51 -151 -67 -77 -35 -122 -52 -171 -64 -19 -4 -49 -15 -65 -24
-16 -8 -37 -15 -46 -15 -9 0 -29 -7 -45 -14 -15 -8 -66 -25 -113 -36 -47 -12
-110 -28 -140 -36 -30 -7 -89 -20 -130 -29 -154 -32 -247 -54 -313 -74 -104
-31 -361 -65 -489 -64 l-68 0 0 -33 c0 -18 -6 -35 -12 -37 -8 -4 -7 -6 3 -6 9
-1 30 6 45 14 16 8 44 15 62 15 18 0 42 5 52 10 11 6 102 22 202 35 101 14
203 30 228 35 25 6 74 17 110 25 224 49 433 103 580 151 25 8 57 14 72 14 15
0 33 7 42 15 8 8 28 15 45 15 17 0 48 9 68 20 21 11 43 20 50 20 6 0 24 6 40
14 48 24 117 54 193 86 41 17 101 46 134 65 59 34 88 54 206 141 92 67 127 85
227 115 54 16 115 43 142 61 25 18 64 42 86 53 38 20 251 222 243 231 -3 2
-57 -37 -121 -86 -64 -50 -119 -90 -122 -90 -3 0 -31 -19 -61 -42 -150 -115
-157 -118 -188 -95 -32 23 0 75 80 130 38 25 80 57 94 70 14 12 52 43 85 67
33 24 101 83 150 130 50 47 118 108 152 135 43 34 73 68 94 108 40 75 19 76
-47 1z"/>
<path d="M3405 3930 c-9 -15 22 -60 41 -60 16 0 90 -30 136 -55 14 -8 33 -15
41 -15 13 0 197 -91 222 -109 28 -21 305 -161 305 -154 0 9 -23 23 -168 107
-35 20 -66 36 -69 36 -2 0 -30 17 -61 39 -31 21 -84 53 -117 70 -33 18 -64 36
-70 42 -5 5 -16 9 -24 9 -8 0 -22 7 -32 16 -9 8 -31 16 -47 16 -20 1 -29 5
-25 14 3 8 -10 14 -36 19 -21 3 -42 13 -45 21 -6 16 -42 19 -51 4z"/>
<path d="M3490 3696 c0 -22 52 -54 99 -62 23 -4 44 -11 47 -15 3 -5 23 -9 44
-9 21 0 45 -7 54 -15 8 -8 18 -15 22 -15 7 0 90 -37 114 -51 8 -5 22 -12 30
-15 16 -6 68 -33 160 -82 30 -16 87 -40 125 -53 88 -29 138 -62 122 -78 -17
-17 1 -28 58 -36 l50 -7 -19 21 c-10 11 -28 23 -39 27 -12 4 -41 21 -66 39
-49 34 -208 120 -356 193 -49 25 -102 51 -117 58 -14 8 -33 14 -41 14 -8 0
-20 7 -27 15 -7 8 -19 15 -27 15 -8 0 -26 9 -40 20 -21 17 -35 19 -75 14 -39
-5 -48 -4 -48 9 0 8 -10 17 -22 21 -36 9 -48 7 -48 -8z"/>
<path d="M3300 3558 c-42 -11 -99 -53 -87 -64 4 -4 24 0 44 10 74 35 158 30
283 -19 19 -7 69 -23 110 -36 41 -12 79 -26 85 -31 5 -4 21 -8 35 -8 14 0 30
-4 36 -9 11 -11 61 -30 203 -77 118 -39 140 -42 121 -19 -7 8 -17 15 -22 15
-6 0 -78 27 -161 59 -84 33 -186 69 -227 81 -111 33 -162 49 -195 64 -108 49
-147 55 -225 34z"/>
<path d="M7430 3484 c-87 -88 -266 -220 -366 -271 -45 -22 -144 -81 -220 -130
-192 -124 -254 -152 -419 -188 -33 -7 -97 -22 -142 -34 -46 -12 -124 -28 -175
-35 -120 -19 -312 -53 -363 -66 -22 -5 -58 -10 -80 -10 -22 0 -49 -6 -60 -14
-11 -7 -51 -17 -90 -21 -38 -4 -82 -13 -97 -21 -19 -10 -70 -14 -179 -15 -84
0 -223 -7 -308 -15 -288 -28 -1382 -27 -1443 0 -28 13 -23 -30 6 -49 25 -17
99 -16 256 0 44 5 62 4 55 -3 -5 -5 -19 -12 -30 -15 -59 -14 723 3 1030 23 83
5 255 14 382 19 132 6 242 15 254 21 11 6 57 15 101 20 44 4 83 12 87 18 3 5
33 12 66 16 33 4 87 13 120 21 33 8 105 23 160 35 55 11 147 31 205 44 58 13
143 32 190 41 178 35 250 60 434 153 97 49 169 93 209 128 42 36 72 55 99 59
44 8 129 76 273 220 105 105 132 135 119 135 -5 -1 -38 -30 -74 -66z"/>
<path d="M8011 3467 c-41 -61 -125 -131 -259 -217 -114 -73 -168 -99 -210
-100 -12 0 -35 -7 -50 -17 -64 -39 -107 -69 -110 -75 -2 -5 -7 -8 -12 -8 -13
0 -90 -53 -90 -62 0 -4 -9 -8 -20 -8 -11 0 -23 -6 -26 -14 -3 -8 -16 -17 -30
-20 -13 -4 -24 -13 -24 -21 0 -8 -9 -15 -19 -15 -10 0 -21 -7 -25 -15 -3 -8
-14 -15 -25 -15 -11 0 -23 -5 -26 -11 -11 -17 -189 -98 -290 -131 -73 -23
-166 -60 -180 -69 -5 -4 -28 -11 -50 -15 -22 -4 -49 -13 -60 -19 -11 -7 -50
-15 -87 -18 -37 -2 -76 -12 -89 -21 -13 -9 -37 -16 -55 -16 -17 0 -53 -7 -80
-16 -154 -48 -324 -88 -473 -109 -63 -9 -125 -21 -138 -26 -13 -5 -34 -9 -46
-9 -12 0 -51 -8 -87 -19 -36 -11 -98 -29 -138 -41 -41 -12 -72 -24 -69 -26 7
-7 202 23 224 34 10 5 50 12 88 15 39 3 84 13 100 21 17 9 53 16 80 16 56 0
248 45 382 89 48 16 117 32 153 36 36 4 77 14 92 21 15 8 43 14 62 14 19 0 58
9 86 20 28 11 62 20 75 20 13 0 26 4 29 9 3 5 45 21 93 36 49 14 97 31 108 35
11 5 50 20 86 34 110 40 296 142 382 209 45 35 90 66 100 70 9 3 17 11 17 16
0 5 12 14 28 20 15 6 45 21 67 34 22 12 60 29 85 36 25 7 77 35 115 61 39 26
99 64 135 85 68 38 244 208 237 228 -8 24 -27 16 -56 -26z"/>
<path d="M3265 3409 c-11 -16 1 -22 83 -40 102 -23 134 -33 217 -66 54 -21 86
-27 140 -27 39 0 55 -1 38 -3 -18 -2 -33 -8 -33 -12 0 -9 73 -21 126 -21 19 0
34 -4 34 -10 0 -5 17 -12 38 -15 20 -3 45 -10 55 -16 31 -17 150 -39 326 -59
52 -6 97 -13 101 -15 8 -5 289 -51 364 -60 36 -4 56 -3 52 3 -5 9 -73 21 -241
43 -44 5 -110 19 -147 30 -37 11 -102 24 -145 30 -100 12 -155 23 -223 44 -30
9 -77 23 -104 31 -28 8 -54 18 -60 24 -5 5 -26 10 -45 10 -20 0 -45 7 -55 15
-13 10 -43 15 -84 15 -43 0 -68 5 -78 15 -9 8 -29 15 -45 15 -17 0 -40 5 -52
12 -12 6 -38 15 -57 19 -19 4 -66 17 -105 28 -81 24 -92 25 -100 10z"/>
<path d="M7987 3224 c-27 -29 -55 -54 -63 -54 -8 0 -14 -3 -14 -8 0 -10 -132
-76 -230 -114 -68 -26 -101 -46 -163 -101 -76 -67 -97 -99 -40 -61 15 10 37
24 48 30 49 26 70 40 80 50 5 6 19 14 30 17 11 3 45 15 75 27 30 12 67 25 81
30 14 4 62 31 107 60 62 40 92 67 122 111 22 32 40 61 40 64 0 18 -32 -4 -73
-51z"/>
<path d="M4515 3230 c39 -10 94 -19 123 -19 39 -1 52 -5 52 -16 0 -11 12 -15
49 -15 27 0 62 -6 78 -14 59 -30 333 -80 320 -59 -4 6 -27 13 -52 16 -25 4
-78 17 -118 30 -40 13 -106 34 -147 47 -41 12 -84 27 -95 33 -11 7 -78 13
-150 14 l-130 2 70 -19z"/>
<path d="M3320 3220 c0 -16 59 -41 123 -51 34 -6 76 -14 92 -19 100 -30 243
-59 390 -80 81 -11 140 -23 320 -61 250 -53 334 -68 388 -69 32 0 78 -5 102
-11 47 -12 100 -5 90 11 -3 6 -22 10 -41 10 -19 0 -51 7 -71 15 -21 9 -66 15
-110 15 -41 0 -72 4 -69 9 9 14 -20 21 -80 21 -31 0 -64 5 -74 10 -11 6 -52
15 -92 20 -133 18 -487 78 -618 105 -41 8 -97 20 -125 25 -105 21 -131 27
-169 43 -44 19 -56 21 -56 7z"/>
<path d="M5589 3160 c-47 -15 -112 -31 -145 -35 -33 -3 -67 -11 -75 -16 -9 -6
63 -8 194 -7 114 2 207 6 207 9 0 9 -27 19 -51 19 -13 0 -19 7 -19 24 0 13 -6
26 -12 29 -7 2 -51 -8 -99 -23z"/>
<path d="M7915 2981 c-23 -21 -323 -182 -359 -192 -21 -6 -46 -14 -55 -19 -9
-5 -36 -18 -61 -29 -25 -11 -70 -44 -100 -72 -61 -57 -120 -88 -166 -89 -16 0
-39 -7 -50 -15 -10 -8 -25 -15 -33 -15 -8 0 -33 -9 -55 -19 -23 -10 -81 -37
-129 -60 -49 -23 -94 -41 -101 -41 -7 0 -21 -7 -32 -16 -18 -15 -18 -15 6 -11
56 10 140 36 162 51 22 14 123 54 252 97 70 24 150 65 167 85 6 8 20 14 31 14
15 0 18 5 13 19 -5 18 -2 19 29 14 28 -4 36 -2 36 10 0 8 -6 17 -12 20 -7 2 6
4 30 3 32 0 46 4 53 17 6 9 18 17 28 17 10 0 24 7 31 15 7 8 17 15 22 15 20 0
338 193 338 206 0 8 -36 4 -45 -5z"/>
<path d="M3443 2843 c-22 -8 -14 -32 17 -48 49 -25 167 -30 252 -11 68 16 80
16 173 1 92 -15 156 -21 460 -43 117 -8 354 4 370 19 5 5 -20 10 -65 11 -78 1
-88 1 -182 -9 -34 -3 -118 3 -210 15 -245 33 -310 37 -543 34 -120 -1 -216 0
-212 5 4 4 29 6 56 4 27 -1 52 2 56 8 4 7 -5 11 -22 12 -15 0 -53 2 -83 4 -30
1 -61 1 -67 -2z"/>
<path d="M6805 2581 c-27 -10 -79 -28 -115 -41 -36 -13 -71 -28 -78 -33 -15
-12 -54 -23 -402 -112 -304 -79 -494 -119 -655 -139 -60 -7 -128 -18 -150 -24
-42 -12 -275 -57 -485 -93 -69 -12 -137 -28 -152 -35 -15 -8 -42 -14 -60 -14
-19 0 -43 -6 -54 -14 -11 -8 -37 -18 -58 -21 -21 -4 -40 -14 -43 -21 -3 -8
-20 -14 -42 -14 -45 0 -82 -10 -76 -20 3 -4 -18 -10 -45 -14 -27 -4 -52 -10
-54 -15 -3 -5 -23 -12 -43 -16 -21 -4 -72 -18 -113 -31 -41 -14 -102 -29 -135
-34 -82 -13 -158 -35 -162 -46 -5 -16 27 -51 33 -36 7 14 74 17 74 2 0 -14 53
-13 85 2 14 6 25 17 25 24 0 14 75 40 200 69 41 10 87 24 102 31 14 8 35 14
45 14 11 0 28 7 39 15 10 8 28 15 39 15 11 0 37 9 58 20 20 11 45 20 55 20 10
0 24 6 30 12 7 7 34 18 60 24 26 7 61 16 77 22 138 47 291 77 675 132 68 10
153 22 280 41 41 6 131 29 200 51 69 21 148 43 175 48 119 22 167 34 280 72
66 21 149 47 185 57 36 11 97 31 135 46 39 14 84 31 100 36 17 5 40 15 50 24
19 14 19 14 -5 14 -14 0 -47 -8 -75 -18z"/>
<path d="M4755 2509 c-38 -4 -158 -12 -265 -18 -107 -6 -258 -15 -335 -20 -77
-6 -219 -13 -315 -16 -170 -6 -206 -13 -183 -36 8 -8 32 -8 90 1 43 7 170 14
283 15 113 2 257 10 320 18 63 9 175 19 249 22 74 3 155 10 180 16 25 5 82 13
126 18 l80 8 -80 0 c-44 0 -111 -4 -150 -8z"/>
<path d="M7790 2513 c-60 -9 -223 -115 -302 -195 -15 -16 -31 -28 -35 -28 -5
0 -16 -9 -26 -20 -9 -11 -25 -20 -35 -20 -10 0 -27 -7 -38 -15 -10 -8 -30 -15
-43 -15 -14 0 -33 -7 -43 -16 -10 -10 -41 -19 -69 -22 -30 -3 -53 -10 -56 -18
-3 -9 -21 -14 -49 -14 -36 0 -54 -8 -101 -43 -32 -24 -65 -47 -73 -50 -8 -4
-33 -18 -55 -31 -22 -14 -61 -36 -86 -49 -73 -40 -115 -64 -156 -90 -46 -28
-136 -67 -156 -67 -8 0 -20 -7 -27 -15 -7 -8 -27 -15 -44 -15 -45 0 -64 -14
-40 -29 16 -11 13 -12 -18 -7 -61 8 -111 -16 -55 -27 12 -2 -1 -5 -30 -6 -30
0 -55 -6 -60 -14 -4 -7 -28 -18 -53 -25 -25 -7 -67 -19 -95 -28 -27 -8 -75
-21 -105 -29 -73 -19 -139 -39 -173 -53 -16 -7 -33 -12 -39 -12 -5 0 -22 -6
-36 -13 -45 -23 -96 -46 -125 -57 -38 -13 -25 -30 17 -23 45 7 55 -13 11 -21
-19 -4 -35 -11 -35 -17 0 -5 -34 -9 -80 -8 -83 1 -106 -5 -80 -21 11 -7 5 -10
-22 -10 -20 0 -43 -7 -52 -15 -8 -8 -18 -15 -21 -15 -11 0 -175 -83 -172 -87
3 -3 151 41 222 66 77 27 134 43 175 50 24 5 46 14 48 20 2 6 11 11 20 11 10
1 33 14 52 30 l34 30 -27 0 c-16 0 -26 4 -23 8 3 5 19 7 36 4 23 -3 37 1 51
17 11 11 27 21 37 21 9 0 34 6 57 14 49 17 151 36 192 36 17 0 42 9 56 20 14
11 33 20 44 20 10 1 29 7 43 15 14 8 35 14 48 15 13 0 52 16 88 35 35 19 71
35 80 35 8 0 17 6 20 14 3 8 19 18 35 21 16 4 29 11 29 16 0 5 5 9 10 9 6 0
68 27 138 61 164 78 160 77 209 84 27 4 70 26 127 66 48 32 89 59 92 59 4 0
23 13 43 29 21 16 50 33 66 37 16 4 40 13 54 20 14 8 32 14 39 14 8 0 26 6 40
14 15 8 43 17 63 21 21 3 42 12 49 20 7 8 23 15 35 15 13 0 31 3 40 6 13 5 14
8 3 15 -9 6 -2 9 19 9 17 0 38 6 45 13 7 7 24 18 38 25 14 6 34 18 45 24 10 7
37 24 60 38 22 13 49 30 60 37 11 7 31 18 45 25 14 7 31 18 38 25 7 7 18 13
23 13 5 0 9 16 9 35 0 22 -5 34 -12 34 -7 -1 -24 -4 -38 -6z"/>
<path d="M4964 2420 c-28 -4 -66 -12 -85 -18 -204 -61 -571 -106 -981 -119
-115 -3 -208 -10 -208 -15 0 -4 35 -9 78 -10 42 0 82 -2 87 -3 6 -2 24 -4 40
-5 l30 -2 -35 -11 c-32 -11 -28 -12 59 -15 60 -2 111 2 145 12 28 8 139 24
246 36 107 11 206 25 220 30 14 5 52 14 85 20 33 5 98 19 145 30 47 11 119 27
160 36 41 8 88 22 105 29 l30 13 -35 0 c-19 0 -58 -4 -86 -8z"/>
<path d="M7212 2414 c-18 -8 -5 -24 21 -26 12 -1 -3 -4 -33 -7 -36 -4 -54 -10
-52 -18 1 -8 -9 -13 -24 -13 -14 0 -38 -7 -52 -15 -125 -68 -227 -102 -337
-111 -49 -4 -107 -13 -129 -20 -21 -8 -50 -14 -65 -14 -14 0 -39 -7 -55 -15
-16 -8 -46 -18 -67 -21 -21 -4 -44 -13 -50 -20 -6 -8 -21 -14 -33 -14 -31 0
-156 -42 -156 -53 0 -19 187 14 225 40 11 7 28 13 38 13 10 0 28 7 40 14 12 8
57 19 101 25 43 5 83 14 89 20 6 6 38 11 71 11 l61 0 -65 -40 c-36 -21 -71
-39 -77 -40 -7 0 -13 -7 -13 -15 0 -10 -11 -15 -35 -15 -19 0 -35 -4 -35 -10
0 -5 -13 -10 -29 -10 -15 0 -40 -9 -54 -20 -14 -11 -32 -20 -40 -20 -8 0 -17
-7 -21 -15 -3 -8 -15 -15 -26 -15 -11 0 -23 -6 -26 -14 -3 -8 -19 -18 -36 -21
-16 -4 -32 -13 -35 -21 -3 -8 -18 -14 -33 -14 -15 0 -33 -6 -39 -14 -6 -7 -29
-16 -50 -20 -22 -3 -41 -11 -43 -17 -2 -5 -24 -13 -48 -16 -25 -3 -49 -9 -55
-13 -5 -5 -28 -12 -50 -16 -63 -11 -136 -47 -188 -92 -42 -36 -54 -42 -95 -42
-26 0 -60 7 -76 15 -34 18 -101 20 -122 3 -9 -7 -25 -24 -37 -37 -12 -13 -30
-31 -39 -40 -10 -8 -18 -20 -18 -26 0 -11 -5 -14 -91 -56 -90 -44 -351 -143
-409 -154 -19 -4 -39 -11 -45 -15 -5 -4 -25 -11 -44 -15 -37 -8 -40 -10 -104
-67 -31 -28 -51 -38 -75 -38 -41 0 -92 -25 -92 -46 0 -13 6 -15 28 -9 15 3 53
12 85 18 40 8 56 15 53 24 -4 9 7 13 39 13 24 0 47 4 50 10 4 6 -7 10 -25 10
-19 0 -29 4 -25 10 4 6 25 8 54 4 37 -5 58 -1 94 15 25 12 49 21 52 21 3 0 43
24 88 53 82 54 168 97 192 97 15 0 159 60 217 91 20 10 46 19 58 19 11 0 23 7
26 15 4 8 14 15 24 15 25 0 50 10 50 21 0 15 -57 10 -73 -6 -19 -18 -63 -29
-71 -17 -3 5 15 26 39 47 35 28 51 36 70 31 14 -4 25 -14 25 -22 0 -14 12 -16
78 -12 63 3 85 9 119 31 24 15 50 27 59 27 9 0 28 6 42 14 15 7 72 28 127 46
116 37 258 96 297 122 14 10 30 18 36 18 5 0 15 7 22 15 7 8 23 15 36 15 13 0
29 9 36 20 9 13 24 20 45 20 33 0 45 14 21 23 -7 3 6 6 28 6 24 1 47 7 54 16
7 8 18 15 24 15 6 0 40 19 75 43 102 68 111 73 216 125 112 56 244 111 305
128 14 3 32 12 40 19 8 7 27 15 43 19 36 8 35 26 -2 26 -16 0 -41 2 -57 5 -16
2 -35 2 -42 -1z"/>
<path d="M6675 2389 c-16 -6 -70 -21 -120 -35 -49 -14 -110 -31 -135 -38 -25
-7 -70 -21 -100 -29 -30 -9 -115 -37 -188 -61 -133 -45 -454 -134 -567 -157
-33 -7 -91 -15 -130 -18 -41 -4 -65 -9 -57 -14 6 -5 12 -22 12 -38 0 -23 -6
-32 -27 -41 -16 -7 -35 -17 -43 -23 -17 -13 -103 -44 -195 -70 -94 -26 -247
-76 -282 -91 -17 -8 -35 -14 -40 -14 -16 0 -198 -73 -213 -85 -8 -7 -25 -16
-37 -19 -13 -4 -23 -14 -23 -22 0 -8 -10 -14 -24 -14 -14 0 -28 -4 -31 -10 -3
-5 1 -10 9 -10 9 0 16 -3 16 -7 0 -5 -17 -8 -37 -8 -25 0 -37 -4 -35 -12 1 -7
-6 -13 -15 -13 -29 0 -248 -117 -251 -133 -2 -11 26 -4 110 30 62 25 137 52
166 61 28 8 52 19 52 24 0 4 5 8 11 8 6 0 32 21 58 48 25 26 60 57 76 68 37
26 220 89 390 134 169 45 192 52 270 82 68 27 98 44 160 91 5 4 22 18 38 32
31 27 89 47 210 70 190 36 307 69 477 134 41 16 109 39 150 51 133 38 395 123
405 132 12 11 -22 9 -60 -3z"/>
<path d="M7825 2325 c-16 -14 -43 -32 -60 -40 -16 -8 -57 -31 -90 -49 -33 -19
-85 -47 -115 -63 -30 -15 -57 -30 -60 -33 -3 -3 -16 -11 -30 -18 -14 -7 -38
-21 -55 -32 -16 -11 -40 -25 -53 -32 -33 -17 -22 -33 26 -36 42 -3 52 4 31 25
-7 7 -3 9 15 6 14 -3 33 -2 42 1 13 5 14 9 4 21 -11 13 -7 15 24 15 25 0 36 4
36 15 0 10 10 15 30 15 17 0 30 5 30 10 0 6 10 14 23 19 12 5 52 28 87 52 36
24 78 51 93 59 40 20 79 58 75 72 -7 20 -22 18 -53 -7z"/>
<path d="M4674 2221 c-45 -3 -88 -12 -96 -19 -8 -6 -35 -16 -59 -21 -47 -11
-83 -20 -220 -57 -48 -13 -131 -28 -186 -33 -55 -6 -113 -15 -127 -21 -15 -5
-71 -10 -124 -11 -64 -1 -108 -6 -130 -16 -52 -24 -26 -38 44 -24 83 16 112
14 124 -9 13 -24 76 -30 67 -6 -4 11 6 15 41 19 26 2 61 9 77 15 17 6 55 16
85 22 30 7 84 20 120 30 36 10 110 28 165 40 55 11 114 26 130 32 32 11 137
35 198 45 21 3 40 10 43 14 5 9 -19 9 -152 0z"/>
<path d="M7265 2010 c-3 -5 9 -14 27 -19 29 -9 26 -10 -22 -6 -30 3 -62 1 -70
-4 -16 -11 -11 -14 35 -24 11 -3 -13 -5 -52 -6 -74 -1 -100 -16 -40 -24 17 -2
4 -5 -31 -5 -45 -2 -64 -6 -68 -17 -4 -8 -17 -15 -31 -15 -14 0 -39 -7 -56
-16 -18 -9 -39 -20 -47 -24 -77 -36 -314 -163 -355 -190 -16 -11 -41 -25 -55
-31 -14 -6 -32 -16 -40 -24 -8 -7 -23 -15 -33 -16 -26 -6 -21 -23 10 -31 30
-8 73 -1 73 12 0 5 -8 11 -17 13 -10 3 1 5 24 6 42 1 64 15 41 24 -7 3 1 6 17
6 29 1 74 21 48 21 -7 0 -13 5 -13 10 0 6 16 10 36 10 28 0 35 3 30 15 -4 12
3 15 30 15 22 0 37 6 40 15 4 8 14 15 24 15 10 0 25 7 34 15 8 8 19 15 25 15
5 0 40 16 78 35 37 19 73 35 80 35 6 0 24 6 40 14 54 27 104 46 119 46 9 0 28
7 42 15 15 8 38 19 52 25 14 6 39 19 55 30 17 11 43 27 60 36 28 16 28 18 10
25 -29 11 -93 11 -100 -1z"/>
<path d="M7685 1988 c-38 -16 -97 -43 -130 -59 -33 -15 -71 -33 -85 -39 -14
-5 -33 -14 -42 -20 -10 -5 -26 -14 -35 -18 -28 -13 -94 -105 -83 -116 8 -8 19
2 78 70 19 23 28 26 60 21 20 -4 44 -2 52 3 12 8 9 10 -12 10 -16 0 -28 4 -28
8 0 4 47 8 105 9 86 0 109 4 125 18 11 10 20 22 20 27 0 5 14 29 30 53 29 43
37 66 23 64 -5 0 -39 -14 -78 -31z"/>
<path d="M5820 1940 c-30 -10 -82 -26 -115 -35 -102 -27 -199 -58 -225 -72
-14 -7 -31 -13 -38 -13 -6 0 -29 -9 -49 -20 -21 -11 -45 -20 -55 -20 -9 0 -18
-5 -20 -11 -2 -5 -19 -14 -38 -19 -47 -11 -99 -30 -132 -46 -14 -8 -34 -14
-45 -14 -10 0 -27 -7 -37 -15 -11 -8 -29 -15 -40 -15 -12 0 -30 -7 -40 -15
-11 -8 -29 -15 -40 -15 -12 0 -34 -7 -50 -15 -15 -8 -36 -15 -45 -15 -9 -1
-34 -9 -56 -20 -22 -11 -45 -19 -51 -20 -15 0 -116 -75 -115 -86 1 -13 121
-17 121 -3 0 8 -11 10 -35 6 -26 -4 -35 -2 -35 9 0 8 9 14 20 14 11 0 23 7 26
15 4 10 19 15 48 14 l41 -1 -35 -16 -35 -16 30 -4 c18 -2 33 2 40 11 6 9 24
19 41 23 16 4 35 13 42 21 7 7 22 13 31 13 10 0 24 7 31 15 7 8 24 15 39 15
14 0 35 7 45 15 11 8 31 15 45 15 44 0 151 45 236 100 27 17 81 44 170 85 53
25 167 55 206 55 21 0 50 6 66 14 74 35 139 70 148 77 15 15 -36 8 -95 -11z"/>
<path d="M4485 1839 c-22 -11 -45 -27 -51 -35 -6 -8 -18 -14 -27 -14 -9 0 -22
-6 -29 -12 -30 -28 -79 -58 -167 -103 -51 -25 -91 -48 -89 -50 5 -5 225 69
235 78 3 4 28 10 54 13 27 4 54 13 60 20 6 8 20 14 30 14 10 0 20 4 24 9 3 5
34 24 70 41 36 17 65 36 65 41 0 17 -57 9 -80 -11 -13 -11 -31 -20 -40 -20
-10 0 -20 -7 -24 -15 -6 -17 -66 -21 -66 -5 0 6 7 10 15 10 9 0 18 7 21 15 4
8 14 15 24 15 28 0 51 11 44 21 -8 14 -26 11 -69 -12z"/>
<path d="M7387 1765 c-47 -45 -48 -45 -120 -45 -45 0 -80 -5 -92 -14 -11 -7
-38 -16 -59 -20 -22 -4 -67 -22 -100 -40 -34 -18 -140 -68 -236 -111 -96 -42
-182 -81 -190 -86 -8 -5 -22 -12 -30 -15 -8 -3 -33 -14 -56 -25 -23 -10 -48
-19 -56 -19 -8 0 -18 -3 -22 -7 -10 -11 69 -31 98 -26 28 6 34 18 14 26 -7 3
6 6 30 6 28 1 45 6 48 16 3 8 21 17 40 21 18 3 38 12 45 20 6 8 19 14 29 14
10 0 23 7 30 15 7 8 18 15 26 15 11 0 102 45 266 133 26 14 71 28 100 32 29 3
67 10 83 15 17 5 47 11 69 13 27 4 50 16 79 44 22 21 48 46 59 56 21 20 23 27
6 27 -7 0 -35 -21 -61 -45z"/>
<path d="M6345 1550 c-4 -7 -1 -16 6 -21 9 -6 -3 -9 -33 -9 -36 0 -48 -4 -48
-15 0 -10 -10 -15 -27 -15 -14 0 -34 -6 -42 -14 -37 -31 -112 -44 -210 -36
-52 5 -109 7 -128 5 -29 -3 -130 -47 -143 -64 -3 -3 -25 -20 -50 -36 -25 -16
-47 -32 -50 -35 -3 -3 -13 -10 -24 -15 -10 -6 -17 -15 -15 -20 2 -6 -16 -12
-40 -15 -46 -5 -66 -25 -34 -33 10 -2 2 -3 -17 -1 -72 7 -146 -18 -87 -29 12
-2 -1 -5 -29 -6 -32 0 -56 -7 -64 -16 -7 -8 -19 -15 -27 -15 -7 0 -16 -7 -19
-15 -4 -8 -13 -15 -20 -15 -8 0 -17 -7 -20 -15 -4 -8 -12 -15 -19 -15 -7 0
-19 -7 -26 -16 -7 -9 -47 -32 -89 -51 -41 -19 -87 -42 -102 -49 -14 -8 -33
-14 -40 -14 -8 0 -64 -31 -123 -70 -59 -39 -112 -70 -117 -70 -8 0 -64 -36
-78 -50 -3 -3 -23 -14 -45 -25 l-40 -19 35 -4 c43 -5 86 18 149 75 25 24 62
48 81 54 19 6 40 15 45 20 19 14 100 39 131 39 17 0 43 9 57 20 14 11 29 20
33 20 4 0 15 6 23 14 18 15 77 48 191 109 41 21 82 45 91 53 8 8 20 14 26 14
6 0 21 8 34 19 13 10 43 22 67 26 23 4 42 11 42 16 0 5 8 9 18 9 9 0 34 16 55
35 21 19 43 35 48 35 5 0 12 7 15 15 4 8 13 15 20 15 8 0 17 7 21 16 3 8 15
20 27 25 11 5 40 21 64 35 41 24 46 25 115 15 40 -6 83 -12 97 -14 24 -3 23
-5 -12 -20 -20 -9 -45 -28 -56 -42 -11 -14 -24 -25 -29 -25 -6 0 -18 -10 -29
-21 -10 -12 -28 -25 -39 -30 -11 -5 -47 -27 -80 -49 -33 -22 -84 -51 -112 -65
-29 -15 -53 -30 -53 -34 0 -3 -12 -12 -27 -19 -52 -24 -73 -37 -73 -45 0 -4
-11 -12 -25 -17 -33 -13 -33 -34 0 -28 14 3 28 2 30 -2 8 -13 -38 -20 -51 -9
-14 12 -54 3 -54 -12 0 -5 10 -10 23 -11 12 0 0 -4 -28 -7 -32 -4 -49 -10 -48
-18 2 -8 -7 -13 -22 -13 -14 0 -25 -5 -25 -10 0 -6 -12 -16 -27 -23 -16 -6
-30 -15 -33 -19 -3 -4 -41 -26 -85 -49 -44 -22 -87 -47 -95 -54 -30 -27 -68
-34 -143 -26 -46 4 -87 3 -104 -4 -36 -12 -116 -79 -106 -88 12 -13 31 -7 60
17 24 20 44 25 120 31 50 4 93 3 96 -1 8 -14 -46 -69 -68 -69 -11 0 -23 9 -27
20 -4 14 -6 8 -7 -19 -1 -22 -8 -48 -18 -58 -15 -17 -15 -18 11 -18 29 0 49
17 136 116 43 49 66 64 254 163 33 17 64 35 70 40 6 4 23 11 39 15 15 3 27 10
27 15 0 5 14 12 30 16 17 4 30 10 30 15 0 5 16 14 35 20 19 6 35 16 35 21 0 5
4 9 9 9 14 0 91 52 91 62 0 4 7 8 15 8 9 0 18 7 21 15 4 8 12 15 20 15 8 0 22
9 31 20 10 11 23 20 29 20 7 0 14 7 18 15 3 8 10 15 16 15 10 0 15 4 95 70
150 125 195 157 240 172 27 10 59 22 70 28 11 5 54 23 95 39 41 16 76 34 78
40 2 6 14 11 27 11 22 0 42 16 33 25 -12 12 -86 16 -93 5z"/>
<path d="M7301 1505 c-18 -8 -53 -15 -77 -15 -30 0 -46 -5 -50 -15 -4 -8 -13
-15 -21 -15 -12 0 -56 -20 -113 -52 -8 -4 -25 -12 -37 -17 -11 -6 -24 -15 -28
-20 -3 -6 -14 -11 -24 -11 -10 0 -24 -6 -30 -14 -6 -8 -24 -16 -39 -19 -37 -7
-211 -66 -244 -83 -14 -8 -35 -14 -46 -14 -11 0 -27 -6 -34 -13 -7 -8 -29 -17
-47 -20 -19 -4 -42 -14 -50 -21 -9 -8 -29 -16 -46 -18 -16 -1 -28 -7 -27 -13
2 -5 7 -9 11 -8 4 1 25 -2 47 -7 42 -10 104 -3 104 11 0 5 -15 9 -34 9 -19 0
-37 4 -41 9 -3 6 22 8 65 5 39 -3 78 0 88 5 14 9 11 10 -15 11 -18 0 -33 5
-33 10 0 6 20 8 53 4 40 -5 57 -3 68 8 8 8 32 18 53 22 21 4 46 11 55 16 9 5
43 17 75 26 53 16 71 27 126 77 26 23 51 28 91 15 40 -12 55 -6 114 45 6 4 43
33 84 63 73 53 74 70 2 39z"/>
<path d="M4586 1451 c-4 -5 2 -15 11 -21 16 -9 15 -10 -7 -9 -47 2 -60 -1 -60
-16 0 -10 -10 -15 -30 -15 -18 0 -33 -6 -36 -15 -4 -8 -14 -15 -23 -15 -9 0
-33 -9 -54 -20 -20 -11 -43 -20 -51 -20 -7 0 -19 -7 -26 -15 -8 -9 -29 -15
-56 -15 -75 0 -111 -28 -86 -68 7 -10 14 -8 34 8 31 24 38 25 38 5 0 -8 -8
-15 -18 -15 -38 0 -59 -54 -26 -67 12 -4 24 3 38 23 38 53 74 81 140 113 36
17 70 31 75 31 6 0 40 16 78 35 37 19 73 35 79 35 7 0 14 6 17 14 3 8 19 17
36 21 38 8 41 25 4 25 -16 0 -38 3 -49 6 -12 3 -25 1 -28 -5z"/>
<path d="M6351 1352 c-17 -12 1 -24 22 -16 9 3 24 1 34 -5 14 -8 -3 -10 -69
-11 -58 0 -88 -4 -88 -11 0 -8 15 -9 45 -5 29 5 45 4 45 -3 0 -10 -27 -16 -56
-12 -7 1 -14 -8 -17 -19 -3 -14 -13 -20 -31 -20 -15 0 -29 -7 -32 -15 -4 -8
-14 -15 -24 -15 -10 0 -23 -6 -29 -14 -7 -8 -25 -18 -41 -21 -16 -3 -34 -13
-41 -21 -6 -8 -23 -14 -38 -14 l-26 0 30 24 c17 14 55 37 85 51 30 15 64 32
75 37 11 6 31 14 45 19 20 6 17 7 -21 8 -74 2 -194 -68 -319 -185 -57 -54
-122 -104 -135 -104 -3 0 -28 -16 -55 -35 -27 -19 -52 -35 -55 -35 -9 0 -69
-44 -73 -52 -2 -5 -10 -8 -18 -8 -8 0 -22 -9 -31 -20 -10 -11 -23 -20 -30 -20
-23 0 -24 -20 -1 -30 19 -9 17 -10 -13 -5 -57 8 -100 -18 -46 -28 12 -2 3 -5
-20 -6 -41 -1 -65 -15 -41 -24 7 -2 0 -4 -16 -4 -16 0 -35 -8 -41 -17 -7 -9
-17 -16 -23 -16 -6 0 -15 -6 -19 -13 -4 -6 -27 -25 -50 -41 -24 -16 -43 -33
-43 -37 0 -5 -7 -9 -15 -9 -9 0 -18 -7 -21 -15 -4 -8 -10 -15 -15 -15 -10 0
-63 -35 -87 -57 -7 -7 -18 -13 -23 -13 -21 0 -7 -29 21 -40 28 -12 32 -10 82
31 29 24 60 52 70 61 9 9 29 25 45 35 15 10 33 21 38 26 6 4 33 23 60 40 28
18 74 50 102 70 29 20 55 37 58 37 3 0 13 8 24 19 10 10 25 21 32 24 12 5 11
7 -1 17 -13 11 -13 11 0 7 21 -6 63 11 55 23 -4 6 5 10 19 10 15 0 30 8 36 20
6 11 20 20 30 20 11 0 20 7 20 15 0 8 8 15 19 15 10 0 24 7 31 15 7 8 19 15
27 15 7 0 16 7 19 15 4 8 12 15 19 15 6 0 20 9 30 20 10 11 23 20 28 20 6 0
18 6 26 14 9 8 124 69 256 136 132 66 244 125 249 130 6 6 18 10 27 10 17 0
35 17 27 25 -10 10 -114 15 -127 7z"/>
<path d="M7416 1321 c-3 -5 -34 -26 -69 -45 -92 -54 -101 -60 -110 -73 -4 -7
-17 -13 -28 -13 -11 0 -22 -7 -25 -15 -4 -8 -13 -15 -20 -15 -8 0 -17 -6 -20
-14 -3 -8 -19 -18 -35 -21 -16 -4 -29 -13 -29 -21 0 -8 -9 -14 -20 -14 -11 0
-20 -7 -20 -15 0 -12 -13 -15 -57 -15 -32 0 -103 -7 -158 -15 -55 -8 -115 -15
-134 -15 -32 0 -160 -57 -226 -100 -16 -11 -42 -25 -57 -31 -33 -13 -37 -29
-8 -29 11 0 20 -5 20 -11 0 -6 -8 -9 -17 -6 -32 9 -38 9 -60 8 -13 0 -23 -7
-23 -16 0 -8 -7 -15 -16 -15 -15 0 -81 -35 -94 -49 -10 -12 -66 -48 -82 -54
-10 -3 -18 -11 -18 -17 0 -5 -5 -10 -10 -10 -10 0 -69 -37 -80 -51 -3 -3 -26
-18 -52 -33 -27 -15 -48 -31 -48 -35 0 -3 -9 -11 -20 -16 -17 -9 -70 -45 -335
-226 l-50 -34 60 -3 c42 -2 63 1 70 11 5 7 18 16 28 20 9 3 17 11 17 16 0 5
-8 12 -17 14 -10 2 -4 2 14 0 22 -3 38 2 51 15 10 10 26 21 35 25 9 3 17 11
17 17 0 5 6 10 13 10 7 0 45 23 85 50 40 28 75 50 78 50 3 0 48 29 100 65 52
36 97 65 100 65 5 0 66 42 74 51 4 5 65 43 119 74 17 10 38 27 72 58 10 9 26
17 34 17 21 0 19 28 -2 33 -10 2 -4 2 13 0 51 -6 89 19 47 30 -10 3 -1 5 20 6
26 1 37 6 37 16 0 8 7 15 15 15 8 0 35 7 61 16 49 17 212 37 226 28 14 -9 -41
-47 -57 -40 -8 3 -15 0 -15 -7 0 -15 -20 -31 -130 -104 -47 -31 -93 -64 -102
-74 -10 -10 -42 -34 -73 -54 -30 -20 -55 -41 -55 -45 0 -5 -9 -12 -20 -15 -11
-3 -20 -13 -20 -21 0 -8 -4 -14 -9 -14 -18 0 -80 -45 -81 -57 0 -7 -6 -13 -14
-13 -8 0 -18 -5 -22 -11 -5 -9 1 -10 20 -5 21 5 27 3 23 -6 -2 -8 -18 -12 -41
-10 -26 2 -36 -1 -36 -11 0 -8 -11 -18 -25 -21 -14 -4 -23 -11 -20 -16 3 -6
-1 -10 -9 -10 -9 0 -25 -9 -36 -20 -11 -11 -22 -20 -25 -20 -7 0 -168 -111
-185 -128 -13 -13 -11 -14 21 -9 20 3 79 31 130 62 52 31 103 62 114 68 30 18
129 81 140 89 24 19 101 85 117 100 10 10 23 18 28 18 6 0 10 6 10 14 0 7 9
16 20 19 11 3 20 10 20 17 0 7 -8 9 -20 5 -12 -4 -20 -2 -20 5 0 6 15 10 35 8
39 -2 57 9 35 22 -11 7 -9 10 12 10 15 0 30 5 33 10 3 6 1 10 -4 10 -6 0 -11
4 -11 9 0 4 11 6 24 4 17 -4 27 1 35 16 7 12 18 21 26 21 8 0 15 7 15 15 0 8
7 15 15 15 9 0 18 7 21 15 4 8 11 15 16 15 13 0 96 67 128 103 32 36 77 55
115 50 33 -5 36 -2 266 170 72 54 142 103 156 108 14 5 23 14 21 21 -6 16 -25
21 -32 9z"/>
<path d="M5028 1231 c-48 -21 -107 -53 -133 -70 -25 -17 -48 -31 -51 -31 -2 0
-27 -16 -54 -35 -27 -19 -58 -35 -68 -35 -10 0 -27 -7 -38 -15 -10 -8 -29 -15
-41 -15 -12 0 -28 -6 -35 -14 -8 -7 -23 -16 -35 -20 -12 -4 -27 -13 -33 -21
-7 -8 -21 -15 -31 -15 -11 0 -19 -7 -19 -15 0 -10 -10 -15 -30 -15 -35 0 -38
-10 -11 -34 25 -22 47 -15 91 28 19 18 45 36 58 40 12 4 22 12 22 17 0 5 22 9
49 9 49 0 87 21 59 34 -9 4 -9 5 2 5 41 -3 60 2 60 16 0 10 10 15 30 15 18 0
33 6 36 15 4 10 20 15 48 15 36 0 47 6 83 45 24 24 55 51 71 59 27 14 68 63
60 71 -2 2 -43 -13 -90 -34z"/>
<path d="M6308 1123 c-10 -2 -18 -9 -18 -14 0 -5 -12 -14 -26 -19 -14 -6 -22
-14 -19 -20 3 -5 -1 -10 -10 -10 -14 0 -53 -24 -92 -55 -6 -5 -53 -39 -103
-75 -50 -36 -121 -87 -159 -115 -38 -27 -79 -57 -91 -65 -33 -23 -124 -88
-136 -98 -6 -5 -20 -13 -32 -16 -12 -4 -22 -12 -22 -17 0 -5 -12 -14 -26 -19
-17 -7 -24 -16 -21 -25 4 -9 1 -12 -9 -8 -8 3 -21 0 -30 -7 -12 -11 -12 -15
-2 -22 10 -7 10 -8 -2 -7 -34 3 -50 -2 -50 -16 0 -8 -9 -15 -20 -15 -13 0 -20
-7 -20 -19 0 -10 -6 -19 -12 -18 -33 1 -48 -4 -48 -17 0 -7 -12 -16 -27 -19
-34 -8 -60 -24 -51 -32 3 -3 23 -7 44 -7 30 -2 51 7 94 37 30 21 69 48 85 59
17 12 32 25 34 29 2 5 14 12 28 18 13 5 21 13 18 19 -3 5 3 10 14 10 25 0 38
19 20 32 -10 7 -8 8 8 3 15 -4 28 0 41 13 10 10 26 21 35 25 9 3 17 11 17 17
0 5 6 10 13 10 8 0 22 9 32 20 10 11 24 20 32 20 7 0 16 7 19 15 4 8 10 15 15
15 13 0 72 42 82 58 4 6 14 12 22 12 7 0 15 3 17 8 4 9 58 47 81 55 9 3 17 11
17 17 0 5 4 10 10 10 5 0 45 25 87 55 130 92 154 106 190 112 19 3 37 12 40
19 3 8 20 14 38 14 29 0 55 15 44 24 -7 7 -134 14 -151 9z"/>
</g>
</svg>
