<?xml version="1.0" standalone="no"?>
<!DOCTYPE svg PUBLIC "-//W3C//DTD SVG 20010904//EN"
 "http://www.w3.org/TR/2001/REC-SVG-20010904/DTD/svg10.dtd">
<svg version="1.0" xmlns="http://www.w3.org/2000/svg"
 width="1080.000000pt" height="1080.000000pt" viewBox="0 0 1080.000000 1080.000000"
 preserveAspectRatio="xMidYMid meet">
<metadata>
Created by potrace 1.16, written by Peter Selinger 2001-2019
</metadata>
<g transform="translate(0.000000,1080.000000) scale(0.100000,-0.100000)"
fill="#00008B" stroke="none">
<path d="M4999 7470 c-48 -5 -95 -13 -105 -18 -11 -5 -37 -13 -59 -17 -22 -3
-62 -18 -88 -31 -27 -13 -54 -24 -60 -24 -20 0 -211 -112 -287 -169 -101 -75
-249 -219 -315 -306 -72 -95 -129 -155 -147 -155 -9 0 -35 -9 -59 -20 -64 -29
-83 -25 -152 28 -61 48 -94 64 -193 96 -67 21 -114 20 -206 -3 -117 -30 -201
-83 -301 -191 -73 -79 -152 -226 -180 -335 -8 -33 -21 -82 -28 -110 -20 -84
-24 -310 -5 -381 24 -91 20 -115 -30 -222 -100 -210 -181 -431 -233 -632 -43
-165 -50 -204 -72 -374 -10 -86 -10 -117 5 -235 29 -227 89 -392 203 -564 138
-207 347 -390 625 -546 156 -88 463 -208 678 -264 192 -51 305 -77 332 -77 14
0 44 -6 69 -14 42 -13 165 -30 414 -57 146 -17 786 -17 880 -2 39 7 90 15 115
18 77 10 73 -3 71 246 -1 225 10 316 23 183 8 -85 46 -286 56 -297 4 -4 13 12
20 37 7 26 19 46 26 46 7 0 17 7 22 17 7 12 17 14 41 10 28 -6 34 -3 50 24 11
18 22 26 25 20 14 -23 82 -3 124 37 7 6 22 12 33 12 10 0 42 9 71 20 29 11 59
20 66 20 7 0 29 11 50 24 20 14 62 33 92 42 30 10 83 32 117 50 60 30 63 31
79 13 20 -22 34 -16 34 16 0 43 -134 188 -300 326 -84 69 -99 89 -49 64 139
-71 371 -273 408 -356 27 -58 26 -85 -5 -166 -36 -96 -39 -113 -21 -113 9 0
47 11 85 25 38 14 76 25 83 25 8 0 26 6 41 14 15 8 41 17 59 21 18 4 64 20
103 35 39 15 105 38 146 52 100 34 416 145 460 163 19 7 60 21 90 31 30 9 71
23 90 30 19 7 80 27 135 44 113 35 273 103 324 137 19 13 39 23 45 22 6 0 56
-54 111 -120 103 -123 186 -209 167 -174 -42 77 -109 166 -179 238 -68 70 -80
87 -70 99 26 33 43 27 87 -28 38 -47 121 -126 185 -174 18 -15 19 -14 3 8 -23
34 -115 139 -170 195 -50 50 -56 65 -36 85 18 18 42 14 67 -12 12 -13 46 -36
77 -51 30 -15 57 -32 60 -36 6 -11 24 -12 24 -1 0 8 -133 112 -164 127 -31 15
-34 63 -4 74 13 5 28 5 33 1 17 -12 113 -40 137 -39 31 1 -87 58 -121 59 -27
0 -50 25 -51 56 0 30 23 46 54 38 32 -8 118 14 109 28 -3 7 -31 8 -71 4 -80
-8 -116 9 -106 50 5 19 1 29 -15 40 -33 24 -27 51 13 58 19 4 39 13 46 21 7 8
21 15 31 15 10 0 20 4 23 8 3 5 44 28 91 52 47 24 88 47 91 52 8 13 -38 9 -55
-5 -9 -8 -41 -24 -71 -36 -29 -13 -71 -34 -92 -47 -21 -13 -40 -24 -44 -24 -3
0 -22 -8 -41 -17 -34 -16 -38 -16 -67 2 -77 45 -135 73 -186 90 -263 83 -334
133 -835 589 -121 110 -277 259 -348 331 -70 71 -152 155 -182 186 -30 30 -55
61 -55 67 0 7 -18 24 -40 38 -22 15 -40 33 -40 41 0 9 -25 38 -55 66 -30 27
-55 56 -55 64 0 7 -16 23 -35 34 -19 12 -42 37 -52 59 -11 23 -29 44 -46 51
-16 7 -34 26 -42 45 -7 18 -26 39 -42 47 -41 22 -82 69 -85 97 -3 22 1 25 35
28 20 2 37 7 37 13 0 12 -34 11 -64 -2 -43 -20 -119 25 -98 58 4 6 33 16 65
23 32 8 61 18 64 23 8 13 -127 0 -143 -14 -26 -21 -123 54 -111 85 5 12 16 14
51 10 31 -5 54 -2 76 10 18 8 47 18 66 22 19 3 34 11 34 16 0 6 -15 8 -37 4
-90 -15 -190 -28 -217 -27 -51 1 -79 46 -33 55 12 3 59 12 105 20 74 14 178
54 144 56 -31 1 -258 -42 -266 -51 -15 -13 -52 -11 -65 5 -15 17 -24 98 -13
114 4 6 44 23 88 36 123 38 174 58 174 67 0 5 -8 9 -17 9 -28 0 -144 -27 -193
-44 -42 -14 -46 -14 -57 1 -7 9 -13 26 -13 38 0 11 -9 37 -20 58 -11 20 -20
47 -20 60 0 28 -52 163 -93 242 -38 72 -141 207 -193 254 -83 72 -237 161
-316 182 -140 36 -251 44 -419 29z m361 -107 c157 -54 252 -118 347 -232 74
-90 143 -233 143 -296 0 -18 7 -38 15 -45 8 -7 15 -26 15 -42 0 -16 7 -45 15
-65 12 -28 15 -87 15 -295 0 -221 -2 -259 -15 -264 -12 -5 -15 -25 -15 -93 0
-47 -5 -93 -11 -101 -10 -15 -6 114 11 315 4 50 4 95 1 100 -3 6 -6 48 -7 95
-1 94 -22 269 -33 285 -5 6 -14 31 -21 58 -7 26 -17 50 -23 54 -6 3 -34 7 -64
7 -51 1 -53 0 -53 -25 0 -15 7 -29 15 -33 8 -3 15 -16 15 -29 0 -14 7 -30 15
-37 8 -7 15 -22 15 -34 0 -12 7 -31 15 -42 8 -10 15 -29 15 -40 0 -12 6 -37
14 -55 35 -86 43 -400 15 -558 -15 -81 -64 -251 -83 -286 -9 -16 -16 -37 -16
-45 0 -8 -27 -62 -60 -119 -33 -57 -60 -107 -60 -110 0 -4 -32 -52 -71 -106
-133 -188 -364 -392 -544 -482 -294 -147 -614 -139 -852 23 -206 139 -305 328
-321 613 -5 73 -11 116 -19 118 -6 2 -39 -21 -72 -52 -77 -73 -153 -130 -216
-162 -45 -23 -57 -25 -127 -20 -97 8 -173 44 -243 116 -128 132 -215 352 -215
545 0 297 128 567 333 704 80 54 202 76 261 48 19 -9 42 -16 53 -16 35 0 118
-58 185 -129 76 -80 89 -84 188 -55 30 9 71 17 89 19 34 3 61 26 61 52 0 7 5
13 10 13 6 0 15 11 20 25 5 14 14 25 20 25 5 0 12 11 16 25 3 14 13 25 21 25
8 0 13 8 11 18 -2 11 3 17 15 16 12 -1 16 3 12 15 -7 24 100 162 187 241 209
187 451 309 653 329 110 11 271 3 325 -16z m832 -1270 c255 -257 315 -323 292
-323 -3 0 -89 83 -190 185 -119 120 -186 180 -191 173 -4 -7 -6 -29 -4 -50 1
-22 -2 -38 -8 -38 -7 0 -11 23 -11 58 0 31 -3 67 -6 80 -4 12 -2 22 2 22 5 0
57 -48 116 -107z m-1424 -1638 c3 -95 -6 -166 -39 -305 -45 -189 -119 -397
-137 -388 -58 31 -187 89 -206 94 -36 9 -33 34 12 87 80 98 247 397 303 545
19 50 28 62 44 60 18 -3 20 -12 23 -93z m-571 -41 c12 -31 -89 -441 -113 -460
-11 -9 -26 -8 -61 2 -25 8 -72 14 -105 14 -73 0 -74 11 -9 78 46 47 241 330
241 349 0 11 21 33 32 33 5 0 11 -7 15 -16z"/>
<path d="M3988 6573 c-10 -2 -18 -11 -18 -19 0 -9 -11 -14 -29 -14 -16 0 -41
-4 -55 -10 -16 -6 -27 -6 -31 0 -4 6 -10 10 -16 10 -14 0 -11 -41 4 -59 18
-21 47 -96 47 -121 0 -31 16 -24 29 13 16 43 48 103 82 155 16 24 29 45 29 48
0 5 -17 4 -42 -3z"/>
<path d="M3392 6090 c-54 -40 -78 -83 -86 -150 -6 -47 -3 -62 17 -100 14 -25
43 -60 67 -77 38 -30 48 -33 113 -33 61 0 78 4 109 25 51 35 91 105 89 158 -3
133 -76 207 -204 207 -55 0 -69 -4 -105 -30z m205 -64 c33 -30 37 -39 41 -93
4 -53 1 -62 -23 -91 -58 -69 -127 -80 -193 -32 -75 54 -81 147 -15 214 34 33
41 36 95 36 52 0 62 -3 95 -34z"/>
<path d="M4550 6031 c-90 -30 -159 -91 -205 -181 -34 -66 -38 -186 -10 -252
30 -68 88 -132 153 -166 53 -28 69 -32 138 -32 98 0 162 27 233 98 60 60 91
137 91 226 0 113 -76 233 -181 286 -44 23 -176 35 -219 21z m146 -81 c77 -26
117 -60 148 -122 65 -130 4 -288 -131 -338 -66 -25 -104 -25 -168 -3 -90 32
-165 136 -165 228 0 110 94 225 199 246 55 10 58 10 117 -11z"/>
<path d="M4595 5803 c-62 -32 -78 -73 -48 -123 34 -58 107 -67 147 -19 41 48
30 110 -24 142 -34 20 -37 20 -75 0z"/>
</g>
</svg>
