<?xml version="1.0" standalone="no"?>
<!DOCTYPE svg PUBLIC "-//W3C//DTD SVG 20010904//EN"
 "http://www.w3.org/TR/2001/REC-SVG-20010904/DTD/svg10.dtd">
<svg version="1.0" xmlns="http://www.w3.org/2000/svg"
 width="1080.000000pt" height="1080.000000pt" viewBox="0 0 1080.000000 1080.000000"
 preserveAspectRatio="xMidYMid meet">

<g transform="translate(0.000000,1080.000000) scale(0.100000,-0.100000)"
fill="#0000FF" stroke="none">
<path d="M5260 6051 c-83 -16 -190 -88 -252 -169 -37 -48 -79 -63 -108 -37
-10 9 -35 20 -55 25 -118 27 -225 -112 -212 -274 4 -52 0 -70 -25 -125 -16
-35 -41 -111 -55 -168 -24 -95 -26 -111 -16 -178 18 -124 73 -211 184 -286
168 -114 480 -183 729 -161 l85 7 5 75 5 75 9 -60 c5 -33 11 -53 13 -43 2 9
16 20 31 26 15 5 65 24 112 42 46 18 90 33 97 33 24 0 13 18 -44 74 l-58 56
49 -34 c80 -56 100 -93 76 -140 -8 -14 -7 -19 2 -19 17 0 442 146 471 162 19
10 26 6 66 -38 34 -38 39 -41 21 -14 -13 19 -32 45 -43 58 -31 34 -8 26 32
-10 l34 -33 -33 42 c-34 43 -35 69 -3 41 36 -31 47 -30 13 1 l-35 32 35 -4
c34 -5 34 -5 8 6 -16 6 -28 17 -28 24 0 7 12 14 28 14 27 2 27 2 2 6 -23 5
-39 19 -40 34 0 4 14 12 30 19 17 7 33 16 36 21 6 11 -24 0 -53 -19 -19 -12
-26 -12 -50 1 -15 9 -53 27 -84 40 -83 36 -275 210 -464 420 -88 98 -92 103
-73 110 7 2 3 3 -8 1 -12 -2 -27 3 -33 10 -10 12 -8 15 11 19 17 3 15 5 -9 6
-40 1 -44 21 -5 21 15 0 34 5 42 10 10 6 2 7 -25 3 -63 -10 -69 -9 -73 8 -2
12 9 21 40 32 24 9 35 16 26 16 -9 1 -28 -3 -41 -8 -22 -9 -25 -6 -40 43 -51
161 -172 237 -327 207z m158 -40 c43 -22 83 -63 105 -106 19 -38 37 -135 26
-135 -5 0 -9 11 -9 24 0 37 -18 76 -35 76 -18 0 -19 -7 -1 -56 51 -148 8 -317
-116 -449 -98 -105 -213 -145 -316 -111 -87 29 -152 124 -152 221 l0 27 -42
-36 c-60 -51 -107 -51 -158 3 -70 73 -80 206 -24 298 57 92 142 107 209 38 21
-21 36 -30 42 -24 6 6 20 11 32 12 11 1 21 4 21 8 0 3 11 18 25 33 13 14 25
29 25 31 0 17 39 60 81 91 99 72 211 94 287 55z m129 -348 c-3 -10 -5 -2 -5
17 0 19 2 27 5 18 2 -10 2 -26 0 -35z m118 -45 l60 -62 -61 54 c-53 47 -73 70
-61 70 1 0 29 -28 62 -62z m-456 -511 c-8 -50 -37 -157 -43 -157 -3 0 -68 31
-74 35 -1 1 14 26 34 56 20 30 46 76 57 102 26 58 38 41 26 -36z m-179 -38
l-13 -59 -38 0 -39 0 45 62 c25 34 45 67 46 73 0 5 3 4 6 -3 3 -8 0 -41 -7
-73z"/>
<path d="M4961 5779 c-15 -6 -21 -14 -17 -25 3 -9 6 -21 6 -27 0 -7 9 3 21 22
23 39 22 42 -10 30z"/>
<path d="M4796 5635 c-18 -19 -21 -48 -6 -76 17 -30 75 -26 97 7 15 24 15 29
2 53 -18 32 -68 40 -93 16z m68 -11 c20 -20 20 -38 0 -59 -20 -20 -42 -16 -60
10 -12 18 -11 24 2 43 18 26 37 28 58 6z"/>
<path d="M4825 5601 c-6 -11 9 -23 19 -14 9 9 7 23 -3 23 -6 0 -12 -4 -16 -9z"/>
<path d="M5109 5601 c-83 -83 32 -213 124 -141 51 40 43 126 -14 155 -43 23
-77 18 -110 -14z m105 -13 c51 -46 26 -128 -39 -128 -33 0 -75 42 -75 75 0 31
41 75 69 75 11 0 31 -10 45 -22z"/>
<path d="M5152 5548 c-15 -18 1 -41 24 -36 23 4 26 41 3 46 -9 1 -21 -3 -27
-10z"/>
<path d="M5718 5653 c7 -3 16 -2 19 1 4 3 -2 6 -13 5 -11 0 -14 -3 -6 -6z"/>
<path d="M6385 5090 c-13 -5 -14 -9 -5 -9 8 0 24 4 35 9 13 5 14 9 5 9 -8 0
-24 -4 -35 -9z"/>
</g>
</svg>
