<?xml version="1.0" standalone="no"?>
<!DOCTYPE svg PUBLIC "-//W3C//DTD SVG 20010904//EN"
 "http://www.w3.org/TR/2001/REC-SVG-20010904/DTD/svg10.dtd">
<svg version="1.0" xmlns="http://www.w3.org/2000/svg"
 width="1732.000000pt" height="1920.000000pt" viewBox="0 0 1732.000000 1920.000000"
 preserveAspectRatio="xMidYMid meet">

<g transform="translate(0.000000,1920.000000) scale(0.100000,-0.100000)"
fill="#000000" stroke="none">
<path d="M16250 19184 c-30 -8 -73 -25 -95 -38 -22 -13 -776 -558 -1675 -1212
-899 -653 -3748 -2721 -6330 -4596 -2777 -2016 -4714 -3429 -4742 -3458 -25
-27 -59 -76 -75 -107 -26 -53 -28 -67 -28 -173 0 -106 2 -120 28 -172 64 -131
182 -218 322 -238 44 -6 637 -10 1578 -10 829 0 1507 -2 1507 -5 0 -5 -2439
-3400 -5022 -6990 -609 -847 -1119 -1563 -1133 -1592 -135 -279 98 -616 410
-591 106 9 162 41 485 275 1440 1047 3684 2677 7596 5517 2530 1837 4651 3378
4714 3425 175 131 230 222 230 381 0 212 -145 379 -355 410 -45 6 -619 10
-1577 10 -830 0 -1508 2 -1508 5 0 5 1941 2707 5003 6965 600 833 1104 1538
1122 1565 52 82 68 143 63 250 -3 79 -8 101 -36 157 -89 182 -289 274 -482
222z m-3881 -5236 c-1167 -1624 -2315 -3221 -2551 -3548 -271 -377 -436 -615
-450 -650 -29 -73 -31 -211 -5 -287 40 -113 142 -214 262 -259 48 -18 112 -19
1369 -24 l1318 -5 -4738 -3441 c-2607 -1893 -4740 -3440 -4742 -3438 -2 1
1143 1598 2545 3547 1690 2352 2556 3565 2572 3604 32 75 36 211 8 290 -39
113 -138 212 -254 256 l-58 22 -1318 5 -1318 5 4738 3441 c2606 1892 4739
3440 4741 3438 2 -1 -952 -1331 -2119 -2956z"/>
<path d="M8200 18250 c-1492 -86 -2878 -526 -4133 -1311 -762 -477 -1482
-1106 -2062 -1804 -1525 -1832 -2223 -4189 -1945 -6560 177 -1505 739 -2918
1643 -4132 144 -193 188 -235 287 -275 79 -31 222 -31 303 1 82 32 177 123
220 210 30 62 32 72 32 176 0 139 -13 170 -160 366 -1273 1704 -1789 3819
-1449 5944 315 1970 1409 3772 3029 4993 763 575 1628 1006 2550 1271 1603
460 3363 386 4910 -205 l230 -88 101 -1 c96 0 103 2 176 38 172 84 266 270
229 449 -29 137 -115 243 -244 303 -98 45 -387 152 -582 215 -655 211 -1274
334 -1995 395 -216 19 -920 28 -1140 15z"/>
<path d="M15080 15047 c-119 -34 -227 -125 -278 -234 -24 -52 -27 -70 -27
-168 0 -100 3 -116 28 -169 15 -33 60 -102 101 -155 701 -920 1196 -2013 1426
-3151 108 -536 154 -1002 154 -1565 -1 -449 -26 -793 -90 -1205 -458 -2962
-2595 -5421 -5470 -6294 -1423 -432 -2983 -444 -4414 -35 -185 53 -470 149
-660 222 -185 72 -185 72 -286 72 -96 0 -103 -2 -176 -37 -112 -56 -193 -153
-224 -270 -37 -141 10 -303 118 -404 59 -56 131 -89 398 -187 1011 -371 2046
-544 3135 -524 562 11 1023 60 1535 163 780 157 1441 383 2150 735 1004 499
1851 1145 2616 1994 629 697 1182 1575 1546 2455 729 1761 856 3729 359 5580
-276 1027 -760 2022 -1404 2887 -145 194 -189 236 -287 274 -68 26 -188 34
-250 16z"/>
</g>
</svg>
