<?xml version="1.0" standalone="no"?>
<!DOCTYPE svg PUBLIC "-//W3C//DTD SVG 20010904//EN"
 "http://www.w3.org/TR/2001/REC-SVG-20010904/DTD/svg10.dtd">
<svg version="1.0" xmlns="http://www.w3.org/2000/svg"
 width="206.000000pt" height="245.000000pt" viewBox="0 0 206.000000 245.000000"
 preserveAspectRatio="xMidYMid meet">

<g transform="translate(0.000000,245.000000) scale(0.100000,-0.100000)"
fill="#00FF00" stroke="none">
<path d="M1734 2339 c-29 -33 -73 -52 -88 -40 -16 14 -26 4 -26 -26 0 -34 -67
-170 -87 -177 -10 -4 -19 -2 -21 3 -7 21 -20 10 -26 -22 -3 -19 -13 -42 -21
-53 -13 -17 -14 -17 -15 -1 0 20 -19 23 -24 5 -3 -7 -7 -33 -9 -56 -7 -58 16
-82 78 -82 54 0 78 20 96 79 11 35 16 41 41 41 35 0 36 -15 3 -78 -37 -72 -65
-87 -160 -88 -44 0 -93 -6 -109 -13 -26 -11 -28 -10 -23 9 5 19 2 21 -24 15
-18 -4 -36 -2 -44 5 -20 17 -19 1 2 -22 15 -17 15 -22 2 -51 -12 -25 -13 -40
-5 -69 14 -47 23 -55 31 -29 9 31 25 26 78 -23 33 -31 49 -56 55 -83 l8 -38 8
38 c5 27 12 37 26 37 10 0 22 -4 25 -10 8 -13 58 -3 138 27 65 25 97 53 36 31
-49 -17 -45 -1 7 31 88 54 98 63 83 73 -11 7 -6 15 21 38 19 17 38 30 42 30 4
0 8 5 8 10 0 6 -5 10 -11 10 -39 0 -55 70 -28 129 21 48 24 65 9 56 -15 -9
-11 17 5 39 20 26 20 57 0 50 -12 -5 -13 -1 -3 26 8 24 8 34 -1 39 -9 6 -9 15
-1 35 14 37 13 49 -4 43 -20 -8 -36 13 -36 44 0 37 -13 43 -36 18z"/>
<path d="M970 1725 c-10 -12 -23 -15 -46 -12 -29 5 -31 3 -32 -24 0 -16 4 -29
9 -29 5 0 9 -4 9 -10 0 -5 -8 -10 -18 -10 -10 0 -45 -21 -78 -46 -105 -82
-159 -99 -233 -73 -36 13 -38 20 -12 43 18 17 22 17 43 2 51 -36 122 -4 134
60 8 41 -18 78 -47 69 -10 -4 -21 1 -26 10 -8 13 -14 14 -39 5 -16 -7 -55 -12
-87 -12 -51 0 -56 -2 -40 -13 33 -24 4 -29 -79 -13 -80 16 -113 15 -102 -3 12
-20 -9 -49 -53 -70 l-46 -22 27 -14 c32 -17 24 -33 -24 -53 -37 -16 -37 -21 1
-49 16 -12 34 -33 39 -47 8 -20 17 -24 52 -25 24 -1 54 -4 68 -9 20 -6 22 -9
9 -14 -26 -11 -19 -56 8 -56 17 0 20 -4 15 -22 l-5 -22 30 22 c18 12 54 24 87
28 60 7 73 0 30 -17 -33 -12 -26 -19 28 -29 30 -6 53 -4 77 6 42 18 46 18 31
-1 -23 -28 -4 -25 31 5 37 32 76 39 85 15 9 -24 21 -18 27 15 4 20 17 34 39
46 18 9 40 23 49 30 14 12 23 10 72 -14 32 -16 57 -25 57 -21 0 4 -18 29 -40
54 -44 51 -49 71 -21 80 21 6 66 -8 76 -24 3 -6 11 -11 17 -11 6 0 3 9 -8 21
-18 20 -18 20 11 14 27 -5 28 -4 11 7 -11 7 -32 24 -48 38 -35 31 -25 53 26
54 42 1 44 8 14 38 -13 13 -22 28 -20 35 1 6 -2 14 -8 18 -5 3 -10 18 -10 32
l0 26 -23 -22 c-25 -22 -38 -17 -49 18 -3 10 -7 9 -18 -4z"/>
<path d="M1604 1198 c-12 -13 -38 -49 -59 -81 -76 -117 -146 -152 -246 -123
-29 9 -89 16 -136 16 -94 0 -106 9 -119 88 -6 40 -4 44 30 77 21 19 29 32 19
28 -54 -19 -83 -90 -63 -156 16 -53 58 -77 136 -77 35 0 89 -9 125 -21 80 -26
123 -21 186 22 60 41 67 50 94 122 12 32 30 69 41 82 26 33 19 53 -8 23z"/>
<path d="M1121 1197 c2 -1 13 -9 24 -17 19 -14 19 -14 6 3 -7 9 -18 17 -24 17
-6 0 -8 -1 -6 -3z"/>
<path d="M273 1170 c15 -63 68 -195 86 -214 11 -11 29 -46 41 -76 11 -30 31
-68 45 -84 l24 -30 -6 42 c-3 23 -3 42 0 42 3 0 30 -14 59 -31 29 -17 88 -49
133 -71 44 -21 98 -53 120 -71 22 -17 77 -50 122 -73 71 -36 83 -40 83 -24 0
33 28 43 134 48 97 4 107 3 167 -24 80 -36 169 -38 221 -5 18 11 49 28 68 36
71 31 81 43 101 124 13 53 56 95 145 141 59 30 64 35 64 65 0 39 -7 47 -31 35
-13 -8 -20 -6 -26 5 -7 13 -13 10 -31 -15 -27 -36 -84 -68 -90 -51 -2 6 -12 1
-23 -14 -11 -13 -41 -31 -68 -39 -63 -18 -121 -49 -145 -75 -13 -15 -31 -21
-59 -21 -27 0 -60 -11 -103 -35 -72 -41 -90 -43 -97 -14 -5 19 -8 20 -21 7 -9
-10 -45 -17 -101 -22 -87 -6 -121 1 -138 31 -7 11 -14 9 -37 -11 -33 -27 -58
-25 -86 5 -17 19 -17 21 4 47 43 53 75 102 70 108 -3 2 -21 -4 -39 -15 -41
-23 -132 -51 -170 -51 -21 0 -39 13 -74 55 -26 30 -51 55 -56 55 -4 0 -7 -12
-6 -27 5 -64 -72 -23 -109 59 -19 43 -11 74 20 72 9 -1 16 4 16 11 0 13 -40
35 -103 55 -21 7 -55 26 -74 44 -36 31 -36 31 -30 6z"/>
<path d="M380 780 c0 -5 4 -10 9 -10 4 0 46 -46 91 -102 133 -164 216 -253
314 -337 116 -100 198 -153 297 -191 228 -88 398 -54 552 110 41 43 83 98 95
122 22 48 56 182 67 263 6 47 4 45 -23 -33 -17 -46 -42 -100 -55 -121 -40 -61
-117 -129 -181 -162 -57 -30 -64 -31 -160 -27 -87 4 -110 9 -168 36 -37 17
-96 43 -130 58 -135 57 -337 171 -573 325 -123 81 -135 87 -135 69z"/>
</g>
</svg>
