<?xml version="1.0" standalone="no"?>
<!DOCTYPE svg PUBLIC "-//W3C//DTD SVG 20010904//EN"
 "http://www.w3.org/TR/2001/REC-SVG-20010904/DTD/svg10.dtd">
<svg version="1.0" xmlns="http://www.w3.org/2000/svg"
 width="1755.000000pt" height="1920.000000pt" viewBox="0 0 1755.000000 1920.000000"
 preserveAspectRatio="xMidYMid meet">

<g transform="translate(0.000000,1920.000000) scale(0.100000,-0.100000)"
fill="#da1f28" stroke="none">
<path d="M8448 19190 c-1634 -67 -3117 -467 -4408 -1188 -846 -472 -1619
-1115 -2263 -1882 -752 -897 -1302 -1959 -1571 -3038 -240 -958 -265 -1837
-85 -2882 186 -1081 694 -2600 1355 -4055 220 -486 698 -1419 880 -1717 134
-221 289 -398 432 -492 167 -110 258 -140 1117 -371 319 -86 648 -174 730
-196 599 -162 665 -185 841 -301 251 -164 407 -325 804 -828 308 -391 431
-529 607 -681 349 -301 780 -482 1399 -588 221 -38 422 -63 759 -96 974 -96
1280 -150 2675 -475 1303 -303 1908 -393 2650 -394 498 0 884 45 1290 151 579
150 982 369 1315 715 133 138 226 266 299 413 96 194 130 333 129 530 0 105
-5 152 -27 245 -148 631 -193 1080 -183 1830 9 621 29 866 182 2190 124 1074
155 1446 170 2030 23 878 -108 1834 -369 2695 -68 224 -214 641 -221 633 -2
-2 -9 -105 -16 -230 -7 -125 -16 -233 -20 -240 -14 -22 -120 63 -179 144 -28
39 -40 40 -40 3 0 -36 -55 -109 -106 -142 -110 -71 -230 -65 -399 20 -69 34
-138 77 -133 82 1 2 89 8 193 14 105 6 214 14 243 17 51 5 52 6 52 39 0 89
-78 216 -173 280 -98 67 -241 92 -342 61 l-40 -12 60 -18 c75 -23 107 -39 173
-87 76 -57 70 -69 -30 -69 -113 0 -208 22 -305 70 -71 35 -193 129 -193 149 0
3 39 19 88 34 191 62 417 175 602 301 l105 72 0 -150 c0 -139 3 -157 28 -231
28 -80 79 -178 117 -225 l20 -25 0 474 c0 261 3 471 8 467 4 -4 41 -143 83
-309 l76 -302 33 70 c116 250 168 577 141 879 -53 569 -269 1114 -804 2021
-654 1109 -1103 1759 -1645 2380 -155 176 -544 560 -723 713 -559 476 -1133
819 -1734 1037 -517 187 -1472 368 -2300 435 -392 31 -994 45 -1347 30z m3248
-725 c105 -24 298 -100 343 -134 l25 -19 -40 -11 c-118 -34 -248 -19 -409 48
-104 42 -225 108 -225 121 0 36 131 34 306 -5z m-2690 -221 c-527 -211 -596
-236 -660 -241 -74 -6 -116 6 -145 41 -11 13 -1 23 73 71 330 215 818 362
1211 363 l110 1 -589 -235z m1817 162 c262 -43 505 -116 719 -218 71 -34 126
-63 124 -65 -2 -2 -212 -26 -467 -53 -1071 -113 -1045 -111 -1103 -84 -27 13
-56 48 -56 68 0 1 41 15 90 31 53 17 85 32 78 36 -28 16 -140 39 -236 50 -118
13 -266 0 -381 -31 -87 -25 -88 -25 -101 0 -15 28 11 81 56 115 79 61 398 140
679 169 92 9 504 -3 598 -18z m-4760 -616 c20 -11 46 -20 57 -20 32 0 90 -60
93 -95 l2 -30 -105 -3 c-98 -3 -164 4 -282 30 -27 5 -48 14 -48 18 0 20 67 84
105 101 54 25 131 24 178 -1z m6721 -49 c562 -274 1007 -825 1165 -1444 33
-128 61 -309 61 -394 0 -107 8 -132 48 -149 95 -39 186 -136 261 -274 37 -69
270 -625 429 -1022 37 -92 70 -168 73 -168 3 0 12 42 19 93 7 50 14 96 17 100
8 13 35 -16 54 -58 46 -100 5 -234 -91 -296 l-24 -16 180 -199 c99 -109 187
-210 196 -224 9 -14 32 -93 53 -177 34 -138 39 -152 61 -157 14 -4 43 -23 65
-43 112 -101 133 -297 42 -402 l-35 -41 32 0 c24 0 42 -10 71 -39 45 -44 48
-69 19 -126 -60 -117 19 -294 159 -359 39 -18 64 -21 156 -20 96 0 122 4 207
33 54 17 117 40 140 51 49 22 58 16 58 -43 0 -82 -66 -160 -188 -221 -86 -43
-131 -55 -412 -105 -1148 -208 -2282 -302 -3465 -288 -844 10 -1556 64 -2362
177 -101 14 -141 16 -170 8 -44 -12 -106 -53 -149 -100 -18 -18 -287 -361
-599 -763 l-567 -730 101 -19 c56 -10 104 -16 107 -13 3 3 12 32 20 66 17 76
60 161 114 230 38 48 44 52 53 35 6 -10 10 -50 10 -89 0 -112 -56 -220 -147
-280 -50 -33 -54 -40 -28 -48 9 -2 78 -23 153 -45 758 -224 1678 -223 2869 4
468 89 1203 260 1348 313 228 83 351 199 385 364 8 35 23 78 35 94 27 38 101
78 182 97 53 13 884 138 1733 261 209 30 257 26 377 -32 87 -43 199 -148 243
-230 76 -142 102 -279 95 -500 l-6 -158 95 -163 c603 -1038 931 -2204 960
-3415 l6 -267 -27 0 c-15 0 -36 -4 -46 -10 -18 -9 -17 -13 16 -61 35 -53 44
-102 24 -139 -8 -15 -5 -20 22 -29 34 -12 93 -13 120 -3 13 5 15 11 8 22 -15
23 -12 76 5 90 13 11 8 18 -37 52 -29 21 -56 45 -61 53 -5 9 5 50 27 107 103
276 166 567 227 1050 7 54 14 96 16 95 5 -6 -175 -2285 -187 -2359 -16 -105
-45 -171 -94 -216 -49 -45 -45 -44 -286 -67 -1000 -96 -2109 -313 -3059 -601
-62 -19 -120 -34 -127 -34 -7 0 -47 66 -88 148 -229 451 -554 926 -910 1330
-109 124 -435 454 -474 479 -29 20 -34 14 -40 -51 -9 -107 18 -151 287 -480
260 -318 755 -925 857 -1052 136 -169 169 -267 161 -474 -11 -284 -128 -495
-456 -819 -209 -207 -277 -246 -446 -258 -151 -10 -321 32 -575 145 -170 75
-311 128 -397 149 -90 21 -271 22 -335 1 l-48 -16 0 169 c0 485 -107 940 -325
1384 -92 187 -176 326 -283 467 -116 152 -125 159 -60 43 170 -303 258 -563
258 -763 l0 -54 -37 6 c-21 3 -121 15 -223 26 -102 12 -189 22 -193 23 -5 1
-9 35 -10 74 -2 63 -5 75 -32 109 -17 20 -35 37 -40 37 -6 0 -22 -24 -37 -53
-54 -105 -32 -247 51 -330 114 -114 386 -154 585 -86 43 15 80 25 81 24 1 -2
7 -58 14 -125 20 -220 9 -712 -18 -785 -5 -15 -19 -4 -81 64 -41 46 -153 165
-247 265 -95 100 -173 184 -173 187 0 4 29 50 65 103 35 53 63 98 61 100 -1 2
-29 -2 -61 -8 -138 -25 -313 35 -409 141 -121 134 -140 350 -45 518 l30 53
-149 -124 c-82 -68 -154 -127 -160 -131 -20 -12 -52 31 -52 72 0 59 42 131
141 238 151 165 216 310 226 505 11 203 -34 306 -208 481 -272 273 -602 307
-823 86 -34 -35 -74 -88 -89 -118 -30 -61 -44 -165 -30 -214 l9 -29 164 158
c91 88 192 185 225 217 l61 58 54 -16 c197 -58 377 -232 441 -425 20 -62 24
-93 24 -194 -1 -109 -4 -127 -32 -201 -58 -154 -168 -287 -290 -352 l-61 -32
-169 202 c-754 900 -1601 1780 -2514 2610 -126 115 -228 216 -247 245 -136
211 -131 531 14 935 27 74 348 870 712 1765 213 523 272 688 297 828 29 167
15 337 -36 438 -24 46 -75 132 -1239 2077 -436 729 -814 1366 -841 1415 -144
272 -128 445 75 801 266 466 657 917 1063 1226 82 63 93 67 52 21 -69 -76
-119 -184 -133 -284 l-7 -46 58 19 c99 34 232 5 306 -67 l29 -27 -36 -37 c-58
-60 -87 -137 -87 -231 0 -121 33 -215 107 -306 91 -113 267 -170 440 -144 140
21 282 88 407 192 l47 40 0 -29 c0 -87 105 -156 281 -183 136 -21 547 -24 703
-6 l140 16 121 128 c66 70 141 149 167 176 l46 50 92 -28 c88 -26 93 -27 105
-9 7 10 49 68 93 128 l79 110 -48 11 c-127 29 -241 164 -227 270 3 24 3 24
133 -34 596 -268 1159 -635 1655 -1081 311 -281 573 -403 1003 -468 141 -22
605 -24 772 -5 357 42 839 128 913 164 45 21 90 78 110 137 7 19 12 65 12 102
0 80 -23 150 -79 235 -20 33 -219 262 -441 509 -336 374 -521 581 -664 743
-31 35 -4 27 128 -37z m-633 -162 c68 -11 143 -29 166 -40 77 -37 127 -118 91
-147 -9 -6 -60 6 -168 41 l-155 50 -227 6 c-210 6 -229 8 -255 27 -15 12 -29
30 -31 42 -3 18 3 21 45 27 26 3 55 8 63 9 8 2 90 4 181 5 126 1 196 -4 290
-20z m-4809 -252 c116 -52 198 -161 198 -261 0 -105 -73 -200 -202 -263 -85
-41 -190 -73 -244 -73 -106 0 -223 79 -273 185 -32 69 -27 181 12 247 49 83
157 163 254 188 68 17 192 6 255 -23z m4140 -952 c308 -75 510 -88 866 -56
369 33 524 28 682 -24 88 -29 163 -71 140 -79 -30 -9 -918 -116 -1020 -122
-112 -7 -264 7 -370 32 -90 22 -255 104 -316 158 -56 49 -111 116 -95 116 5 0
56 -11 113 -25z m-7264 -10 c273 -44 536 -178 727 -369 109 -109 170 -200 300
-446 498 -941 1081 -1938 1654 -2825 271 -420 291 -459 331 -656 31 -147 24
-415 -15 -598 -31 -147 -112 -399 -185 -571 -59 -142 -176 -390 -183 -390 -3
0 -33 46 -68 103 -590 963 -1086 1592 -1636 2077 -446 393 -939 673 -1434 814
-70 20 -130 36 -135 36 -4 0 59 -34 141 -76 464 -236 897 -526 1301 -870 203
-173 611 -584 773 -779 262 -314 500 -653 685 -978 189 -331 216 -403 216
-586 0 -214 -61 -399 -259 -791 -73 -145 -153 -314 -176 -375 -135 -349 -138
-627 -9 -831 18 -29 157 -195 310 -370 152 -176 284 -328 293 -339 9 -10 -58
50 -149 135 -292 274 -491 438 -700 577 -392 261 -731 372 -1130 373 -63 0
-137 6 -165 14 -180 47 -343 197 -449 410 -45 91 -71 165 -185 521 -124 386
-291 659 -558 915 -141 135 -256 216 -418 296 -230 112 -354 143 -605 151
-138 4 -198 2 -285 -12 -271 -42 -513 -156 -698 -329 -21 -20 -40 -36 -43 -36
-15 0 92 137 160 205 144 143 326 246 536 303 87 24 112 26 285 26 161 0 201
-3 264 -21 71 -19 73 -19 50 -1 -213 171 -504 219 -809 132 -325 -93 -619
-351 -950 -831 -35 -51 -65 -91 -67 -90 -6 7 45 146 86 233 73 155 161 276
310 425 149 148 268 235 438 319 246 121 517 180 764 165 l116 -7 7 109 c21
347 98 855 187 1243 57 251 170 654 187 672 6 6 478 118 496 118 3 0 -11 47
-31 104 l-37 104 -42 -37 c-103 -91 -283 -94 -396 -8 -38 29 -88 89 -88 106 0
3 24 5 53 3 33 -2 68 2 90 11 41 18 35 -3 67 250 53 439 186 944 360 1377 64
159 232 511 315 657 l46 82 -133 42 c-73 23 -137 45 -141 49 -10 8 120 48 217
65 98 18 302 18 414 0z m11230 -4807 c2 -25 -3 -61 -11 -80 l-14 -33 -1029
-159 c-566 -88 -1078 -165 -1139 -172 -295 -35 -514 -3 -724 106 -73 38 -93
60 -56 60 15 0 75 65 75 82 0 7 -18 9 -56 4 -214 -25 -286 -29 -504 -30 -135
0 -294 6 -355 12 -138 16 -415 61 -434 72 -17 9 -11 10 414 61 507 60 677 65
831 28 47 -11 166 -64 246 -109 32 -18 42 -20 77 -10 22 6 71 34 108 63 90 68
128 87 181 87 47 0 77 -12 85 -34 4 -10 -15 -24 -66 -49 -40 -19 -101 -56
-136 -82 -57 -42 -62 -49 -46 -58 11 -6 51 -12 90 -14 56 -4 120 5 325 47 597
120 1221 202 1815 240 94 6 188 12 210 14 22 2 56 3 75 2 34 -1 35 -2 38 -48z
m-3311 -448 c110 -5 248 -16 305 -25 122 -18 251 -44 268 -55 20 -12 30 -99
19 -170 -33 -221 -213 -380 -429 -380 -109 0 -210 32 -151 47 45 12 159 72
194 102 73 65 107 182 72 250 -11 23 -23 29 -61 35 -117 16 -300 -2 -429 -42
-53 -16 -60 -21 -58 -43 14 -141 14 -185 3 -241 -6 -35 -17 -72 -23 -83 -9
-18 -11 -16 -24 20 -25 72 -35 129 -42 235 l-6 105 -65 17 c-148 40 -300 33
-450 -22 -94 -34 -105 -31 -190 59 -70 73 -119 96 -146 69 -12 -12 -4 -32 57
-138 39 -69 114 -190 166 -268 89 -134 98 -143 122 -138 103 22 452 13 499
-13 18 -10 -103 -64 -205 -91 -104 -27 -241 -41 -334 -34 l-76 7 -39 81 c-58
120 -161 270 -256 370 l-83 88 -80 -18 c-87 -20 -284 -26 -388 -11 -56 8 -59
10 -93 62 l-35 53 33 50 33 50 115 6 c508 28 1214 61 1540 74 19 1 126 -3 237
-8z m-2194 -76 c94 -32 181 -140 193 -240 12 -102 30 -120 185 -183 73 -30
110 -58 122 -92 12 -36 -6 -37 -161 -10 l-154 26 -43 130 c-34 104 -83 223
-100 243 -1 1 -26 -12 -56 -30 l-54 -33 3 -70 c2 -38 1 -79 -2 -92 -6 -23 -53
-83 -65 -83 -4 0 -7 35 -8 78 0 46 -6 91 -15 112 -14 34 -18 36 -55 32 -43 -4
-138 12 -162 28 -12 7 -13 14 -3 34 28 63 114 133 192 157 43 13 135 10 183
-7z m-661 -44 c44 -13 78 -52 78 -90 0 -15 -13 -56 -30 -91 -16 -35 -43 -124
-59 -197 -46 -202 -92 -286 -183 -333 -73 -37 -177 -17 -221 42 -18 25 -18 27
2 112 65 272 199 515 306 552 49 17 60 18 107 5z m-6562 -230 c312 -78 636
-310 914 -655 124 -154 315 -446 386 -589 33 -67 71 -160 84 -208 26 -91 46
-268 30 -268 -5 0 -72 106 -149 236 -198 335 -308 507 -411 646 -341 462 -740
699 -1179 701 -224 0 -378 -52 -565 -193 -106 -80 -181 -125 -224 -136 -26 -6
-28 -5 -22 12 17 47 76 133 131 192 129 140 313 235 532 277 113 21 360 14
473 -15z m7000 -134 c7 -9 10 -28 7 -44 -5 -25 8 -41 154 -177 88 -83 171
-154 183 -159 32 -12 73 0 81 25 7 20 8 20 36 -7 l28 -27 65 61 c69 65 160
114 245 134 47 11 50 13 36 28 -19 21 -29 80 -17 98 7 11 16 9 43 -7 19 -10
53 -24 77 -31 40 -10 42 -13 42 -48 0 -38 14 -71 23 -56 2 5 8 41 12 79 12
130 10 130 91 -25 41 -78 74 -143 74 -146 0 -2 -10 -4 -22 -4 -24 0 -68 36
-68 57 0 18 -7 17 -42 -9 -17 -11 -39 -41 -50 -65 -10 -23 -21 -43 -23 -43 -9
0 -36 62 -49 112 l-13 53 -22 -42 c-27 -53 -81 -107 -136 -133 -86 -42 -138
-44 -573 -31 -224 7 -419 14 -434 17 -27 5 -28 7 -28 75 0 70 23 156 54 200
l15 22 12 -29 c6 -16 12 -61 12 -101 l2 -72 35 -15 c19 -8 46 -17 60 -20 l25
-5 0 167 c0 184 4 208 33 193 10 -5 24 -17 32 -25z m-7045 -200 c143 -38 258
-118 456 -315 244 -244 415 -483 569 -796 209 -425 313 -830 327 -1280 6 -189
-3 -445 -16 -445 -3 0 -46 131 -96 291 -77 249 -105 328 -105 292 0 -4 -7 -46
-15 -92 -24 -135 -43 -346 -60 -636 -32 -567 -75 -807 -185 -1043 -162 -346
-430 -597 -711 -666 -39 -10 -107 -16 -171 -16 -235 0 -449 106 -701 350 -358
344 -600 784 -706 1283 -44 205 -68 537 -38 537 26 0 218 -52 337 -91 307
-101 630 -260 881 -435 l77 -53 122 86 121 85 77 -25 c148 -49 310 -57 444
-22 29 8 53 13 55 11 1 -1 -42 -50 -97 -108 -99 -105 -99 -105 -74 -117 29
-13 133 -15 152 -2 10 6 5 12 -18 21 -28 11 -70 53 -70 69 0 4 33 12 74 18 41
7 114 27 162 45 104 39 95 17 114 263 26 321 -20 685 -127 1018 -138 431 -365
803 -677 1112 -390 386 -557 399 -933 72 -197 -171 -315 -252 -412 -282 -23
-7 -24 -6 -17 26 10 54 69 168 120 236 79 105 296 298 487 435 79 57 209 128
281 154 117 43 260 51 373 20z m-317 -562 c93 -21 202 -66 287 -119 72 -45 75
-48 62 -69 -7 -11 -37 -33 -67 -48 -95 -49 -193 -34 -275 44 -27 26 -68 62
-89 80 -39 33 -66 80 -66 117 0 17 5 18 43 14 23 -3 70 -11 105 -19z m-1543
-415 c88 -33 163 -91 212 -164 28 -42 42 -73 38 -83 -11 -29 -80 -132 -86
-129 -4 1 -43 56 -87 122 -44 66 -110 156 -146 199 -36 43 -66 81 -66 83 0 9
85 -9 135 -28z m3537 -803 c78 -114 158 -319 158 -405 0 -21 5 -17 33 29 40
66 88 105 150 122 89 23 21 55 1232 -574 413 -215 860 -447 994 -517 326 -169
351 -193 351 -349 0 -139 -141 -722 -300 -1243 -128 -417 -249 -752 -488
-1359 -77 -195 -161 -412 -186 -481 -126 -351 -198 -659 -214 -926 l-7 -107
-95 108 c-52 59 -96 114 -98 121 -2 8 21 81 51 162 111 301 190 568 252 842
43 195 43 201 8 201 -44 0 -144 54 -190 101 -52 55 -91 131 -100 199 l-8 53
-34 -83 c-41 -101 -59 -120 -110 -120 -45 0 -91 28 -135 83 -29 37 -30 42 -37
176 -9 159 -17 198 -55 253 -22 31 -144 124 -184 140 -4 2 -139 375 -301 830
-162 454 -295 826 -296 825 -1 -1 -11 -60 -22 -131 -56 -339 -175 -683 -344
-991 -65 -119 -219 -353 -224 -340 -2 6 48 224 111 485 128 532 173 732 210
932 99 533 97 954 -6 1303 -16 54 -31 81 -72 126 -156 173 -230 430 -185 641
l12 53 44 -50 c25 -27 63 -76 85 -109z m-3402 -458 c7 -29 26 -82 41 -117 16
-35 29 -68 29 -72 0 -5 -14 -32 -32 -60 l-32 -52 -48 104 c-42 90 -50 115 -55
186 -7 93 12 161 50 188 22 15 22 15 28 -55 4 -38 12 -93 19 -122z m814 -194
c161 -27 249 -71 286 -145 20 -39 20 -39 1 -39 -67 0 -368 127 -436 185 l-30
25 45 -6 c25 -3 85 -12 134 -20z m671 -260 c55 -15 102 -29 104 -31 5 -4 40
-182 41 -206 0 -14 -18 -4 -72 41 -100 81 -129 100 -233 154 l-90 47 35 15
c43 20 85 16 215 -20z m5476 -1224 c719 -859 1554 -1741 2344 -2475 277 -258
466 -453 511 -530 60 -103 85 -178 91 -270 l4 -80 -468 471 c-257 260 -476
475 -486 478 -10 3 -27 1 -37 -4 -16 -8 -26 2 -73 73 -80 119 -166 215 -572
631 -198 203 -491 504 -651 669 -160 164 -307 310 -327 324 -20 14 -55 28 -81
30 l-45 6 -65 111 c-80 138 -205 326 -315 475 l-85 114 -102 -404 c-248 -980
-552 -1931 -909 -2849 -88 -226 -241 -598 -288 -700 l-25 -55 -1 35 c-2 95 44
389 95 600 81 340 182 637 426 1255 235 595 327 849 404 1115 124 425 202 875
219 1255 3 72 8 154 11 182 l5 53 112 -138 c61 -75 199 -243 308 -372z m-5775
-819 c36 -17 97 -55 137 -86 39 -31 111 -86 159 -123 138 -108 331 -194 528
-237 114 -24 373 -31 490 -11 146 24 264 61 390 124 63 31 119 59 124 61 5 2
6 -14 2 -38 -25 -160 -195 -304 -434 -368 -88 -24 -115 -27 -292 -27 -155 -1
-212 3 -280 18 -324 71 -624 248 -824 486 -69 82 -166 220 -166 235 0 16 106
-6 166 -34z m14847 -1098 c-6 -381 5 -739 33 -1092 8 -106 14 -195 12 -196 -2
-2 -37 -10 -78 -19 -41 -8 -151 -31 -245 -51 -93 -20 -248 -52 -343 -72 -94
-20 -171 -37 -170 -39 2 -1 183 -30 403 -64 220 -34 403 -65 407 -68 10 -11
65 -225 89 -352 31 -156 33 -379 4 -495 l-19 -80 -6 72 c-5 57 -12 78 -34 107
-22 30 -25 40 -16 52 17 19 5 103 -22 166 -24 56 -59 88 -97 88 -26 0 -26 -1
-23 -60 3 -53 1 -62 -20 -81 l-23 -21 32 -66 c43 -90 73 -206 80 -312 l6 -89
28 14 c15 8 35 25 43 37 23 33 19 15 -6 -29 -44 -77 -112 -156 -172 -200 -112
-83 -43 -67 -956 -229 -456 -81 -575 -93 -652 -66 -89 32 -89 31 -694 1195
-312 601 -588 1130 -613 1177 l-45 84 -18 -39 c-67 -153 -6 -344 203 -630 215
-293 261 -569 116 -702 -23 -21 -131 -99 -241 -172 -109 -73 -217 -150 -239
-170 -42 -38 -67 -84 -67 -124 0 -26 32 -61 69 -75 21 -7 -28 -51 -548 -488
-315 -263 -576 -480 -581 -482 -8 -3 65 166 179 412 l41 88 -46 -42 c-53 -49
-126 -84 -213 -101 -82 -16 -290 -6 -401 20 -214 49 -1091 296 -1157 326 -182
84 -263 249 -234 479 17 127 40 212 126 463 41 119 91 280 110 358 35 138 75
377 75 445 0 19 3 45 6 57 6 20 11 17 62 -38 165 -178 443 -322 820 -423 132
-35 310 -76 422 -98 36 -6 137 -12 225 -12 194 0 290 21 388 88 82 55 110 93
161 220 104 255 259 439 508 605 233 155 560 287 938 379 581 142 1395 272
2240 360 75 7 75 7 73 36 -5 66 -64 108 -179 126 -83 14 -36 20 -704 -95 -300
-52 -824 -142 -1165 -200 -341 -58 -659 -116 -708 -130 -152 -43 -246 -105
-287 -191 -21 -42 -24 -44 -43 -31 -41 27 -61 65 -65 126 -10 137 86 225 303
281 136 35 755 157 1040 204 558 93 1024 151 1620 201 149 13 271 23 272 24 1
0 -1 -164 -4 -366z m-14455 162 c5 -25 -13 -39 -41 -31 -31 7 -41 31 -21 50
18 19 57 7 62 -19z m392 -125 c51 -36 101 -140 67 -140 -21 0 -29 -87 -25
-258 2 -72 2 -132 0 -132 -9 0 -74 38 -126 73 -63 43 -157 132 -195 186 l-25
34 54 -7 c30 -4 79 -16 109 -27 30 -10 56 -19 57 -19 1 0 -2 17 -8 38 -23 81
12 272 49 272 8 0 28 -9 43 -20z m390 -165 c6 -8 27 -112 45 -232 34 -218 34
-232 0 -233 -18 0 -55 30 -55 45 0 8 -13 28 -30 46 -72 79 -81 231 -18 321 11
16 14 29 9 33 -15 9 -1 35 19 35 10 0 23 -7 30 -15z m548 -331 c39 -27 20
-121 -34 -163 l-24 -19 130 -71 c71 -39 133 -71 138 -71 5 0 16 25 26 55 9 30
20 55 24 55 4 -1 33 -37 66 -80 l58 -80 35 31 c31 26 84 55 87 47 24 -59 94
-121 159 -140 105 -30 238 0 293 65 28 34 34 31 57 -34 14 -36 24 -48 52 -58
19 -7 58 -34 87 -60 68 -62 87 -71 142 -71 35 0 48 5 60 22 9 12 17 20 20 17
12 -13 107 -171 104 -175 -6 -6 -427 92 -602 140 -365 101 -737 229 -1075 373
l-161 68 117 6 c65 4 128 10 139 14 l21 7 -23 23 c-32 32 -31 68 2 94 32 25
71 27 102 5z m6877 -1167 c0 -105 -2 -116 -31 -177 -32 -66 -69 -119 -77 -110
-2 3 -15 38 -28 78 l-24 73 39 42 c44 47 86 130 93 188 4 30 9 37 17 29 7 -7
11 -54 11 -123z m3725 -654 c72 -82 106 -216 80 -322 -12 -49 -30 -70 -30 -33
0 35 -51 124 -97 170 l-49 49 20 26 c17 23 23 54 25 130 1 26 16 21 51 -20z
m-3893 -275 c47 -44 24 -138 -49 -204 -97 -87 -236 -121 -461 -111 -187 8
-816 73 -889 92 -74 19 -146 55 -180 92 -30 31 -63 101 -53 112 4 3 66 7 138
9 135 3 223 -6 607 -63 149 -23 198 -26 335 -22 180 5 232 16 365 77 99 46
152 51 187 18z m3087 -574 c41 -42 35 -139 -13 -200 l-19 -24 -25 39 c-15 22
-40 47 -56 57 -54 32 -53 101 2 135 44 26 79 24 111 -7z m-5707 -131 c161 -26
289 -50 285 -54 -15 -14 -130 -29 -216 -29 -119 0 -253 29 -352 75 -66 31 -76
38 -59 45 32 14 36 13 342 -37z m832 -73 c108 -74 194 -100 331 -100 52 0 112
5 134 11 32 9 50 7 107 -11 100 -33 195 -25 290 22 66 33 70 34 65 13 -18 -71
52 -151 157 -180 37 -10 70 -16 72 -13 3 3 14 29 24 59 11 29 24 55 30 57 13
4 41 -50 41 -81 0 -13 -10 -39 -23 -58 -19 -28 -29 -33 -53 -31 -29 3 -1431
239 -1596 269 -93 16 -107 29 -66 57 36 25 93 19 178 -19 104 -47 136 -46 195
5 25 22 48 40 51 40 2 0 31 -18 63 -40z m1622 -219 c6 -42 14 -79 18 -82 3 -4
65 4 136 17 167 30 163 30 157 -1 -3 -20 4 -34 37 -65 48 -46 63 -49 83 -17
34 50 55 52 166 13 129 -45 279 -74 424 -82 96 -6 154 -17 392 -80 l279 -74
24 22 c21 19 35 22 96 22 40 -1 91 -7 115 -13 54 -15 112 -65 112 -97 0 -27 8
-30 125 -39 167 -13 416 -73 586 -141 48 -19 90 -34 94 -34 4 0 21 11 37 26
45 37 115 70 181 85 68 15 77 9 77 -52 0 -33 -5 -40 -52 -73 -81 -55 -128 -68
-263 -73 -145 -6 -242 12 -480 87 -748 238 -1237 342 -2290 488 l-270 38 53
28 c76 42 130 125 133 205 l1 26 8 -29 c5 -16 14 -63 21 -105z m2828 68 c17
-6 36 -20 43 -32 9 -18 6 -25 -18 -47 -16 -14 -40 -33 -53 -42 l-23 -16 33
-87 c32 -85 33 -88 14 -101 -31 -23 -65 -16 -101 20 -32 32 -34 39 -34 98 0
109 35 191 90 211 8 3 15 6 16 6 1 1 15 -4 33 -10z"/>
<path d="M5517 16073 c-14 -13 -6 -67 16 -105 36 -66 283 -258 522 -408 115
-72 363 -205 340 -183 -5 6 -91 75 -190 154 -99 79 -288 231 -420 338 -132
106 -245 198 -251 202 -6 5 -14 6 -17 2z"/>
<path d="M7315 10454 c36 -28 109 -62 185 -86 63 -19 95 -23 205 -22 113 0
141 4 212 28 45 14 85 30 87 35 6 9 -137 33 -299 51 -49 5 -162 10 -250 10
-146 -1 -158 -2 -140 -16z"/>
<path d="M10162 9792 c-23 -15 -32 -72 -20 -119 10 -41 11 -43 22 -22 28 57
130 76 141 26 2 -12 10 -89 18 -172 l13 -150 31 43 c40 55 58 135 43 189 -14
50 -75 139 -121 176 -38 29 -104 45 -127 29z"/>
<path d="M10857 9263 c-4 -3 -7 -71 -7 -150 0 -125 -3 -149 -20 -184 -12 -22
-32 -45 -46 -51 -17 -8 -23 -17 -19 -27 27 -68 37 -142 31 -223 l-6 -86 70
-62 70 -62 0 385 c0 212 -4 397 -9 410 -16 41 -48 66 -64 50z"/>
<path d="M11161 9147 c-32 -66 -44 -147 -31 -214 10 -59 30 -95 30 -57 0 34
59 142 81 149 25 8 41 48 33 81 -6 21 -41 55 -81 78 -7 4 -19 -11 -32 -37z"/>
<path d="M11396 8772 c-8 -16 -27 -38 -41 -48 l-25 -19 49 -125 c27 -69 51
-118 54 -110 3 8 10 35 17 60 6 25 22 63 35 86 l24 41 -49 73 -48 72 -16 -30z"/>
<path d="M11527 8449 c-3 -13 -9 -63 -13 -111 -4 -49 -10 -88 -13 -88 -4 0
-13 17 -20 38 -23 66 -38 82 -77 82 -38 0 -99 -22 -125 -46 -16 -14 -15 -18 6
-57 13 -23 27 -59 30 -79 7 -37 9 -38 49 -38 98 0 212 -93 243 -199 l16 -56
20 60 c11 33 21 62 23 64 1 2 28 -11 59 -29 51 -29 55 -34 41 -49 -25 -27 -56
-104 -56 -139 l0 -33 28 19 c41 30 147 124 151 134 2 5 -19 59 -45 119 -45
101 -51 109 -77 109 -34 0 -83 -24 -96 -47 -5 -10 -12 -16 -14 -13 -3 3 -32
90 -65 194 -43 135 -61 182 -65 165z"/>
<path d="M7253 8070 c-41 -9 -63 -27 -63 -51 0 -14 13 -20 58 -29 530 -106
1328 -311 2008 -515 297 -90 967 -308 992 -324 10 -6 8 -18 -7 -52 -12 -24
-21 -62 -21 -85 0 -45 17 -104 30 -104 14 0 51 88 63 151 l12 61 55 -6 c30 -4
64 -9 77 -12 20 -5 23 -2 23 22 0 83 -81 139 -335 234 -926 346 -1874 584
-2835 714 -14 2 -40 0 -57 -4z"/>
<path d="M11013 7994 c-4 -10 -8 -57 -8 -104 0 -72 4 -94 27 -143 15 -32 32
-56 38 -52 14 8 40 102 40 143 0 20 7 40 15 46 13 9 6 20 -44 70 -54 53 -61
58 -68 40z"/>
<path d="M12012 7572 l-43 -45 20 -48 c31 -72 51 -166 51 -246 0 -65 2 -73 19
-73 49 0 68 74 58 234 -5 86 -39 228 -55 225 -4 -1 -26 -22 -50 -47z"/>
<path d="M11863 7220 c-22 -13 -33 -27 -33 -42 0 -57 102 -218 137 -218 22 0
99 46 106 64 7 18 -7 81 -25 108 -8 11 -29 26 -48 32 -21 6 -43 24 -55 43 -23
38 -38 40 -82 13z"/>
<path d="M8110 7042 c0 -62 33 -112 93 -140 215 -101 589 -260 759 -323 l78
-28 0 30 c0 62 -64 135 -162 185 -66 34 -746 324 -759 324 -5 0 -9 -21 -9 -48z"/>
<path d="M11775 6710 c-8 -12 20 -24 35 -15 6 3 8 11 5 16 -8 12 -32 12 -40
-1z"/>
<path d="M11797 6651 c-63 -75 -33 -227 55 -281 57 -35 70 -28 99 49 l26 70
-57 59 c-32 33 -67 76 -77 97 l-19 37 -27 -31z"/>
<path d="M10580 4283 c-63 -43 -65 -75 -6 -91 28 -7 54 -24 75 -47 28 -32 34
-35 48 -23 45 37 57 137 21 162 -30 21 -107 20 -138 -1z"/>
<path d="M7042 17193 c-11 -29 -8 -201 4 -213 8 -8 20 -1 43 27 17 20 31 43
31 50 0 24 20 23 69 -2 47 -23 50 -27 45 -54 -10 -50 55 -94 85 -58 35 43 18
139 -34 192 -59 58 -226 98 -243 58z"/>
<path d="M1305 7638 c64 -116 146 -279 185 -368 18 -41 34 -77 36 -79 1 -2 36
10 76 27 153 63 318 78 487 42 108 -23 166 -25 201 -7 64 32 31 55 -255 182
-215 95 -634 251 -748 279 l-29 7 47 -83z"/>
<path d="M15330 3005 c-105 -20 -239 -68 -340 -122 -97 -53 -243 -144 -237
-149 6 -6 228 16 322 32 186 32 377 92 544 171 l96 45 -50 14 c-78 21 -248 26
-335 9z"/>
</g>
</svg>
