<?xml version="1.0" standalone="no"?>
<!DOCTYPE svg PUBLIC "-//W3C//DTD SVG 20010904//EN"
 "http://www.w3.org/TR/2001/REC-SVG-20010904/DTD/svg10.dtd">
<svg version="1.0" xmlns="http://www.w3.org/2000/svg"
 width="1080.000000pt" height="1080.000000pt" viewBox="0 0 1080.000000 1080.000000"
 preserveAspectRatio="xMidYMid meet">
<metadata>
Created by potrace 1.16, written by Peter Selinger 2001-2019
</metadata>
<g transform="translate(0.000000,1080.000000) scale(0.100000,-0.100000)"
fill="#006400" stroke="none">
<path d="M8765 9813 c-43 -49 -181 -166 -230 -196 -41 -25 -92 -47 -143 -62
-42 -13 -43 -13 -94 27 -39 32 -55 39 -67 31 -28 -17 -41 -58 -52 -163 -6 -65
-17 -116 -29 -139 -11 -20 -31 -65 -46 -101 -15 -36 -37 -87 -50 -114 -13 -28
-24 -56 -24 -63 0 -7 -12 -37 -27 -65 -14 -29 -34 -70 -45 -90 -10 -20 -18
-46 -18 -56 0 -29 -78 -131 -143 -186 -48 -41 -61 -47 -94 -44 -33 3 -40 8
-56 41 -9 21 -29 43 -43 49 -22 11 -28 9 -40 -7 -8 -10 -14 -42 -15 -69 -1
-81 -40 -259 -64 -286 -7 -8 -16 -25 -19 -37 -9 -27 -61 -67 -79 -60 -7 3 -19
24 -26 48 -28 97 -56 121 -86 75 -24 -36 -33 -85 -45 -235 -7 -93 -15 -144
-30 -175 -25 -56 -26 -98 -1 -120 11 -10 22 -28 25 -40 7 -28 54 -66 134 -107
118 -63 324 -63 455 0 60 29 83 50 144 129 43 57 101 242 107 340 4 75 5 76
161 73 164 -3 172 -10 145 -116 -19 -74 -137 -320 -177 -368 -13 -16 -23 -34
-23 -41 0 -29 -128 -140 -235 -203 -80 -48 -191 -74 -340 -80 -113 -5 -140 -3
-206 16 -41 11 -100 21 -131 21 -58 0 -176 -33 -221 -62 -14 -10 -45 -22 -68
-27 -23 -5 -46 -14 -52 -20 -19 -19 -56 -12 -72 13 -19 28 -11 51 32 97 53 58
-16 80 -107 34 -35 -18 -65 -25 -104 -25 -51 0 -60 4 -111 46 -60 48 -85 51
-85 10 0 -22 25 -58 104 -151 32 -38 34 -97 6 -140 -11 -16 -20 -37 -20 -46 0
-9 -9 -28 -20 -42 -12 -15 -28 -52 -36 -84 -18 -69 -7 -150 32 -223 13 -25 26
-66 29 -92 4 -29 17 -62 36 -88 35 -49 48 -44 67 25 6 22 25 57 42 78 28 33
36 37 79 37 44 0 50 -3 98 -54 29 -30 85 -79 125 -109 91 -68 108 -86 133
-150 17 -41 28 -54 51 -61 69 -20 71 -23 93 -93 11 -37 23 -111 27 -163 8
-116 22 -141 58 -104 12 11 16 36 16 94 0 47 6 93 14 112 8 18 17 45 20 60 7
32 47 48 119 48 46 0 53 -3 98 -49 64 -65 83 -71 120 -35 28 26 36 29 121 31
57 1 113 10 152 22 34 11 79 23 101 27 22 3 47 12 55 19 8 7 31 20 50 29 19 9
46 22 60 30 53 28 116 55 145 62 17 4 36 12 44 18 7 6 32 20 55 31 41 20 57
48 38 67 -7 7 -33 2 -79 -14 -77 -29 -189 -52 -203 -43 -15 9 -12 27 8 51 20
24 128 101 176 126 18 9 38 23 45 32 8 9 23 16 35 16 12 0 37 11 56 25 19 14
41 25 49 25 27 0 121 69 213 157 48 46 56 58 48 73 -9 16 -18 18 -60 13 -45
-5 -50 -4 -50 14 0 22 43 86 81 119 31 28 120 89 140 96 40 15 179 130 185
153 14 57 -19 69 -93 35 -38 -17 -44 -17 -58 -4 -18 18 -19 28 -3 53 15 24 4
51 -21 51 -36 0 -60 32 -71 95 -32 186 -34 212 -17 257 10 24 17 53 17 64 0
10 11 36 25 56 14 20 25 43 25 50 0 7 11 30 25 50 14 20 25 40 25 43 0 3 9 19
21 34 27 36 43 116 29 142 -14 26 -32 24 -58 -6 -23 -26 -46 -32 -57 -15 -10
16 21 92 63 156 60 90 93 161 99 213 7 60 -10 79 -53 56 -34 -17 -44 -18 -63
-6 -13 8 -13 14 1 43 9 18 26 75 38 126 18 74 21 98 12 117 -7 14 -18 25 -27
25 -8 0 -24 9 -35 20 -17 17 -19 28 -14 58 3 20 12 46 19 57 7 12 18 46 25 78
6 31 15 59 20 62 5 3 19 27 30 52 15 35 17 49 9 59 -15 19 -53 18 -91 -2 -38
-20 -68 -13 -112 27 -55 47 -70 101 -63 218 6 93 5 100 -17 120 -31 30 -45 26
-91 -26z"/>
<path d="M5122 6889 c-65 -80 -103 -105 -170 -113 -68 -8 -85 -3 -130 36 -39
34 -77 45 -97 28 -20 -17 -19 -32 6 -79 l20 -39 -20 -41 c-12 -22 -21 -49 -21
-59 0 -20 30 -55 74 -85 29 -20 34 -48 10 -71 -11 -12 -35 -16 -87 -16 -69 0
-72 -1 -153 -56 -46 -31 -123 -93 -172 -138 -89 -81 -217 -180 -315 -245 -29
-19 -68 -45 -88 -58 -19 -12 -41 -23 -48 -23 -8 0 -28 -9 -45 -19 -17 -11 -49
-24 -71 -30 -22 -5 -58 -16 -80 -25 -29 -11 -81 -15 -195 -15 -138 -1 -158 1
-185 19 -16 11 -61 27 -100 36 -105 23 -139 43 -143 80 -3 27 6 39 74 102 48
45 85 72 99 72 21 0 102 -39 135 -65 8 -6 40 -22 71 -34 48 -19 71 -22 155
-19 114 5 176 25 242 78 76 61 113 114 122 178 5 31 16 76 24 98 8 23 16 76
17 118 3 86 -10 109 -80 141 -25 11 -44 29 -54 51 -19 40 -46 44 -84 14 -16
-12 -41 -20 -64 -20 -31 0 -42 6 -63 33 -20 26 -24 41 -20 68 11 63 -41 71
-117 18 -14 -10 -46 -21 -70 -25 -24 -4 -55 -12 -69 -19 -14 -7 -45 -16 -70
-20 -25 -3 -77 -13 -117 -21 -100 -19 -181 -18 -275 6 -73 19 -82 20 -104 5
-31 -20 -23 -34 39 -70 59 -34 88 -79 66 -100 -33 -30 -77 -34 -189 -20 -61 8
-121 22 -133 29 -12 8 -42 18 -67 21 -25 4 -67 15 -95 25 -101 38 -415 59
-449 31 -22 -18 -20 -44 4 -66 32 -29 27 -101 -10 -157 -55 -82 -222 -200
-305 -214 -52 -9 -115 -41 -115 -59 0 -19 88 -85 113 -85 28 0 77 -48 77 -75
0 -12 -8 -29 -17 -38 -27 -26 -92 -67 -107 -67 -7 0 -31 -12 -52 -27 -21 -14
-70 -39 -108 -54 -70 -27 -96 -49 -96 -79 0 -19 75 -78 110 -87 31 -7 151 -97
204 -152 41 -42 46 -62 31 -132 l-7 -37 55 -21 c43 -15 95 -22 221 -29 140 -8
170 -13 199 -31 27 -16 50 -21 110 -21 83 0 107 -6 107 -25 0 -21 -68 -66
-113 -73 -38 -7 -42 -11 -45 -38 -2 -21 4 -36 23 -54 24 -23 36 -80 16 -80
-14 0 -24 -41 -13 -52 5 -5 45 -9 88 -10 44 0 87 -2 97 -5 18 -5 23 -38 7 -48
-6 -4 -20 -25 -31 -47 -17 -33 -19 -46 -10 -64 15 -35 47 -30 89 14 20 21 79
62 131 91 73 41 106 54 150 58 31 2 74 11 95 20 42 15 267 34 311 25 14 -2 25
-11 25 -19 0 -28 -45 -55 -188 -114 -17 -6 -22 -16 -20 -32 5 -35 114 -59 242
-54 l98 4 20 -33 c23 -39 43 -42 98 -14 21 11 55 24 77 29 60 15 176 61 194
77 20 18 48 18 55 -1 4 -8 -9 -27 -32 -47 -62 -55 -64 -57 -55 -80 16 -44 34
-44 97 3 32 23 104 87 160 140 90 87 106 98 148 104 91 14 216 -44 216 -101 0
-27 41 -74 64 -74 25 0 36 34 36 108 0 55 5 79 26 118 32 61 88 120 122 129
14 3 38 15 53 26 15 10 34 19 42 19 9 0 28 10 44 23 15 12 39 28 53 34 14 6
54 36 90 67 65 56 83 65 95 46 3 -5 27 -16 53 -24 164 -51 217 -75 313 -142
64 -44 128 -76 139 -69 6 3 10 18 10 32 0 30 -36 74 -277 344 -29 32 -53 63
-53 68 0 6 -11 27 -25 47 -27 40 -32 89 -12 115 16 21 128 69 160 69 14 0 60
-11 103 -26 70 -22 87 -33 149 -95 71 -69 91 -79 113 -57 20 20 14 36 -27 77
-48 48 -73 85 -64 94 12 13 52 7 85 -12 18 -11 51 -23 74 -27 33 -5 42 -3 48
11 3 9 4 21 0 26 -6 11 -113 87 -152 109 -81 46 -113 69 -168 124 -74 74 -87
97 -75 128 13 33 61 75 96 84 17 4 39 13 50 20 33 21 137 28 195 13 44 -11 53
-11 60 1 15 24 12 50 -10 78 -12 15 -39 51 -61 80 -22 28 -47 52 -55 52 -9 0
-27 9 -41 20 -14 11 -34 20 -43 20 -10 0 -23 6 -29 14 -13 15 -1 29 36 40 26
8 38 39 25 63 -5 9 -25 24 -43 32 -52 25 -61 51 -53 161 5 80 3 98 -10 109
-20 17 -35 7 -85 -57 -46 -58 -108 -102 -145 -102 -15 0 -36 13 -55 35 -28 32
-31 42 -31 103 0 61 -10 92 -30 92 -4 0 -25 -23 -48 -51z"/>
<path d="M8110 4353 c-115 -118 -163 -179 -202 -255 -38 -72 -127 -208 -138
-208 -3 0 -13 -12 -21 -27 -23 -47 -52 -86 -101 -140 -27 -28 -48 -56 -48 -61
0 -21 -267 -241 -294 -242 -4 0 -21 -11 -38 -25 -21 -18 -41 -25 -72 -25 -24
0 -69 -9 -101 -20 -79 -27 -230 -28 -283 -1 -20 10 -60 21 -89 24 -28 3 -70
15 -92 26 -22 12 -51 21 -65 21 -14 0 -49 9 -78 21 -42 16 -83 22 -198 26 -80
2 -180 1 -224 -4 -69 -8 -349 0 -412 13 -12 2 -44 24 -70 48 -83 74 -128 207
-140 416 -6 96 -5 110 17 160 24 56 95 160 110 160 4 0 20 11 36 24 16 14 41
28 55 31 15 4 34 15 44 26 20 23 57 25 74 4 7 -8 31 -20 53 -26 23 -6 63 -29
89 -51 29 -24 54 -38 63 -34 24 9 18 25 -22 63 -21 19 -47 44 -58 54 -12 10
-34 19 -50 19 -17 1 -47 7 -68 14 -88 32 -257 -51 -335 -165 -18 -25 -32 -50
-32 -56 0 -6 -8 -21 -19 -34 -11 -14 -23 -58 -31 -109 -7 -47 -19 -117 -26
-157 -15 -76 -9 -136 20 -205 9 -21 16 -46 16 -56 0 -11 8 -30 19 -43 10 -13
22 -35 26 -49 4 -14 19 -38 32 -54 26 -31 97 -86 111 -86 4 0 23 -11 42 -25
19 -14 43 -25 53 -25 11 0 35 -10 54 -21 32 -20 45 -21 226 -18 234 3 389 -8
437 -31 19 -9 68 -22 107 -29 71 -11 98 -20 198 -67 28 -13 61 -24 75 -24 14
0 45 -10 70 -22 39 -19 62 -22 170 -22 111 0 135 4 210 29 47 15 92 34 100 40
8 7 29 20 45 29 83 46 180 111 190 126 3 5 13 10 22 10 8 0 30 12 48 28 19 15
54 42 80 61 25 19 51 43 57 55 6 12 18 30 28 41 26 31 120 220 120 243 0 6 9
26 20 44 11 18 20 42 20 53 0 11 11 41 25 67 14 26 25 57 25 70 0 13 8 37 18
53 10 17 23 49 30 71 7 23 19 47 27 54 8 7 15 17 15 22 0 5 24 37 53 73 87
107 98 124 100 152 2 21 -3 29 -18 31 -14 2 -46 -24 -105 -85z"/>
<path d="M1766 4304 c-23 -22 -20 -41 18 -117 19 -38 38 -83 42 -100 3 -18 15
-44 25 -59 11 -14 19 -34 19 -45 0 -10 9 -32 19 -49 10 -17 22 -46 26 -65 4
-19 15 -54 25 -79 32 -82 60 -180 70 -247 5 -37 17 -78 28 -92 10 -14 21 -33
25 -43 8 -22 92 -143 140 -201 50 -61 83 -110 91 -135 4 -11 15 -30 26 -42 11
-13 20 -31 20 -41 0 -9 11 -41 25 -71 14 -29 25 -62 25 -73 0 -11 12 -42 25
-70 14 -27 25 -59 25 -69 0 -11 11 -34 25 -52 14 -18 25 -36 25 -39 0 -10 58
-92 91 -127 17 -18 37 -45 44 -59 17 -32 71 -79 91 -79 22 0 17 43 -11 96 -21
40 -25 60 -25 134 0 71 3 90 18 103 23 21 46 22 63 1 7 -8 26 -22 43 -31 17
-8 50 -31 73 -49 23 -19 57 -37 75 -40 18 -4 42 -14 53 -24 11 -10 32 -24 47
-31 15 -8 56 -31 93 -51 36 -21 72 -38 79 -38 7 0 24 -8 37 -19 13 -10 41 -23
61 -30 20 -7 42 -19 48 -27 7 -7 18 -14 24 -14 6 0 28 -11 48 -25 20 -14 42
-25 48 -25 15 0 158 -69 165 -79 3 -5 20 -13 38 -16 17 -4 39 -13 47 -20 8 -7
51 -32 95 -55 131 -71 149 -82 265 -165 19 -14 51 -36 70 -49 19 -13 65 -50
102 -82 109 -95 103 -91 279 -181 26 -12 53 -23 60 -23 7 0 20 -6 28 -14 9 -8
48 -26 86 -41 39 -14 86 -37 105 -50 19 -13 47 -27 62 -30 14 -4 34 -15 44
-26 9 -10 22 -19 27 -19 13 0 110 -65 126 -84 16 -19 47 -21 58 -3 4 6 6 49 5
94 l-4 83 44 45 43 46 95 9 c52 5 120 14 150 19 30 6 215 14 411 17 l357 7 88
-28 c49 -15 101 -36 116 -46 14 -11 30 -19 34 -19 4 0 68 -30 141 -66 100 -49
152 -69 201 -76 37 -5 116 -18 176 -28 60 -11 112 -17 115 -15 9 5 152 24 259
35 51 5 99 13 105 18 7 6 35 17 62 25 70 21 143 61 190 106 55 53 109 91 127
91 8 0 27 9 40 20 14 10 45 22 69 26 24 3 58 15 76 25 18 10 48 21 67 25 25 4
60 29 121 86 47 44 85 85 85 92 0 7 11 27 24 44 18 25 27 56 36 130 33 265 79
370 212 491 95 86 227 193 259 210 16 9 52 30 81 47 29 17 70 36 90 43 20 7
42 19 48 27 7 7 18 14 25 14 8 0 27 11 43 25 17 14 39 25 50 25 10 0 31 9 44
20 14 10 45 22 69 26 24 4 49 11 56 16 47 37 84 202 64 284 -11 44 -61 114
-82 114 -5 0 -35 -16 -69 -36 -39 -23 -67 -33 -80 -29 -25 8 -60 57 -60 83 0
11 -7 25 -16 32 -19 16 -41 -3 -76 -66 -54 -96 -118 -170 -188 -217 -81 -55
-110 -73 -159 -99 -74 -39 -95 -37 -126 12 -14 22 -30 37 -38 34 -7 -2 -27
-30 -44 -62 -62 -112 -151 -179 -275 -206 -137 -30 -203 -48 -253 -72 -92 -42
-172 -74 -187 -74 -8 0 -23 -9 -33 -20 -10 -11 -26 -20 -36 -20 -10 0 -30 -10
-46 -23 -15 -12 -53 -39 -83 -58 -54 -36 -148 -120 -166 -150 -5 -8 -22 -25
-38 -37 -27 -21 -39 -22 -198 -22 -144 0 -174 -3 -206 -19 -20 -10 -52 -21
-70 -24 -19 -4 -45 -16 -59 -27 -14 -11 -33 -20 -43 -20 -9 0 -27 -11 -40 -25
-13 -14 -28 -25 -34 -25 -6 0 -36 -18 -66 -40 -30 -22 -66 -45 -80 -52 -14 -6
-32 -17 -40 -24 -31 -25 -167 -64 -223 -64 -51 0 -58 3 -78 31 -16 23 -19 33
-10 42 22 22 12 56 -21 73 -32 17 -32 17 -59 -16 -16 -18 -53 -43 -86 -57 -52
-22 -79 -25 -263 -33 -113 -5 -240 -16 -283 -25 -159 -31 -306 -14 -436 52
-39 20 -61 39 -80 71 -58 99 -48 99 -148 -3 -60 -62 -105 -98 -141 -115 l-53
-24 -62 23 c-34 12 -78 33 -97 46 -71 50 -150 136 -150 164 0 36 55 124 131
206 45 50 105 119 134 155 65 81 167 264 159 285 -11 29 -60 17 -116 -28 -63
-50 -151 -97 -183 -97 -12 0 -33 -9 -47 -19 -13 -11 -42 -23 -64 -26 -21 -4
-52 -15 -69 -25 -16 -10 -50 -21 -74 -25 -24 -4 -62 -16 -85 -26 -23 -10 -53
-19 -68 -19 -15 0 -49 -8 -75 -19 -32 -13 -89 -21 -173 -26 l-126 -7 -61 34
c-40 22 -76 53 -104 88 -24 30 -60 73 -81 95 -21 21 -49 61 -63 87 -14 27 -63
86 -108 133 -74 76 -87 85 -119 85 -43 0 -54 -19 -34 -58 18 -35 38 -141 29
-156 -4 -6 -18 -23 -32 -38 -23 -25 -33 -28 -89 -28 -78 0 -95 12 -238 158
-110 113 -119 128 -223 365 -31 70 -29 150 5 195 38 49 94 72 145 60 46 -12
69 1 69 39 0 46 -9 55 -129 130 -45 28 -97 53 -111 53 -6 0 -23 9 -38 19 -15
11 -48 22 -74 26 -26 3 -72 15 -102 26 -31 10 -63 19 -72 19 -9 0 -33 8 -53
18 -20 10 -67 34 -105 53 -53 26 -94 60 -181 147 -62 61 -117 112 -123 112 -6
0 -18 -7 -26 -16z"/>
</g>
</svg>
