<?xml version="1.0" standalone="no"?>
<!DOCTYPE svg PUBLIC "-//W3C//DTD SVG 20010904//EN"
 "http://www.w3.org/TR/2001/REC-SVG-20010904/DTD/svg10.dtd">
<svg version="1.0" xmlns="http://www.w3.org/2000/svg"
 width="1080.000000pt" height="1080.000000pt" viewBox="0 0 1080.000000 1080.000000"
 preserveAspectRatio="xMidYMid meet">
<metadata>
Created by potrace 1.16, written by Peter Selinger 2001-2019
</metadata>
<g transform="translate(0.000000,1080.000000) scale(0.100000,-0.100000)"
fill="#006400" stroke="none">
<path d="M1710 5395 l0 -4475 3905 0 3905 0 0 4475 0 4475 -3905 0 -3905 0 0
-4475z m7775 0 l0 -4440 -3870 0 -3870 0 -3 4430 c-1 2437 0 4436 3 4443 3 10
783 12 3872 10 l3868 -3 0 -4440z"/>
<path d="M5475 9800 c-4 -6 7 -34 24 -61 37 -59 37 -59 11 -59 -11 0 -20 -4
-20 -8 0 -19 133 -113 254 -181 71 -39 143 -81 160 -93 105 -72 174 -132 229
-198 33 -41 52 -68 40 -60 -107 77 -162 110 -271 161 -120 57 -171 69 -179 43
-2 -6 44 -46 102 -89 57 -43 110 -85 117 -94 15 -18 22 -22 -107 61 -216 140
-427 202 -815 242 -238 25 -284 34 -440 91 -196 71 -280 98 -286 92 -17 -16
16 -64 75 -111 140 -112 229 -160 431 -234 213 -78 340 -135 327 -148 -2 -2
-44 10 -93 26 -170 58 -284 74 -529 74 -121 1 -317 -3 -435 -8 -190 -8 -225
-7 -293 8 -43 10 -85 15 -93 12 -8 -3 -14 -19 -14 -39 0 -64 58 -99 300 -182
88 -30 168 -59 178 -65 15 -10 15 -11 -3 -5 -63 21 -196 45 -304 54 -149 13
-253 39 -354 87 -108 51 -144 54 -200 16 -24 -17 -47 -39 -51 -48 -12 -31 81
-203 211 -391 36 -51 60 -93 53 -93 -29 0 -107 52 -128 85 l-24 37 -22 -21
c-13 -12 -40 -26 -60 -32 -44 -12 -55 -44 -33 -97 8 -20 36 -85 61 -144 69
-164 103 -282 136 -468 17 -94 31 -174 33 -178 1 -5 -14 -23 -35 -40 -34 -31
-68 -101 -68 -143 0 -10 12 -27 27 -39 l27 -21 1 -262 c0 -247 2 -269 27 -389
36 -166 71 -273 107 -329 23 -37 53 -61 144 -118 64 -39 128 -86 142 -103 15
-17 66 -111 115 -207 48 -97 117 -223 152 -281 l63 -105 -24 -82 -25 -81 -93
-7 c-52 -4 -95 -6 -97 -4 -1 2 -24 37 -50 77 -72 110 -150 147 -249 118 -66
-19 -102 -56 -117 -121 -17 -71 -17 -280 -1 -418 11 -89 11 -121 3 -129 -17
-17 -50 18 -95 101 -50 93 -67 176 -67 341 0 109 -4 143 -19 175 -30 66 -52
80 -140 83 -70 3 -80 0 -128 -28 -31 -17 -65 -48 -80 -72 -26 -39 -28 -48 -26
-144 2 -153 44 -333 114 -492 l29 -67 -35 40 c-49 54 -106 177 -145 310 -46
158 -75 195 -157 195 -54 0 -115 -67 -142 -156 -41 -130 -19 -320 53 -469 52
-107 203 -329 281 -413 l56 -60 -22 -64 c-34 -98 -30 -161 20 -308 24 -69 56
-146 73 -172 54 -86 187 -189 288 -224 123 -43 270 -37 375 15 66 33 187 131
249 202 74 84 121 216 133 367 4 56 12 91 23 105 17 20 18 20 43 4 55 -36 231
-341 272 -470 49 -154 58 -400 20 -542 -10 -35 -14 -77 -11 -102 5 -39 -8 -69
-169 -400 -186 -382 -217 -429 -293 -454 -101 -32 -176 -91 -192 -149 -14 -53
-65 -94 -149 -120 -38 -12 -93 -37 -123 -54 -57 -35 -78 -72 -95 -170 l-8 -49
-175 -93 c-192 -103 -229 -134 -283 -239 -30 -56 -32 -67 -32 -165 0 -128 15
-162 79 -191 58 -25 240 -52 356 -53 80 0 107 5 170 28 103 39 183 80 223 116
38 33 90 124 107 189 6 25 27 60 48 83 l37 40 27 -21 c30 -24 70 -27 87 -8 18
23 43 138 37 172 -4 19 -3 36 2 38 4 3 88 19 186 36 119 21 190 38 212 51 24
15 47 48 85 123 58 113 89 147 263 290 163 133 265 206 526 378 215 141 389
240 422 239 7 -1 42 -44 78 -98 52 -78 70 -98 92 -100 38 -5 53 25 74 140 l17
98 49 0 c27 0 59 -5 71 -12 42 -22 164 -155 176 -191 7 -20 30 -64 53 -98 37
-58 41 -71 49 -159 4 -52 8 -103 9 -112 0 -9 9 -20 20 -23 12 -4 20 -15 20
-29 0 -51 104 -96 223 -96 64 0 82 -4 133 -31 32 -17 79 -42 104 -55 87 -46
179 -48 334 -8 156 41 196 100 122 182 -39 43 -200 125 -299 152 -45 12 -63
22 -65 36 -5 26 -39 61 -84 87 -42 23 -45 29 -22 48 17 14 44 62 44 79 0 6
-18 28 -40 47 -22 20 -40 45 -40 57 0 11 43 95 95 187 68 120 95 176 95 200 0
23 -51 140 -155 359 l-155 325 83 13 c112 17 188 43 346 118 93 45 146 64 173
64 121 0 177 103 144 269 -8 41 -7 43 10 36 92 -37 211 4 244 85 l12 30 72 -6
c39 -3 125 -16 191 -29 235 -47 359 -60 428 -46 124 25 171 82 172 209 0 73 0
73 -41 112 -54 50 -89 59 -259 70 -143 9 -185 16 -185 30 0 16 103 98 157 126
85 42 87 50 74 206 -7 72 -14 135 -17 140 -3 4 8 10 23 13 49 11 92 34 108 59
9 13 21 64 27 113 10 79 9 96 -10 171 -12 46 -30 95 -40 110 -18 27 -17 35 74
682 104 736 113 816 92 843 -13 17 -66 22 -613 53 -330 19 -600 36 -601 37 -1
1 2 43 7 92 12 120 12 461 0 505 -68 257 -71 274 -71 356 0 46 -4 84 -8 84
-15 0 -40 -34 -44 -60 -2 -14 -7 8 -11 48 -7 76 -55 238 -89 307 -53 105 -178
260 -252 313 -38 27 -47 31 -52 18 -4 -10 19 -43 68 -96 105 -114 135 -168
148 -264 6 -43 9 -80 7 -82 -2 -3 -12 17 -22 43 -32 85 -112 236 -164 309 -58
83 -148 168 -276 259 -180 130 -355 202 -707 295 -283 75 -280 74 -418 206
-72 70 -121 110 -125 104z m-827 -319 c138 -35 400 -92 527 -116 208 -38 450
-109 580 -170 39 -18 142 -87 230 -154 88 -67 165 -119 173 -116 7 3 27 -2 43
-11 68 -35 55 -11 -90 156 l-44 51 83 -48 c45 -26 110 -72 145 -100 58 -49 85
-63 85 -46 0 13 -75 141 -131 224 -82 120 -147 180 -269 250 -119 68 -115 68
105 8 225 -61 292 -86 419 -155 162 -88 218 -127 301 -206 69 -65 84 -88 279
-418 20 -35 20 -35 -33 12 -71 64 -135 82 -189 54 -99 -52 -148 -185 -139
-376 l6 -115 -65 128 c-58 114 -84 151 -84 115 0 -7 9 -62 20 -122 11 -60 18
-111 16 -113 -2 -2 -83 96 -180 219 -96 123 -187 237 -201 255 -34 42 -126 87
-160 79 -61 -16 -78 -99 -42 -206 15 -40 22 -69 18 -64 -5 5 -57 79 -117 164
-252 363 -282 394 -490 498 -147 74 -277 119 -494 173 -142 35 -217 59 -275
89 -89 45 -164 89 -152 90 5 0 61 -13 125 -29z m-478 -312 c588 -3 814 -40
1105 -179 190 -90 265 -139 379 -248 80 -77 156 -198 371 -596 l48 -89 -193
199 c-319 328 -495 499 -533 517 -19 10 -62 20 -94 23 -48 5 -62 3 -77 -11
-24 -24 -15 -58 53 -190 31 -60 58 -114 60 -119 2 -5 -61 49 -139 120 -187
169 -253 216 -442 312 -235 119 -284 135 -571 187 -275 49 -334 62 -344 78 -4
7 26 8 88 4 52 -4 182 -7 289 -8z m-767 -109 c111 -65 233 -97 427 -111 144
-10 371 -41 442 -60 21 -5 76 -28 124 -49 51 -24 95 -38 105 -35 14 5 47 -17
119 -79 56 -47 97 -86 91 -86 -5 0 -106 38 -225 85 -118 47 -224 85 -235 85
-31 0 -121 -23 -121 -30 0 -4 18 -20 40 -35 22 -15 40 -29 40 -31 0 -3 -130
43 -215 76 -77 29 6 -16 155 -84 183 -85 153 -62 462 -364 87 -84 152 -150
146 -146 -6 4 -117 84 -247 177 -199 144 -259 182 -386 243 -163 78 -318 137
-349 132 -11 -2 -21 -8 -23 -14 -6 -19 86 -123 164 -185 46 -36 67 -59 56 -59
-24 0 -230 100 -295 144 -29 19 -80 68 -113 108 -33 40 -113 135 -179 212 -90
105 -115 140 -105 147 23 14 34 11 122 -41z m1 -469 c97 -60 136 -78 207 -96
113 -29 181 -76 349 -240 85 -82 177 -168 203 -189 76 -62 82 -80 57 -183 -11
-47 -28 -111 -37 -142 l-16 -55 -32 104 c-50 165 -64 185 -219 317 -151 129
-151 129 -139 113 6 -8 53 -71 105 -140 98 -130 133 -191 144 -250 6 -31 -3
-22 -74 70 -44 58 -102 129 -129 158 -50 55 -286 262 -291 257 -2 -2 24 -46
57 -99 81 -128 170 -297 143 -271 -11 11 -81 89 -154 172 -126 145 -137 162
-217 318 -47 93 -81 171 -77 180 9 25 53 17 120 -24z m3855 -79 c12 -63 31
-136 41 -163 25 -63 25 -65 -6 -40 -15 12 -30 21 -34 21 -15 0 -30 -53 -31
-108 0 -68 -13 -47 -24 41 -6 47 -3 67 15 113 21 50 22 65 16 157 -4 56 -5 99
-3 97 3 -3 15 -56 26 -118z m-2624 -5 c502 -209 696 -301 861 -407 70 -46 209
-122 308 -171 100 -48 215 -109 256 -136 l76 -50 279 92 c266 87 291 97 503
209 123 65 225 116 227 114 6 -5 43 -341 55 -492 5 -71 10 -299 10 -508 l0
-379 -62 -102 c-71 -117 -168 -315 -198 -402 -11 -33 -27 -105 -36 -160 -18
-127 -34 -175 -100 -305 -61 -122 -112 -187 -226 -288 -112 -99 -223 -173
-413 -277 -271 -149 -425 -245 -618 -383 -28 -21 -41 -23 -107 -20 -71 4 -82
7 -200 72 -280 154 -542 323 -712 458 -209 166 -379 397 -561 762 -104 208
-133 244 -261 323 -121 74 -133 86 -171 168 -88 191 -137 585 -107 852 15 130
47 186 120 208 52 15 170 -162 211 -316 11 -41 27 -123 36 -184 30 -203 47
-279 82 -375 72 -194 98 -239 127 -210 7 7 13 101 17 253 8 296 18 344 128
610 76 184 149 484 130 535 -13 35 -59 82 -204 210 -66 58 -113 103 -105 100
165 -61 378 -120 641 -178 172 -38 314 -68 315 -67 1 1 -113 121 -254 266
-142 146 -250 262 -242 259 8 -3 96 -40 195 -81z m2763 -432 c7 -14 12 -52 12
-83 1 -31 9 -102 19 -157 17 -87 18 -115 8 -233 -11 -141 -20 -151 -32 -38 -4
38 -10 78 -14 89 -7 18 -9 17 -33 -11 -14 -17 -30 -55 -38 -91 -7 -34 -16 -64
-20 -66 -4 -2 -12 46 -19 106 l-13 111 30 32 c57 59 72 107 72 244 0 67 4 122
8 122 5 0 14 -11 20 -25z m647 -771 c402 -23 624 -39 633 -47 11 -8 13 -26 8
-67 -10 -90 -186 -1353 -191 -1377 -5 -21 -6 -21 -37 -5 -21 11 -55 16 -95 15
-55 -1 -63 2 -63 18 0 10 -6 24 -13 30 -7 7 -11 25 -9 40 9 64 -57 139 -156
175 -61 23 -61 21 -28 48 25 19 30 32 34 80 4 53 9 62 52 106 58 57 99 134
107 200 5 43 8 47 23 38 26 -17 69 -2 76 27 7 30 -11 87 -35 109 -33 30 -61
24 -95 -19 -17 -22 -63 -71 -103 -110 l-71 -70 -22 52 c-12 29 -40 81 -62 115
-23 35 -53 90 -68 123 -15 34 -35 69 -44 78 -24 24 -77 21 -117 -6 -31 -21
-35 -29 -42 -91 -10 -80 -5 -99 24 -94 33 5 46 32 32 68 -9 25 -8 34 6 51 14
18 21 20 38 11 40 -22 34 -56 -17 -107 -26 -25 -62 -73 -81 -106 l-33 -60 -15
28 c-8 15 -29 46 -46 68 -18 22 -42 59 -54 82 -20 40 -46 63 -70 63 -6 0 -29
-16 -51 -36 -29 -26 -40 -44 -40 -65 0 -37 32 -56 66 -40 l24 11 0 -83 c1 -94
14 -139 58 -194 28 -36 30 -42 25 -104 -4 -44 -2 -69 6 -73 6 -4 11 -14 11
-22 0 -10 -13 -14 -48 -14 -36 0 -60 -7 -93 -28 -55 -35 -99 -86 -99 -115 0
-13 -9 -26 -22 -32 -44 -19 -31 -85 16 -85 27 0 46 18 46 42 0 13 8 18 26 18
14 0 34 5 45 11 11 5 28 9 37 7 11 -2 0 -15 -35 -40 -69 -50 -86 -85 -87 -178
-1 -57 -5 -79 -18 -92 -33 -33 -16 -78 27 -78 27 0 45 18 45 45 0 15 10 25 35
34 28 10 40 24 62 69 24 48 33 58 58 60 44 5 55 -18 55 -121 l0 -89 40 -41
c23 -22 37 -43 32 -46 -16 -11 -22 -42 -12 -62 11 -19 35 -24 64 -13 18 7 22
54 6 70 -7 7 6 18 41 35 62 29 79 60 79 148 0 53 3 62 27 81 36 28 61 22 86
-21 l21 -36 -36 -35 c-108 -108 -115 -293 -17 -428 17 -23 29 -43 27 -44 -87
-55 -163 -141 -175 -198 -4 -20 -12 -28 -26 -28 -33 0 -699 90 -708 96 -16 9
-10 96 36 562 24 252 58 617 74 812 29 341 75 810 86 878 6 32 6 32 63 32 31
0 336 -16 677 -36z m-845 -831 c-11 -136 -46 -501 -75 -810 -30 -310 -55 -569
-55 -577 0 -32 35 -56 94 -66 32 -5 61 -11 63 -14 3 -2 -3 -16 -12 -30 -17
-26 -17 -75 1 -148 l6 -27 -88 4 -89 4 -92 -50 c-50 -27 -117 -56 -149 -64
l-58 -15 -34 33 c-18 17 -41 32 -50 32 -9 0 -41 26 -71 57 -52 56 -54 59 -48
103 7 44 6 46 -29 62 -24 12 -34 23 -33 38 5 68 -25 85 -171 95 -118 9 -253
37 -245 50 3 5 54 35 113 66 219 117 393 244 525 384 121 129 212 324 237 512
6 45 23 117 37 158 41 122 225 472 239 457 3 -3 -4 -117 -16 -254z m633 -77
l45 -43 21 28 c17 23 29 29 59 29 65 0 77 -17 76 -104 -1 -42 1 -76 5 -76 3 0
15 7 25 15 33 25 41 18 38 -30 -3 -34 -10 -50 -27 -61 -13 -8 -28 -33 -34 -57
-8 -31 -34 -66 -95 -132 -77 -82 -86 -89 -120 -88 -54 2 -75 21 -136 119 -43
71 -55 100 -58 142 -3 29 -8 55 -13 58 -14 8 -10 68 5 90 14 19 15 19 40 -5
l26 -24 0 67 c0 58 3 70 25 91 36 37 66 32 118 -19z m-239 -262 c9 -3 16 -15
16 -26 0 -12 26 -65 57 -119 61 -106 101 -139 164 -139 29 0 46 13 126 94 51
51 97 105 102 119 10 26 11 26 52 12 98 -35 149 -88 149 -156 0 -55 -42 -66
-92 -24 -34 29 -50 31 -67 11 -16 -19 -2 -47 46 -97 l35 -36 -64 -35 -63 -35
-23 39 c-28 46 -66 51 -108 15 -24 -21 -28 -33 -33 -106 -7 -92 -11 -98 -87
-127 -41 -16 -44 -16 -78 6 -41 25 -44 35 -50 146 -4 96 -15 120 -56 129 -40
9 -57 -6 -86 -72 -24 -54 -46 -68 -95 -61 -22 3 -24 8 -27 70 -4 90 13 126 82
177 31 23 56 46 56 51 0 14 -53 13 -84 -1 -13 -6 -36 -9 -50 -5 -21 5 -26 12
-26 39 0 71 135 157 204 131z m837 -344 c54 -15 87 -57 111 -141 16 -59 19
-90 15 -154 -10 -143 -29 -163 -165 -176 -110 -11 -142 -22 -193 -64 -22 -19
-56 -39 -74 -44 -71 -19 -111 10 -151 108 -71 175 -7 313 190 414 119 60 196
77 267 57z m-5183 -21 c18 -6 41 -26 54 -47 21 -34 23 -49 24 -197 2 -126 6
-174 21 -227 21 -72 103 -212 130 -222 12 -5 6 -13 -28 -35 -45 -29 -103 -86
-133 -131 -32 -48 -15 -40 40 19 31 33 82 76 114 96 74 45 84 68 70 160 -27
187 -22 426 11 497 15 35 61 59 122 64 81 8 117 -19 204 -149 l71 -107 -29 0
c-31 0 -82 -22 -111 -48 -34 -29 -17 -30 36 -1 45 24 61 28 95 23 48 -8 78
-34 40 -34 -27 0 -115 -38 -107 -45 3 -3 18 -1 34 4 16 5 52 12 80 15 48 4 55
2 93 -31 45 -38 71 -80 71 -113 0 -43 -121 -127 -198 -137 -47 -6 -154 21
-209 53 -44 25 -74 67 -104 142 l-18 47 -1 -41 c0 -28 10 -56 34 -96 l33 -56
-48 -41 c-31 -27 -60 -65 -83 -112 -42 -83 -43 -92 -15 -120 20 -20 20 -20 52
-1 61 38 172 91 202 97 27 5 26 4 -10 -16 -22 -11 -53 -33 -70 -48 -18 -17
-52 -32 -83 -39 -79 -18 -155 -57 -216 -113 -58 -52 -116 -132 -116 -158 0 -8
13 5 28 30 37 57 132 143 191 173 42 22 143 56 163 56 11 0 -18 -69 -40 -93
-9 -11 -36 -28 -59 -38 -73 -31 -93 -88 -69 -193 9 -37 23 -79 32 -94 l15 -27
-6 35 c-34 205 -31 228 38 255 55 22 81 47 102 98 9 23 23 56 30 73 16 38 112
88 165 87 59 -2 142 -36 286 -118 124 -71 135 -79 119 -91 -29 -21 -63 -17
-121 16 -46 27 -154 53 -154 38 0 -3 26 -15 59 -27 80 -29 90 -43 51 -71 -28
-20 -38 -21 -158 -16 l-127 6 80 -20 c45 -11 109 -19 145 -18 l65 2 23 -80
c32 -109 26 -144 -35 -207 -65 -67 -153 -123 -232 -148 -84 -27 -369 -38 -477
-20 -107 19 -247 108 -406 259 -86 82 -255 322 -314 445 -45 96 -67 215 -62
337 3 81 8 104 33 154 37 74 87 106 135 86 41 -17 52 -37 100 -190 56 -179 95
-252 180 -334 37 -36 73 -66 80 -66 6 0 10 3 8 8 -124 242 -170 391 -185 591
-8 113 0 150 40 191 60 62 150 85 225 59z m5155 -509 c4 -16 9 -83 13 -148 l7
-119 -70 -37 c-75 -40 -164 -123 -216 -201 -53 -82 -156 -120 -214 -80 -30 21
-53 100 -60 205 -7 102 4 132 72 208 53 59 109 92 154 92 40 0 77 15 115 47
45 38 105 63 152 63 38 0 42 -2 47 -30z m-3836 -149 c57 -35 114 -161 79 -174
-9 -4 -16 -17 -16 -30 0 -60 -80 -61 -204 -4 -88 41 -111 71 -76 99 46 37 127
19 213 -48 54 -42 58 -43 38 -15 -12 17 -26 33 -32 36 -14 9 -59 102 -59 123
0 36 13 39 57 13z m2792 -119 l44 -7 4 -55 c8 -104 91 -246 211 -362 79 -78
112 -98 158 -98 32 0 30 -13 -10 -57 -30 -33 -39 -37 -95 -41 -51 -4 -70 0
-114 21 -105 52 -173 130 -255 294 -36 70 -82 205 -82 238 0 5 9 25 20 43 21
34 33 37 119 24z m270 -37 c101 -14 186 -25 190 -25 4 0 12 -40 18 -89 21
-162 64 -218 162 -209 60 6 118 45 158 107 l33 49 46 -14 c26 -8 79 -14 118
-14 96 0 203 -17 246 -38 52 -25 83 -77 77 -129 -7 -68 -46 -135 -91 -157 -80
-39 -188 -33 -501 29 -66 13 -169 26 -229 29 -60 4 -120 13 -135 20 -55 29
-195 188 -239 274 -42 79 -69 192 -46 192 5 0 92 -11 193 -25z m-2899 -61 c31
-26 51 -58 64 -101 6 -19 3 -23 -12 -23 -11 0 -25 -6 -31 -14 -11 -13 -15 -12
-29 2 -9 10 -22 31 -27 47 -8 22 -18 31 -38 33 -16 2 -27 6 -24 10 2 4 9 22
16 40 16 39 39 41 81 6z m-114 -70 c67 -19 70 -38 12 -82 -37 -28 -49 -32
-105 -32 -55 0 -64 3 -79 25 -23 36 -14 57 36 83 53 26 65 27 136 6z m271 -40
c88 -38 147 -101 122 -130 -20 -24 -57 -16 -102 24 -76 67 -87 75 -87 63 0 -6
25 -38 55 -71 47 -51 55 -66 55 -99 0 -47 -21 -70 -47 -50 -77 57 -121 121
-125 180 -2 26 1 34 17 37 31 6 56 33 49 54 -7 23 -6 23 63 -8z m540 -20 c15
-9 24 -28 28 -58 4 -25 13 -51 21 -57 17 -14 48 -3 41 15 -14 36 -19 106 -7
106 6 0 10 -5 8 -12 -3 -7 22 -68 54 -136 51 -107 94 -229 85 -239 -2 -1 -33
41 -69 95 -108 158 -144 183 -239 167 -45 -8 -44 -10 -27 81 l12 64 35 -6 c20
-3 46 -12 58 -20z m-703 -58 c24 -52 21 -121 -6 -140 -48 -34 -104 -10 -108
44 -5 54 1 71 36 110 41 45 51 43 78 -14z m2591 -98 c53 -80 126 -165 170
-198 25 -18 42 -37 39 -41 -2 -5 -52 -45 -110 -90 l-105 -81 -29 27 c-63 60
-135 234 -142 340 l-3 50 60 17 c85 24 89 23 120 -24z m-4020 -368 c85 -42
180 -54 365 -46 204 8 293 33 401 112 27 20 49 31 49 25 0 -30 -65 -133 -124
-198 -76 -82 -129 -112 -256 -144 -150 -38 -285 -13 -433 81 -87 54 -159 135
-201 223 -59 125 -58 126 46 47 51 -39 120 -84 153 -100z m3981 -1887 c131
-59 184 -101 184 -148 0 -52 -163 -109 -315 -109 -84 -1 -94 1 -153 33 -35 19
-68 43 -73 54 -27 49 36 165 110 204 68 35 105 30 247 -34z m-3949 -728 c105
-36 236 -100 277 -135 39 -35 84 -138 93 -211 l6 -48 -58 -26 c-154 -68 -207
-76 -359 -59 -185 22 -235 34 -270 65 -30 27 -31 30 -34 129 -3 78 0 112 13
146 20 52 88 146 113 156 40 16 144 8 219 -17z"/>
<path d="M4446 7634 c-3 -8 -1 -24 4 -34 16 -30 227 -166 458 -294 139 -78
212 -124 212 -135 0 -9 3 -26 6 -38 l6 -23 -38 17 c-27 12 -65 17 -122 16 -74
0 -90 -4 -156 -36 -45 -23 -90 -54 -116 -83 l-42 -46 -27 21 c-43 35 -70 46
-83 33 -7 -7 -4 -20 13 -44 18 -26 12 -23 -34 20 -30 28 -65 52 -75 52 -39 0
-32 -29 23 -97 37 -46 90 -139 165 -290 76 -151 124 -237 154 -270 69 -77 218
-143 322 -143 54 0 97 15 160 57 49 31 53 32 79 19 41 -21 49 -10 20 28 -14
18 -25 44 -25 57 l1 24 20 -27 c23 -32 59 -38 59 -10 0 9 -13 45 -30 80 -16
34 -28 62 -26 62 1 0 24 -31 50 -69 59 -85 108 -105 91 -38 -8 29 5 33 107 43
l67 7 21 68 c11 38 23 82 26 99 11 51 -21 37 -58 -26 -36 -61 -57 -80 -80 -72
-8 4 -63 147 -132 349 -65 189 -128 362 -140 384 l-21 40 -265 90 c-149 51
-327 120 -407 158 -149 70 -177 78 -187 51z"/>
<path d="M3503 7483 c-13 -47 -9 -226 5 -248 11 -17 12 -8 6 56 -6 79 2 179
15 179 12 0 97 -187 116 -254 15 -53 16 -72 5 -186 -15 -147 -7 -209 39 -312
16 -35 32 -77 35 -95 8 -35 29 -49 45 -29 9 10 0 33 -33 91 -63 111 -70 148
-62 340 8 187 3 212 -85 386 -51 103 -73 120 -86 72z"/>
<path d="M4214 6960 c-17 -7 -22 -22 -32 -96 -10 -77 -10 -91 3 -100 10 -7 15
-28 15 -58 0 -35 4 -46 16 -46 11 0 14 -6 8 -22 -57 -179 -42 -436 36 -634
102 -257 229 -424 485 -637 195 -163 269 -214 442 -300 153 -76 169 -82 237
-85 l73 -4 154 79 c85 44 213 119 284 167 72 48 177 110 234 137 124 60 210
117 272 180 41 42 95 119 84 119 -2 0 -45 -31 -96 -70 -50 -38 -93 -70 -96
-70 -2 0 22 30 54 68 32 37 72 90 89 117 17 28 58 93 90 145 l59 95 5 -35 6
-35 32 63 c18 34 39 88 46 120 8 31 15 49 15 40 1 -25 16 -22 40 8 27 34 30
153 5 178 -21 22 -31 20 -99 -18 -59 -32 -73 -51 -61 -83 6 -14 9 -14 29 2 12
10 -4 -7 -36 -38 -103 -101 -232 -177 -339 -201 -218 -49 -550 -58 -658 -18
-229 84 -301 107 -467 152 -286 77 -354 118 -516 312 -89 107 -246 319 -296
401 -22 36 -16 52 9 22 27 -32 74 -7 53 28 -9 17 -109 99 -138 114 -11 6 -29
7 -41 3z m397 -718 c16 -32 19 -52 15 -80 -4 -20 -10 -59 -13 -85 -5 -45 -6
-47 -22 -33 -9 9 -37 26 -61 39 -45 23 -45 24 -67 116 -12 50 -24 129 -28 174
l-6 82 80 -85 c45 -47 90 -104 102 -128z m153 -106 c23 -19 58 -41 78 -49 48
-20 61 -47 63 -137 2 -41 6 -96 10 -121 7 -44 6 -46 -24 -58 -27 -12 -33 -11
-62 12 -32 25 -32 26 -33 115 -1 79 -4 94 -24 119 -13 15 -28 40 -35 56 -13
31 -27 36 -27 8 0 -11 14 -33 30 -49 28 -28 30 -36 30 -104 0 -83 -4 -92 -44
-108 -66 -25 -85 10 -93 169 l-6 116 31 33 c16 17 38 32 47 32 10 0 37 -15 59
-34z m-193 -109 c23 -19 28 -34 37 -112 l11 -90 -29 -25 c-15 -14 -35 -40 -44
-57 -18 -35 -29 -39 -71 -23 -26 10 -63 77 -78 141 -9 34 17 68 63 83 27 9 36
18 41 42 14 72 27 79 70 41z m532 -38 c23 -12 75 -55 115 -95 l74 -73 -6 -113
c-10 -171 -14 -196 -36 -203 -21 -7 -151 44 -201 78 -18 12 -40 33 -50 47 -24
31 -58 164 -66 250 l-6 66 37 32 c44 38 79 41 139 11z m457 -148 c92 -48 102
-64 90 -151 -12 -84 -58 -242 -73 -253 -16 -11 -160 -1 -222 16 l-50 14 2 144
c3 145 14 231 35 256 7 8 34 13 77 13 57 0 76 -5 141 -39z m700 -43 c0 -33
-44 -121 -106 -215 -59 -89 -76 -103 -123 -103 -63 0 -63 4 4 118 69 117 97
151 164 194 54 34 61 35 61 6z m-1542 -4 c43 5 53 3 85 -21 20 -16 35 -31 34
-35 -1 -4 -33 -44 -71 -88 -61 -72 -72 -80 -103 -80 -45 0 -113 63 -113 104 0
37 23 78 61 110 24 21 34 24 45 15 9 -7 31 -9 62 -5z m1322 -22 c20 -10 36
-26 38 -37 2 -12 -33 -78 -81 -155 l-83 -135 -139 -3 c-76 -1 -142 1 -147 6
-6 6 -2 37 10 78 11 38 25 90 30 115 12 59 56 117 107 141 34 16 54 18 135 13
56 -4 109 -13 130 -23z m-1052 -169 c29 -41 179 -115 238 -119 29 -1 48 -9 67
-28 14 -14 36 -26 49 -26 48 0 50 -9 32 -116 -25 -150 -53 -190 -130 -187 -61
2 -121 33 -187 98 -72 71 -74 97 -16 204 22 40 38 76 35 79 -3 2 -27 -30 -53
-72 -40 -64 -53 -77 -81 -82 -18 -4 -45 -1 -60 5 -40 17 -161 141 -164 169 -4
33 126 197 172 216 l35 14 20 -62 c11 -33 30 -76 43 -93z m977 -194 c9 -17 15
-42 13 -57 -2 -22 -10 -29 -42 -37 -36 -9 -40 -7 -67 23 -16 18 -29 39 -29 47
0 8 -4 15 -10 15 -13 0 -12 -10 5 -40 19 -33 19 -84 0 -120 -20 -39 -103 -68
-144 -50 -32 13 -41 43 -41 143 0 31 -4 57 -10 57 -6 0 -10 -45 -10 -114 0
-63 -3 -122 -6 -131 -11 -28 -60 -45 -131 -45 -120 0 -128 17 -96 208 l17 102
86 0 c47 0 90 4 96 9 5 6 33 5 69 -1 76 -12 241 -6 257 10 18 18 26 15 43 -19z"/>
<path d="M6371 6890 c-38 -45 -439 -376 -446 -368 -2 2 5 28 15 58 23 65 25
119 7 145 -20 26 -34 12 -42 -43 -3 -26 -19 -78 -34 -117 l-29 -70 23 -12 c12
-7 25 -23 29 -37 3 -13 18 -39 33 -56 23 -28 25 -35 14 -52 -18 -29 0 -45 34
-30 32 15 32 8 -5 -38 -16 -21 -30 -43 -30 -48 0 -23 20 -21 49 4 l31 26 45
-41 c53 -48 76 -56 179 -56 64 1 72 -1 45 -8 -32 -9 -121 -4 -183 10 -22 4
-28 3 -24 -8 7 -22 88 -48 154 -48 124 -2 205 41 344 179 125 125 168 158 228
171 33 6 52 16 52 25 0 20 -46 28 -81 14 -36 -15 -39 -13 -32 22 4 24 23 37
124 90 83 43 119 67 119 79 0 30 -16 30 -109 -1 -105 -36 -141 -33 -141 9 0
26 3 27 158 65 86 21 175 47 197 58 40 19 103 84 92 94 -3 3 -162 10 -354 15
-191 4 -364 11 -383 14 -34 6 -39 3 -79 -45z"/>
<path d="M5690 6280 c-12 -8 -10 -10 8 -10 24 0 24 -1 20 -104 -2 -85 -6 -108
-22 -125 -32 -35 -64 -27 -116 29 -40 43 -51 50 -84 50 l-39 0 7 46 c5 41 4
45 -10 34 -10 -9 -14 -27 -12 -54 3 -40 4 -41 47 -47 34 -4 50 -13 72 -40 16
-19 29 -37 29 -40 1 -29 137 -36 163 -9 9 9 6 10 -15 5 -31 -8 -35 0 -13 29
11 14 15 47 15 117 0 127 -8 146 -50 119z"/>
<path d="M7708 6124 c-9 -8 7 -57 33 -104 29 -50 69 -66 125 -48 31 10 46 24
72 68 17 30 31 59 29 64 -5 15 -83 10 -108 -8 -23 -16 -25 -16 -39 1 -8 10
-26 18 -40 19 -14 0 -34 3 -46 7 -11 4 -23 5 -26 1z"/>
</g>
</svg>
