<?xml version="1.0" standalone="no"?>
<!DOCTYPE svg PUBLIC "-//W3C//DTD SVG 20010904//EN"
 "http://www.w3.org/TR/2001/REC-SVG-20010904/DTD/svg10.dtd">
<svg version="1.0" xmlns="http://www.w3.org/2000/svg"
 width="1080.000000pt" height="1080.000000pt" viewBox="0 0 1080.000000 1080.000000"
 preserveAspectRatio="xMidYMid meet">
<metadata>
Created by potrace 1.16, written by Peter Selinger 2001-2019
</metadata>
<g transform="translate(0.000000,1080.000000) scale(0.100000,-0.100000)"
fill="#aa6c39" stroke="none">
<path d="M9558 9573 c-8 -10 -48 -74 -88 -143 -203 -348 -488 -700 -820 -1014
-52 -50 -101 -99 -109 -110 -17 -22 -24 -23 139 18 144 37 215 54 281 66 94
18 139 55 204 164 150 255 273 544 360 844 20 68 43 135 52 148 20 31 4 54
-19 27z"/>
<path d="M3177 9438 c-14 -29 -32 -73 -41 -98 -8 -25 -22 -63 -31 -85 -9 -22
-18 -47 -21 -55 -3 -8 -15 -40 -27 -70 l-22 -55 -49 0 c-41 0 -52 -4 -69 -27
-18 -24 -19 -31 -8 -52 7 -13 31 -31 52 -39 35 -14 43 -25 41 -57 0 -8 -21
-199 -33 -308 l-12 -102 32 -63 c66 -127 206 -357 219 -357 15 0 15 4 -3 63
-18 60 -52 254 -65 372 -14 132 -12 481 5 620 12 100 30 199 62 343 9 38 -4
25 -30 -30z"/>
<path d="M2520 8432 c0 -161 99 -690 147 -787 8 -16 32 -47 52 -68 40 -43 193
-157 210 -157 14 0 14 27 1 35 -15 9 -101 185 -144 295 -21 52 -43 109 -50
125 -7 17 -55 157 -106 313 -51 155 -97 282 -101 282 -5 0 -9 -17 -9 -38z"/>
<path d="M9430 8120 c-294 -274 -491 -442 -623 -530 -69 -47 -128 -90 -131
-96 -5 -12 71 -145 97 -171 14 -14 24 -9 104 52 85 65 346 320 378 369 13 20
14 28 4 44 -13 21 14 59 259 359 51 63 92 119 90 125 -2 6 -82 -63 -178 -152z"/>
<path d="M5820 7779 c0 -6 13 -29 28 -52 16 -23 58 -89 94 -147 154 -248 201
-331 192 -339 -5 -4 -369 -5 -809 -1 -440 3 -813 3 -828 0 -52 -10 -33 -24 48
-36 264 -40 437 -47 1218 -51 441 -3 767 0 767 5 0 4 -104 100 -232 213 -128
112 -285 252 -349 312 -65 59 -120 107 -123 107 -3 0 -6 -5 -6 -11z"/>
<path d="M6680 7721 c0 -6 11 -34 25 -63 13 -29 48 -111 75 -183 90 -230 179
-399 291 -556 116 -163 162 -193 95 -62 -19 37 -49 100 -66 138 -18 39 -50
107 -72 152 -36 74 -43 113 -21 113 13 0 150 -103 421 -317 274 -216 215 -146
-314 374 -229 224 -420 410 -425 411 -5 2 -9 -1 -9 -7z"/>
<path d="M4399 7573 c-197 -218 -291 -329 -442 -525 -60 -78 -77 -108 -61
-108 3 0 108 98 235 217 249 235 272 254 337 285 42 20 43 21 23 39 -20 18
-19 19 5 96 35 112 37 123 27 123 -5 0 -61 -57 -124 -127z"/>
<path d="M7400 7512 c0 -5 27 -58 61 -118 33 -60 101 -187 151 -284 49 -96 94
-179 99 -184 20 -22 18 6 -7 70 -32 85 -34 107 -12 112 30 6 184 -152 220
-225 29 -59 30 -68 25 -140 -4 -43 -11 -103 -16 -133 -6 -30 -19 -108 -29
-172 -10 -64 -25 -124 -32 -133 -10 -12 -37 -15 -141 -15 -70 0 -130 -4 -133
-9 -3 -5 25 -21 62 -36 142 -58 191 -86 232 -132 89 -101 94 -264 9 -326 -40
-29 -332 -112 -568 -162 -143 -30 -375 -65 -429 -65 -55 0 -107 -17 -142 -47
-41 -34 -35 -53 20 -69 47 -14 74 -11 101 12 16 15 68 25 329 64 80 12 173 28
208 35 54 11 64 11 78 -2 9 -9 13 -26 10 -42 -2 -14 -10 -78 -16 -141 -12
-113 -34 -293 -46 -377 -4 -25 -3 -43 3 -43 5 0 17 19 27 43 27 60 36 70 52
56 11 -9 14 -53 14 -200 0 -104 4 -189 8 -189 13 0 23 27 82 202 28 87 50 163
48 169 -2 7 -19 -14 -37 -46 -29 -51 -34 -56 -48 -43 -13 14 -13 35 1 189 9
96 19 191 22 212 11 71 -25 31 -59 -65 -7 -21 -20 -23 -35 -5 -17 20 10 272
33 296 22 26 95 54 126 49 23 -3 24 -7 29 -103 3 -55 9 -95 13 -88 4 7 16 51
26 98 11 47 26 97 35 110 21 31 62 43 83 23 15 -16 12 -60 -23 -333 -8 -60
-14 -133 -14 -162 0 -49 -2 -53 -24 -53 -13 0 -26 -6 -29 -13 -7 -20 5 -229
13 -220 4 4 15 44 24 88 9 44 23 107 31 140 8 33 26 128 40 210 48 269 74 394
89 423 8 16 38 50 67 74 l51 44 -12 142 c-6 79 -18 159 -26 178 -22 53 -34
592 -13 605 20 13 19 13 79 -42 136 -124 375 -292 683 -478 162 -98 197 -115
181 -89 -5 7 -8 33 -9 58 0 41 -3 45 -30 53 -16 5 -37 13 -45 16 -16 8 -100
141 -171 271 -56 100 -112 190 -121 190 -9 0 23 -94 51 -148 11 -22 21 -48 21
-57 0 -22 -46 -19 -62 4 -7 10 -67 69 -133 131 -66 62 -210 201 -320 310 -221
217 -224 219 -438 295 -137 50 -181 77 -238 152 -40 51 -79 84 -79 65z"/>
<path d="M3966 7425 c-91 -108 -97 -111 -315 -185 -144 -48 -176 -60 -226 -81
-217 -91 -260 -103 -319 -85 -52 16 -189 101 -330 205 -165 121 -156 95 30
-94 66 -66 156 -154 200 -195 90 -83 124 -138 124 -200 0 -23 5 -40 11 -40 6
0 61 33 123 74 151 100 208 129 415 207 164 62 158 55 261 260 50 100 89 186
88 191 -2 6 -30 -20 -62 -57z"/>
<path d="M8378 7234 c-6 -6 25 -83 69 -169 35 -68 96 -129 162 -162 81 -41
563 -303 586 -319 22 -16 45 -18 45 -5 0 5 -52 55 -116 112 -122 110 -295 242
-490 374 -64 44 -146 101 -181 128 -69 51 -67 50 -75 41z"/>
<path d="M5456 6854 c-78 -19 -164 -66 -214 -117 -22 -23 -70 -89 -105 -147
-333 -544 -331 -540 -308 -554 14 -9 318 -40 607 -62 184 -14 344 31 418 118
45 52 70 135 62 203 -13 116 -107 239 -202 265 -58 16 -140 2 -190 -32 -57
-39 -102 -146 -90 -212 14 -74 106 -140 143 -103 13 13 10 18 -28 44 -54 35
-71 67 -65 116 9 77 96 147 185 147 157 0 255 -229 160 -373 -58 -88 -142
-128 -273 -129 -191 -2 -286 69 -352 262 -14 41 -19 85 -19 170 0 101 3 121
23 163 70 141 264 236 424 208 83 -14 152 -50 215 -111 29 -27 60 -50 70 -50
35 0 203 120 203 145 0 30 -22 24 -93 -24 -100 -67 -104 -67 -173 -12 -65 51
-107 72 -179 87 -76 17 -144 16 -219 -2z m-316 -485 c0 -9 20 -76 45 -148 63
-183 65 -174 -47 -165 -217 16 -233 19 -236 34 -1 9 33 70 76 136 44 66 87
134 96 151 8 17 21 33 28 36 16 6 38 -20 38 -44z"/>
<path d="M7121 5909 c-7 -39 -10 -73 -7 -76 5 -5 118 22 256 62 25 7 64 18 88
24 23 7 42 16 42 21 0 4 -30 11 -67 14 -38 3 -107 10 -154 16 -152 18 -143 21
-158 -61z"/>
<path d="M3246 5678 c5 -7 21 -23 36 -36 41 -35 75 -98 103 -192 14 -46 28
-86 31 -89 12 -11 -6 242 -18 256 -12 15 -130 73 -148 73 -6 0 -8 -5 -4 -12z"/>
<path d="M5270 5670 c-89 -7 -75 -16 35 -24 92 -6 439 12 469 24 24 10 -386
10 -504 0z"/>
<path d="M3650 5540 c-21 -13 -2 -42 36 -52 34 -9 328 -58 529 -88 315 -46
370 -62 370 -105 0 -13 16 -28 43 -43 53 -30 122 -100 122 -124 0 -23 -26 -34
-43 -19 -23 18 -217 59 -335 70 -105 10 -240 4 -347 -15 -61 -10 -155 -39
-155 -47 0 -14 109 -172 135 -197 25 -24 47 -22 27 2 -5 7 -27 46 -47 86 -43
86 -39 96 38 106 28 4 70 9 93 12 47 7 74 -12 74 -51 0 -39 21 -73 51 -84 34
-12 34 -14 13 -46 -16 -24 -15 -27 10 -59 55 -72 149 -105 245 -85 108 22 164
70 207 179 16 41 33 70 41 70 18 0 126 -77 172 -122 91 -89 92 -154 2 -278
-59 -81 -37 -79 71 8 40 32 106 84 145 116 61 49 78 70 109 132 20 41 33 81
30 89 -3 9 -18 15 -35 15 -31 0 -149 48 -264 106 -93 47 -227 135 -317 207
-41 33 -89 66 -107 73 -18 8 -120 23 -229 34 -108 11 -215 24 -238 30 -22 5
-77 16 -121 24 -98 19 -275 55 -295 61 -8 3 -22 0 -30 -5z"/>
<path d="M6360 5459 c-270 -41 -855 -74 -1150 -64 -175 5 -420 20 -451 27 -6
2 -13 -2 -16 -9 -2 -6 24 -32 58 -57 60 -44 62 -45 78 -25 15 18 22 19 91 9
125 -17 483 -23 695 -11 110 5 308 22 440 37 172 19 240 23 243 15 2 -6 9 -11
16 -11 12 0 109 76 114 91 4 11 -41 10 -118 -2z"/>
<path d="M3280 5349 c0 -13 12 -69 26 -124 48 -186 56 -220 61 -262 10 -83
-32 -37 -64 70 -15 50 -62 107 -88 107 -13 0 -45 -37 -45 -52 0 -3 12 -8 27
-10 34 -4 53 -38 53 -94 0 -29 14 -70 49 -140 61 -121 95 -220 120 -352 11
-56 28 -121 39 -144 21 -48 106 -147 117 -136 4 3 -12 44 -35 90 -45 92 -63
168 -38 168 8 0 19 -5 26 -12 20 -20 26 1 14 47 -40 152 32 86 111 -100 2 -5
8 -7 12 -3 4 4 0 44 -8 90 -39 209 -51 308 -39 320 15 15 38 -4 60 -51 20 -42
49 -57 38 -20 -3 13 -18 96 -32 184 -34 206 -43 243 -55 224 -5 -8 -9 -37 -9
-65 0 -32 -5 -56 -14 -63 -12 -10 -19 -4 -41 33 -15 25 -29 46 -31 46 -2 0 -3
-73 -1 -162 2 -155 1 -163 -17 -163 -16 0 -27 23 -61 125 -24 69 -56 163 -72
210 -17 47 -43 121 -58 165 -30 88 -45 113 -45 74z"/>
<path d="M6575 5353 c-51 -16 -118 -57 -260 -161 -44 -32 -131 -89 -193 -126
-87 -52 -119 -66 -138 -62 -19 5 -24 13 -24 36 0 119 -107 -122 -147 -330 -14
-74 -30 -141 -36 -147 -7 -9 -44 -13 -122 -13 -110 0 -225 -16 -335 -47 -164
-45 -330 -111 -304 -120 6 -2 59 8 117 22 212 51 543 88 599 66 15 -5 32 -19
37 -30 6 -11 13 -105 15 -213 3 -106 8 -324 12 -484 l7 -291 -28 -22 c-27 -21
-34 -21 -172 -15 -105 5 -143 4 -143 -4 0 -17 266 -358 284 -365 23 -9 67 33
163 157 48 61 119 149 157 195 39 47 78 100 88 120 24 47 23 129 -3 211 -58
185 -151 568 -147 608 4 52 24 58 88 29 129 -57 261 -109 266 -105 5 6 -55 47
-186 126 -47 28 -95 60 -106 69 -27 22 -45 57 -40 75 3 7 10 39 16 71 14 72
26 73 128 12 80 -48 109 -56 97 -27 -27 68 -95 286 -95 304 0 26 222 252 242
246 7 -3 25 -26 39 -53 52 -97 129 -154 243 -177 50 -10 69 -9 134 7 143 36
217 125 237 287 8 58 23 65 121 49 100 -15 102 -20 48 -126 -24 -49 -43 -96
-42 -104 2 -10 40 32 93 102 50 65 91 122 93 126 9 26 -104 42 -358 50 -228 8
-238 8 -335 -15 -55 -14 -117 -32 -138 -41 -26 -11 -41 -13 -48 -6 -26 26 67
101 146 119 44 11 46 12 15 12 -19 0 -57 -7 -85 -15z"/>
<path d="M8102 5348 c-18 -24 -89 -173 -105 -223 -9 -27 -28 -108 -41 -178
-18 -88 -43 -171 -81 -267 -59 -148 -78 -223 -69 -274 7 -43 23 -56 38 -32 6
10 33 46 59 80 103 129 136 248 117 413 -16 133 8 257 48 246 10 -2 23 2 29 9
24 31 46 238 24 238 -5 0 -13 -6 -19 -12z"/>
<path d="M2412 5108 c-18 -18 -15 -33 20 -84 26 -39 31 -56 31 -103 -1 -62
-10 -82 -114 -246 -99 -157 -114 -200 -114 -325 1 -97 3 -110 33 -173 18 -38
32 -74 32 -80 0 -6 -22 -33 -50 -59 -27 -26 -50 -56 -50 -66 0 -11 11 -34 25
-53 67 -92 78 -111 86 -150 10 -45 3 -121 -14 -154 -6 -11 -29 -44 -53 -73
-67 -82 -88 -147 -89 -273 0 -63 5 -116 12 -130 7 -13 26 -58 42 -99 22 -53
51 -98 100 -155 38 -44 105 -122 149 -173 44 -51 96 -124 116 -162 60 -114 71
-91 32 62 -35 133 -49 288 -44 489 4 164 6 177 30 225 60 116 134 151 461 218
179 37 232 49 240 56 12 11 -16 71 -44 96 -13 11 -55 31 -94 43 -113 36 -219
111 -254 178 -6 13 -21 53 -32 90 -12 38 -26 74 -31 80 -19 24 -29 1 -23 -50
4 -39 2 -61 -12 -87 -45 -87 -101 -29 -149 156 -29 112 -29 163 1 294 34 150
32 245 -8 365 -14 44 -31 106 -37 137 -10 49 -21 68 -79 135 -67 78 -95 95
-119 71z"/>
<path d="M8824 4936 c-3 -13 -1 -58 5 -100 16 -112 14 -151 -11 -209 -22 -52
-97 -181 -155 -267 -59 -87 -85 -166 -89 -269 -6 -144 -46 -205 -189 -285 -71
-40 -104 -73 -131 -131 -49 -104 -27 -131 118 -145 51 -5 112 -16 136 -24 57
-20 128 -72 151 -110 49 -80 97 -412 121 -831 11 -183 36 -446 89 -930 16
-148 37 -346 46 -440 17 -174 41 -311 55 -320 16 -10 30 25 49 124 21 105 60
194 95 215 14 9 21 6 36 -11 10 -13 22 -23 27 -23 4 0 17 29 27 65 14 50 27
73 57 100 42 38 58 41 109 24 38 -14 56 -49 65 -130 8 -65 34 -208 42 -229 13
-33 21 41 22 197 1 177 8 197 47 148 26 -33 29 -30 39 50 12 84 16 88 93 80
l67 -7 -72 69 c-40 37 -74 79 -77 93 -39 185 -54 229 -160 465 -50 111 -50
197 -2 363 18 64 46 167 61 229 26 110 27 112 10 170 -17 58 -33 85 -99 158
-20 22 -59 77 -87 123 -80 130 -112 108 -90 -62 29 -216 24 -273 -30 -339 -42
-51 -76 -50 -121 2 -67 78 -83 125 -82 236 0 89 4 109 31 176 42 101 60 172
78 310 21 161 20 224 -6 260 -37 53 -79 32 -79 -39 0 -81 -35 -105 -81 -56
-34 37 -31 84 24 304 61 248 65 270 76 382 23 233 -31 433 -162 601 -33 43
-44 46 -53 13z"/>
<path d="M7546 3925 c-38 -81 -48 -95 -68 -95 -13 0 -28 4 -33 8 -16 14 -104
44 -116 40 -6 -2 23 -28 65 -57 42 -28 76 -59 76 -67 0 -22 -212 -441 -283
-559 -94 -158 -317 -482 -600 -874 -107 -150 -262 -337 -357 -432 -53 -53 -96
-86 -145 -110 l-70 -34 -280 1 c-300 0 -327 4 -447 57 -78 35 -136 76 -247
176 -128 116 -290 295 -409 454 -129 172 -139 187 -360 542 -83 134 -300 493
-344 570 -70 122 -167 325 -162 339 3 8 41 35 85 60 101 59 109 82 14 41 -152
-67 -186 -85 -197 -110 -9 -20 -9 -58 0 -168 7 -78 17 -218 22 -312 16 -257
21 -315 29 -315 11 0 21 77 21 156 0 34 4 66 10 69 21 13 44 -15 56 -67 11
-49 21 -85 58 -206 41 -136 48 -161 57 -201 5 -24 14 -50 21 -58 19 -24 28 5
28 97 1 145 26 146 102 4 134 -251 153 -305 169 -477 16 -175 7 -201 -95 -276
-78 -57 -402 -261 -414 -261 -19 0 -29 31 -50 160 -35 214 -46 365 -47 645 0
236 2 275 18 313 28 69 -3 85 -61 31 -98 -92 -119 -255 -92 -694 6 -88 17
-268 25 -400 9 -132 22 -305 31 -385 16 -160 63 -492 70 -499 11 -12 19 17 22
85 3 53 8 77 18 81 22 8 44 -16 44 -48 0 -38 16 -45 25 -12 10 42 24 44 84 13
93 -47 235 -82 456 -115 231 -34 797 -152 1013 -211 28 -8 76 -21 105 -29 30
-8 59 -15 66 -15 33 0 124 -34 150 -56 16 -14 32 -38 36 -54 10 -45 43 -50 75
-9 24 29 34 33 88 37 55 4 63 2 87 -22 31 -31 46 -33 63 -6 29 47 105 49 122
4 17 -43 43 -27 56 35 14 63 33 84 139 161 119 86 191 117 350 152 159 34 155
33 365 82 85 20 178 41 205 46 28 5 93 18 145 30 52 11 118 25 145 31 28 5 64
14 82 20 41 13 71 -2 75 -38 2 -22 9 -29 30 -31 22 -3 29 -11 37 -39 9 -33 55
-93 71 -93 3 0 13 73 21 163 16 187 16 826 -1 1072 -14 203 -38 439 -57 560
-15 101 -43 168 -76 189 -27 16 -48 -17 -39 -58 26 -115 -45 -910 -92 -1032
-10 -25 -41 -15 -112 35 -156 109 -185 201 -183 581 1 256 9 368 29 380 22 13
37 -5 44 -53 3 -23 11 -62 16 -87 6 -25 15 -71 21 -103 13 -68 31 -71 40 -6 3
24 23 123 43 219 20 96 46 222 57 280 30 158 37 180 58 180 21 0 31 -26 31
-85 0 -42 14 -74 26 -62 15 15 25 261 22 517 -4 252 -9 300 -29 300 -5 0 -29
-43 -53 -95z"/>
<path d="M3095 3466 c-115 -24 -142 -37 -156 -74 -14 -37 6 -562 31 -817 34
-343 69 -537 161 -900 57 -222 99 -390 99 -395 0 -2 13 11 28 30 25 30 28 38
21 74 -5 23 -8 64 -9 92 0 28 -7 91 -15 140 -8 49 -30 188 -50 309 -19 121
-40 247 -45 280 -27 162 -48 513 -52 905 -2 179 0 210 15 245 21 47 63 93 95
106 12 5 22 13 22 19 0 13 -27 11 -145 -14z"/>
<path d="M7850 3470 c0 -11 63 -30 100 -30 33 0 88 -34 100 -62 21 -51 51
-231 60 -368 5 -80 9 -291 9 -470 -1 -444 17 -1010 35 -1155 23 -178 38 -268
46 -284 8 -15 24 133 19 179 -4 43 0 60 16 60 14 0 18 -10 30 -82 6 -39 37
-60 57 -40 15 15 4 607 -21 1082 -36 706 -41 773 -56 860 -40 232 -65 269
-203 304 -70 18 -192 22 -192 6z"/>
<path d="M2635 1709 c-4 -5 -1 -23 5 -40 16 -37 2 -56 -46 -65 -46 -9 -88 10
-129 59 -19 22 -37 38 -41 35 -3 -3 -1 -29 4 -57 7 -39 6 -55 -4 -68 -7 -10
-14 -22 -14 -27 0 -16 173 2 245 26 85 28 92 45 40 106 -38 43 -49 49 -60 31z"/>
<path d="M7065 903 c-11 -2 -58 -12 -105 -23 -138 -31 -220 -48 -315 -65 -49
-9 -108 -24 -130 -33 -50 -20 -157 -102 -152 -116 6 -17 116 -6 151 15 17 10
144 56 281 100 229 75 325 111 325 124 0 6 -25 5 -55 -2z"/>
</g>
</svg>
