<?xml version="1.0" standalone="no"?>
<!DOCTYPE svg PUBLIC "-//W3C//DTD SVG 20010904//EN"
 "http://www.w3.org/TR/2001/REC-SVG-20010904/DTD/svg10.dtd">
<svg version="1.0" xmlns="http://www.w3.org/2000/svg"
 width="287.000000pt" height="300.000000pt" viewBox="0 0 287.000000 300.000000"
 preserveAspectRatio="xMidYMid meet">

<g transform="translate(0.000000,300.000000) scale(0.100000,-0.100000)"
fill="#00ff00" stroke="none">
<path d="M1532 2587 c-7 -8 -39 -17 -75 -20 -67 -6 -237 -70 -283 -106 -15
-12 -34 -21 -43 -21 -9 0 -27 -10 -41 -23 -14 -12 -51 -44 -84 -72 -32 -27
-77 -76 -100 -110 -41 -60 -41 -60 -44 -168 -4 -104 -3 -109 27 -161 50 -90
107 -158 191 -231 l81 -69 -53 -24 c-29 -13 -95 -34 -147 -48 -51 -13 -116
-36 -144 -52 -64 -34 -126 -112 -169 -211 -33 -76 -138 -250 -210 -349 -37
-49 -39 -56 -36 -115 2 -47 7 -62 18 -62 11 0 16 15 18 65 3 64 22 113 22 56
0 -36 58 -122 73 -107 7 7 2 22 -16 49 -30 43 -33 65 -13 112 l13 33 28 -72
c27 -71 53 -101 87 -101 27 0 22 27 -6 34 -19 5 -30 20 -45 61 -28 74 -27 85
7 85 20 0 41 -13 72 -45 41 -42 70 -57 70 -36 0 5 -21 32 -47 60 -43 46 -52
51 -90 51 -28 0 -46 5 -49 14 -3 7 13 42 36 77 23 35 64 111 92 169 76 160
135 212 281 249 40 10 116 34 169 54 l97 37 75 -30 c41 -17 78 -30 83 -30 12
0 30 -77 38 -160 8 -83 50 -252 120 -477 30 -98 55 -183 55 -189 0 -18 27 -37
35 -24 3 5 -27 121 -69 258 -95 315 -106 359 -116 462 -5 47 -11 93 -15 103
-4 9 -3 17 1 17 5 0 20 -24 34 -52 33 -69 115 -170 237 -294 109 -110 125
-119 376 -210 l109 -39 -6 -30 c-4 -16 -9 -54 -13 -83 -5 -44 -3 -52 11 -52
12 0 16 9 16 36 0 19 5 45 12 57 12 22 12 21 18 -8 3 -16 2 -37 -4 -46 -10
-18 -2 -49 12 -49 5 0 16 17 25 38 14 34 15 35 16 10 2 -42 20 -83 32 -71 13
13 -2 99 -25 155 -19 45 -45 59 -222 123 -218 79 -236 90 -365 222 -80 82
-130 144 -167 206 -29 48 -52 91 -52 96 0 5 55 11 123 13 117 3 125 5 191 38
83 43 156 119 175 181 7 24 19 64 27 89 20 58 44 202 44 261 0 81 -40 182
-116 287 -42 59 -44 64 -25 69 12 3 21 12 21 20 0 11 -7 13 -29 8 -23 -5 -41
1 -83 30 -50 33 -77 41 -229 72 -15 3 -30 -1 -37 -10z m138 -47 c64 -11 130
-43 130 -62 0 -6 -7 -8 -15 -4 -8 3 -30 -5 -48 -17 -25 -16 -34 -28 -32 -47 4
-58 31 -93 93 -120 47 -21 117 -27 127 -10 12 19 23 9 45 -42 21 -49 22 -63
17 -178 -4 -84 -12 -143 -25 -180 -10 -30 -22 -72 -26 -92 -11 -62 -82 -137
-168 -180 -74 -38 -76 -38 -196 -38 -110 0 -122 2 -132 19 -5 11 -10 30 -10
43 0 13 -6 33 -14 44 -13 17 -18 18 -48 6 -158 -62 -153 -61 -186 -45 -76 37
-213 186 -266 290 -22 45 -26 65 -26 140 0 88 0 88 45 154 40 59 150 159 175
159 5 0 13 6 17 13 4 7 23 19 41 26 30 13 33 12 52 -11 28 -36 92 -51 205 -47
103 4 111 8 151 75 10 15 14 17 25 7 17 -17 39 -16 39 1 0 15 -75 56 -102 56
-9 0 -31 7 -49 15 l-34 15 50 -2 c43 -2 50 1 48 16 -1 14 4 17 25 13 15 -3 56
-10 92 -17z m-195 -54 l60 -26 -128 0 c-141 0 -159 10 -76 42 51 20 63 19 144
-16z m388 -74 c31 -40 23 -50 -24 -33 -16 6 -42 16 -59 22 -38 15 -38 22 3 36
48 16 50 15 80 -25z m-470 21 c46 -4 67 -10 67 -19 0 -19 20 -17 42 3 10 9 21
13 26 9 34 -35 -186 -52 -254 -20 -65 31 -22 41 119 27z m443 -101 c17 -24 44
-28 62 -10 13 13 27 5 17 -11 -17 -29 -156 14 -163 51 -3 14 1 15 33 4 20 -7
43 -22 51 -34z m-454 -732 c3 -17 3 -32 0 -34 -5 -6 -92 27 -92 34 0 8 49 28
71 29 11 1 18 -9 21 -29z"/>
<path d="M1301 2262 c-30 -10 -56 -23 -59 -30 -5 -16 11 -15 78 3 103 28 337
13 413 -26 31 -16 107 -91 107 -106 0 -19 45 -66 59 -62 9 3 6 12 -8 31 -12
14 -21 33 -21 41 0 8 -24 38 -52 66 -76 74 -141 93 -323 97 -112 3 -151 0
-194 -14z"/>
<path d="M1200 2220 c0 -33 3 -40 20 -40 21 0 27 15 10 25 -5 3 -10 17 -10 31
0 13 -4 24 -10 24 -5 0 -10 -18 -10 -40z"/>
<path d="M1516 2201 c-8 -13 0 -17 69 -30 28 -5 70 -17 94 -26 24 -9 53 -15
63 -13 34 5 23 23 -22 34 -25 5 -57 15 -72 22 -43 18 -124 26 -132 13z"/>
<path d="M2004 586 c-47 -21 -64 -52 -64 -116 0 -75 25 -115 82 -130 52 -15
104 -1 138 35 31 33 39 118 15 164 -28 54 -105 75 -171 47z m98 -63 c22 -20
24 -80 2 -111 -18 -26 -56 -29 -78 -6 -18 18 -21 85 -6 115 13 24 57 25 82 2z"/>
<path d="M2285 591 c-33 -14 -47 -37 -43 -73 3 -33 21 -47 109 -83 14 -6 24
-18 24 -30 0 -29 -50 -33 -67 -6 -15 24 -78 30 -78 8 0 -72 159 -99 205 -34
38 54 7 102 -83 132 -53 17 -60 29 -29 49 12 8 22 5 39 -11 16 -15 31 -20 51
-16 32 6 33 13 9 43 -20 25 -100 37 -137 21z"/>
<path d="M2539 589 c-15 -5 -33 -24 -39 -40 -11 -26 -10 -34 7 -57 11 -15 40
-33 66 -42 59 -19 75 -34 57 -55 -18 -21 -57 -19 -70 5 -8 14 -21 20 -45 20
l-35 0 13 -32 c26 -65 143 -75 192 -16 14 16 25 38 25 47 0 34 -38 69 -91 82
-53 14 -73 34 -48 50 20 13 27 11 49 -11 16 -16 27 -19 52 -12 l31 8 -24 28
c-28 31 -93 43 -140 25z"/>
<path d="M230 465 l0 -125 101 0 100 0 -3 28 c-3 26 -6 27 -65 30 l-63 3 0 94
0 95 -35 0 -35 0 0 -125z"/>
<path d="M470 465 l0 -125 35 0 35 0 0 125 0 125 -35 0 -35 0 0 -125z"/>
<path d="M610 465 l0 -125 35 0 c33 0 35 2 35 33 0 30 24 67 43 67 4 0 18 -22
32 -50 24 -47 27 -50 65 -50 22 0 40 3 40 6 0 3 -18 36 -40 73 -22 37 -40 71
-40 75 0 4 16 28 36 52 l36 44 -43 0 c-40 0 -48 -4 -86 -47 l-42 -48 -1 48 0
47 -35 0 -35 0 0 -125z"/>
<path d="M900 465 l0 -125 105 0 c105 0 105 0 105 25 0 23 -3 24 -67 27 -65 3
-68 4 -68 28 0 24 3 25 63 28 59 3 63 5 60 25 -3 20 -10 22 -66 25 -59 3 -63
5 -60 25 3 20 10 22 71 25 59 3 67 5 67 22 0 19 -7 20 -105 20 l-105 0 0 -125z"/>
<path d="M1298 465 l-45 -125 37 0 c29 0 39 4 43 20 4 16 14 20 52 20 38 0 48
-4 52 -20 4 -16 14 -20 45 -20 33 0 38 2 30 18 -5 9 -26 65 -46 125 l-38 107
-43 0 -42 0 -45 -125z m107 3 c7 -36 6 -38 -19 -38 -29 0 -34 19 -16 66 13 33
26 23 35 -28z"/>
<path d="M1670 465 l0 -125 90 0 c83 0 93 2 115 25 32 31 32 60 0 89 -22 21
-23 24 -8 38 21 22 20 68 -3 85 -12 8 -48 13 -106 13 l-88 0 0 -125z m140 70
c18 -21 -4 -45 -41 -45 -24 0 -29 4 -29 23 0 13 3 27 7 30 12 12 50 7 63 -8z
m9 -103 c14 -26 -4 -42 -46 -42 -28 0 -33 4 -33 23 0 31 7 37 41 37 17 0 32
-7 38 -18z"/>
</g>
</svg>
