<?xml version="1.0" standalone="no"?>
<!DOCTYPE svg PUBLIC "-//W3C//DTD SVG 20010904//EN"
 "http://www.w3.org/TR/2001/REC-SVG-20010904/DTD/svg10.dtd">
<svg version="1.0" xmlns="http://www.w3.org/2000/svg"
 width="1080.000000pt" height="1080.000000pt" viewBox="0 0 1080.000000 1080.000000"
 preserveAspectRatio="xMidYMid meet">

<g transform="translate(0.000000,1080.000000) scale(0.100000,-0.100000)"
fill="#FFFF00" stroke="none">
<path d="M5375 5714 c-22 -18 -44 -34 -48 -34 -5 0 -29 14 -54 32 -38 25 -45
28 -39 12 36 -93 96 -266 96 -276 1 -29 19 23 55 155 20 76 35 140 33 142 -1
2 -21 -12 -43 -31z"/>
<path d="M5971 5192 l-114 -26 54 -48 c30 -27 73 -65 97 -85 l42 -36 77 64 78
63 223 -77 c122 -42 219 -71 215 -64 -4 7 -32 47 -61 89 l-54 75 -121 6 c-104
4 -134 10 -205 36 -45 17 -90 31 -100 30 -9 0 -68 -12 -131 -27z"/>
<path d="M4498 5106 c-74 -36 -104 -44 -196 -55 -101 -12 -109 -15 -124 -40
-8 -15 -32 -58 -53 -95 l-37 -67 53 25 c30 13 125 56 211 96 l157 73 82 -54
82 -54 83 90 c45 49 82 91 81 92 -3 2 -239 33 -247 32 -3 0 -44 -20 -92 -43z"/>
<path d="M6052 4228 c-38 -57 -71 -108 -75 -114 -4 -7 54 -57 149 -128 96 -73
159 -127 165 -143 5 -14 30 -107 54 -207 46 -183 93 -345 104 -358 3 -4 23 53
44 127 l38 134 -202 395 c-110 218 -202 396 -205 396 -2 0 -34 -46 -72 -102z"/>
<path d="M4486 3868 c-88 -222 -159 -408 -159 -414 0 -18 86 -254 93 -254 4 0
12 30 18 68 28 169 82 480 88 504 5 23 137 151 288 279 7 6 -145 210 -162 216
-4 2 -79 -178 -166 -399z"/>
<path d="M5530 4123 c-61 -15 -101 -31 -112 -43 -20 -24 -27 -25 -43 -3 -9 12
-45 23 -111 35 -54 9 -100 15 -102 13 -3 -2 12 -26 32 -54 32 -44 45 -52 109
-74 69 -23 72 -25 82 -65 15 -59 22 -60 30 -3 l7 50 71 26 c67 24 74 30 105
82 18 31 31 56 30 57 -2 1 -46 -8 -98 -21z"/>
<path d="M5900 3999 c-7 -11 -9 -28 -6 -36 4 -11 -13 -36 -53 -75 l-59 -60
161 -374 c88 -206 165 -374 170 -374 5 0 7 19 4 43 -4 23 -12 194 -18 379
l-13 338 -79 90 c-43 49 -82 90 -87 90 -5 0 -14 -9 -20 -21z"/>
<path d="M4796 3885 l-68 -95 12 -307 c6 -170 15 -339 18 -378 l8 -70 51 150
c28 83 88 257 133 389 44 131 80 239 78 240 -31 18 -118 102 -118 115 0 16
-29 51 -41 51 -3 0 -35 -43 -73 -95z"/>
<path d="M5358 3837 c-49 -16 -53 -22 -31 -51 15 -22 26 -25 75 -26 49 0 59 3
77 26 27 35 27 40 -8 47 -16 3 -39 8 -52 11 -13 2 -41 -1 -61 -7z"/>
<path d="M5402 3572 c-53 -2 -72 -6 -69 -15 52 -141 83 -217 88 -217 9 0 69
224 61 230 -4 3 -40 4 -80 2z"/>
<path d="M5356 3089 l-66 -92 72 -81 c40 -44 74 -83 76 -86 3 -5 30 28 98 120
l41 57 -68 84 c-38 46 -73 85 -78 87 -5 2 -39 -38 -75 -89z"/>
</g>
</svg>
