<?xml version="1.0" standalone="no"?>
<!DOCTYPE svg PUBLIC "-//W3C//DTD SVG 20010904//EN"
 "http://www.w3.org/TR/2001/REC-SVG-20010904/DTD/svg10.dtd">
<svg version="1.0" xmlns="http://www.w3.org/2000/svg"
 width="250.000000pt" height="136.000000pt" viewBox="0 0 300.000000 136.000000"
 preserveAspectRatio="xMidYMid meet">

<g transform="translate(0.000000,136.000000) scale(0.100000,-0.100000)"
fill="#da1f28" stroke="none">
<path d="M0 680 l0 -680 1500 0 1500 0 0 680 0 680 -1500 0 -1500 0 0 -680z
m2896 478 c19 -23 19 -23 -2 -5 -11 9 -31 17 -44 17 -13 0 -33 -8 -44 -17 -21
-18 -21 -18 -2 5 11 13 30 22 46 22 16 0 35 -9 46 -22z m-2505 -183 c20 -104
38 -192 39 -195 1 -4 89 373 90 388 0 1 50 2 110 2 l110 0 1 -427 c0 -236 2
-423 4 -418 3 6 32 183 65 395 33 212 63 400 66 418 l6 32 113 0 113 0 22
-142 c12 -79 41 -267 65 -418 l43 -275 3 415 4 415 156 0 c149 0 157 -1 193
-25 20 -14 51 -45 67 -70 17 -25 29 -36 26 -25 -3 11 -9 44 -12 73 l-7 52 91
0 c86 0 91 -1 96 -22 2 -13 20 -122 40 -242 20 -121 37 -221 38 -223 2 -1 20
97 41 220 20 122 40 232 43 245 l5 22 252 -2 251 -3 0 -95 0 -95 -73 0 -72 0
0 -102 0 -103 70 0 70 0 0 -105 0 -105 -70 0 -70 0 0 -90 0 -89 73 -3 72 -3 3
-103 3 -102 -166 0 -165 0 -1 458 c-1 251 -4 448 -7 437 -3 -11 -39 -216 -81
-455 l-76 -435 -102 -3 -101 -3 -6 28 c-7 33 -96 568 -96 580 -1 4 -12 -26
-25 -67 -15 -47 -38 -91 -59 -117 l-35 -40 58 -174 c32 -96 62 -182 66 -192 7
-16 0 -18 -85 -15 l-92 3 -59 155 -58 155 0 -157 -1 -158 -179 0 -179 0 -8 48
-9 47 -66 3 -65 3 -15 -48 -15 -48 -172 -3 -172 -2 -1 162 -1 163 -32 -135
c-18 -74 -36 -148 -40 -163 -6 -26 -9 -28 -54 -25 l-47 3 -37 160 -36 160 -4
-160 -3 -160 -92 -3 -93 -3 0 501 0 501 117 -3 117 -3 37 -190z m2369 -205 l0
-400 70 0 70 0 0 -100 0 -100 -155 0 -155 0 0 500 0 500 85 0 85 0 0 -400z
m116 342 c2 -32 1 -32 -17 -16 -17 16 -19 16 -19 1 0 -10 -4 -17 -10 -17 -5 0
-10 16 -10 36 0 33 2 35 27 32 23 -3 28 -8 29 -36z m-89 -4 c-3 -8 -6 -5 -6 6
-1 11 2 17 5 13 3 -3 4 -12 1 -19z m133 2 c0 -23 -33 -60 -52 -59 -7 0 -3 5
10 11 13 7 26 24 29 40 6 33 13 37 13 8z m-85 -58 c-6 -6 -34 11 -39 24 -4 11
0 10 18 -3 13 -10 23 -19 21 -21z"/>
<path d="M1440 841 c0 -139 1 -150 18 -144 100 35 109 228 13 278 l-31 16 0
-150z"/>
<path d="M977 612 c-10 -70 -17 -133 -17 -139 0 -8 15 -13 40 -13 30 0 40 4
40 16 0 19 -40 257 -44 261 -1 1 -10 -55 -19 -125z"/>
<path d="M2840 1130 c0 -5 5 -10 10 -10 6 0 10 5 10 10 0 6 -4 10 -10 10 -5 0
-10 -4 -10 -10z"/>
</g>
</svg>
