<svg id="svg" version="1.1" xmlns="http://www.w3.org/2000/svg" xmlns:xlink="http://www.w3.org/1999/xlink" width="400" height="400" viewBox="0, 0, 400,400"><g id="svgg"><path id="path0" d="M171.481 117.841 L 169.558 122.140 168.818 130.080 L 168.079 138.021 166.041 143.644 L 164.003 149.268 163.095 149.838 C 161.901 150.589,162.020 150.646,160.943 148.806 L 160.000 147.196 160.000 149.352 L 160.000 151.507 156.786 147.272 C 155.018 144.942,153.605 142.983,153.645 142.919 C 153.684 142.854,153.489 141.023,153.210 138.849 C 152.931 136.675,152.728 134.722,152.758 134.510 C 152.788 134.293,154.342 136.849,156.302 140.343 C 160.073 147.062,159.964 146.957,159.603 143.526 C 159.482 142.370,159.026 140.823,157.897 137.740 L 156.357 133.531 154.551 131.609 L 152.746 129.688 152.233 130.833 C 151.950 131.464,151.544 132.473,151.330 133.077 L 150.941 134.175 151.712 137.993 C 152.162 140.220,153.368 144.800,154.604 148.979 L 156.725 156.146 159.539 158.362 L 162.352 160.578 163.044 160.289 C 164.237 159.791,164.232 159.785,165.078 163.281 C 165.514 165.086,165.913 166.703,165.964 166.875 C 166.015 167.047,167.543 168.313,169.360 169.688 L 172.663 172.188 175.628 180.000 C 180.352 192.447,188.601 207.017,191.320 207.717 C 191.797 207.840,192.885 208.127,193.738 208.356 C 194.919 208.672,195.862 208.762,197.688 208.735 L 200.087 208.700 200.096 209.298 L 200.104 209.896 201.803 209.956 C 203.940 210.032,207.972 208.936,209.040 207.989 C 209.643 207.455,212.188 205.027,213.932 203.324 C 215.807 201.493,216.227 200.565,216.523 197.600 L 216.793 194.896 219.031 191.812 C 221.725 188.099,221.413 188.800,222.812 183.333 C 223.771 179.589,224.236 178.222,225.642 175.000 L 227.325 171.146 229.508 169.271 C 232.187 166.970,231.867 167.658,232.830 162.139 L 233.639 157.506 236.687 155.193 L 239.735 152.880 241.944 145.346 C 243.326 140.630,244.400 136.508,244.813 134.325 L 245.473 130.838 244.686 128.596 C 244.253 127.363,243.835 126.282,243.757 126.193 C 243.679 126.105,242.809 126.910,241.822 127.983 L 240.028 129.933 238.475 134.394 C 237.064 138.446,236.067 143.014,236.499 143.443 C 236.534 143.478,238.156 140.664,240.104 137.190 C 242.052 133.717,243.671 130.899,243.703 130.928 C 243.734 130.957,243.505 133.021,243.194 135.514 L 242.629 140.046 239.581 144.093 C 237.905 146.319,236.203 148.364,235.799 148.639 L 235.065 149.138 233.633 143.700 L 232.201 138.263 229.434 133.878 C 226.692 129.534,226.667 129.482,226.652 128.236 C 226.627 126.007,226.139 117.111,226.036 117.016 C 225.982 116.965,223.922 117.286,221.458 117.728 C 215.978 118.713,216.468 118.714,214.321 117.708 L 212.543 116.875 204.865 116.871 C 193.289 116.864,187.801 116.593,185.806 115.929 L 184.217 115.399 183.156 115.802 L 182.095 116.206 177.870 114.877 C 175.547 114.147,173.591 113.547,173.525 113.545 C 173.459 113.543,172.539 115.476,171.481 117.841 M222.638 139.931 C 222.255 140.315,217.245 138.192,216.146 137.181 L 214.896 136.031 218.792 137.956 C 220.935 139.014,222.666 139.904,222.638 139.931 M180.196 146.667 C 180.363 147.838,180.386 148.826,180.263 149.583 L 180.078 150.729 179.930 148.646 C 179.849 147.500,179.737 146.000,179.682 145.313 C 179.541 143.558,179.882 144.455,180.196 146.667 M169.360 149.229 C 169.369 149.591,169.588 149.995,169.936 150.294 L 170.496 150.776 170.040 151.020 C 169.648 151.230,169.582 151.447,169.571 152.559 L 169.558 153.854 169.004 152.754 C 168.494 151.742,168.403 151.664,167.870 151.781 C 167.204 151.927,167.180 151.862,167.600 151.050 C 167.871 150.525,167.872 150.334,167.602 149.446 C 167.188 148.082,167.203 148.033,167.886 148.520 L 168.480 148.943 168.763 148.414 C 169.089 147.803,169.333 148.136,169.360 149.229 M225.504 150.241 L 224.590 152.061 225.556 152.124 L 226.522 152.188 223.350 154.759 C 221.606 156.174,220.220 157.439,220.269 157.572 C 220.693 158.700,220.832 158.590,217.345 159.882 C 215.539 160.550,213.991 161.161,213.904 161.238 C 213.817 161.315,214.802 161.622,216.092 161.920 L 218.438 162.461 215.378 162.480 L 212.319 162.500 208.935 161.044 C 205.117 159.402,205.098 159.400,206.088 160.771 C 207.222 162.344,207.241 162.426,206.341 161.893 C 205.890 161.626,205.029 161.128,204.427 160.788 C 203.035 160.000,203.104 160.219,203.525 157.905 C 203.870 156.010,203.869 155.865,203.519 154.833 C 203.316 154.237,203.197 153.750,203.254 153.750 C 203.311 153.750,203.771 153.854,204.277 153.982 C 205.176 154.208,205.309 154.168,209.838 152.341 L 214.479 150.468 220.000 149.421 C 227.129 148.069,226.633 147.995,225.504 150.241 M178.229 150.436 L 184.063 151.506 188.876 153.450 L 193.690 155.394 194.678 155.096 C 195.510 154.846,195.649 154.844,195.557 155.086 C 194.990 156.562,194.931 157.155,195.194 158.714 C 195.342 159.593,195.497 160.641,195.537 161.042 C 195.578 161.443,195.991 163.865,196.455 166.425 L 197.300 171.080 196.827 171.457 C 196.567 171.664,194.995 173.004,193.333 174.433 C 189.749 177.517,190.042 177.869,190.593 171.146 C 190.810 168.510,190.973 166.336,190.957 166.314 C 190.941 166.292,188.549 165.667,185.641 164.924 C 179.799 163.433,179.961 163.563,183.125 162.900 C 185.027 162.502,184.961 162.430,181.518 161.130 C 179.181 160.248,178.242 159.799,178.273 159.580 C 178.296 159.410,178.343 159.092,178.377 158.873 C 178.421 158.580,177.620 157.812,175.333 155.957 L 172.229 153.438 173.094 153.373 C 174.143 153.296,174.150 153.499,173.019 151.246 C 172.502 150.217,172.150 149.373,172.237 149.370 C 172.325 149.367,175.021 149.847,178.229 150.436 M161.979 153.333 C 162.427 153.792,162.746 154.167,162.689 154.167 C 162.631 154.167,162.218 153.792,161.771 153.333 C 161.323 152.875,161.004 152.500,161.061 152.500 C 161.119 152.500,161.532 152.875,161.979 153.333 M217.303 153.195 C 216.482 155.681,213.347 156.032,211.090 153.890 L 210.408 153.244 209.566 154.086 L 208.724 154.928 210.381 155.675 L 212.039 156.422 214.769 156.045 L 217.499 155.667 218.780 154.557 L 220.062 153.447 219.041 152.986 C 217.681 152.372,217.570 152.386,217.303 153.195 M179.951 154.028 C 178.702 154.599,178.704 154.625,180.064 155.816 L 181.198 156.808 183.930 157.184 L 186.661 157.559 188.226 156.876 C 190.051 156.080,190.023 156.144,188.990 155.135 L 188.188 154.352 187.855 154.860 C 186.409 157.067,182.616 156.898,181.598 154.581 C 181.349 154.015,181.099 153.557,181.042 153.564 C 180.984 153.571,180.494 153.779,179.951 154.028 M177.744 173.577 C 177.782 175.028,177.778 176.181,177.736 176.139 C 177.212 175.614,176.961 168.678,177.306 164.271 C 177.360 163.577,177.637 169.467,177.744 173.577 M193.952 178.259 C 194.473 178.363,194.933 178.782,196.009 180.132 L 197.396 181.870 200.000 181.870 L 202.604 181.870 203.994 180.128 C 205.446 178.307,206.408 177.816,207.711 178.230 C 208.333 178.428,208.290 178.491,205.990 180.752 C 204.066 182.643,203.658 182.939,201.875 183.730 L 199.896 184.609 197.917 183.680 C 196.150 182.850,195.714 182.524,193.854 180.640 C 191.460 178.215,191.479 177.764,193.952 178.259 M212.904 184.583 C 212.897 184.887,211.489 187.728,211.468 187.481 C 211.463 187.413,211.652 186.803,211.889 186.126 C 212.297 184.958,212.322 183.824,211.968 182.550 C 211.912 182.350,212.102 182.656,212.389 183.229 C 212.676 183.802,212.908 184.411,212.904 184.583 M214.604 188.033 C 214.363 188.441,214.251 188.722,214.356 188.658 C 214.461 188.593,214.226 189.548,213.834 190.780 C 212.719 194.292,212.695 193.927,214.052 193.999 L 215.227 194.063 211.737 196.146 C 209.818 197.292,208.170 198.229,208.075 198.229 C 207.979 198.229,207.824 198.354,207.730 198.507 C 207.586 198.739,206.952 198.735,203.935 198.485 C 200.356 198.189,200.272 198.191,196.979 198.705 L 193.646 199.225 190.259 197.600 C 188.397 196.706,186.918 195.929,186.973 195.874 C 187.029 195.819,188.539 195.717,190.330 195.647 L 193.587 195.521 191.397 194.299 C 189.395 193.181,185.641 189.290,186.111 188.820 C 186.526 188.405,197.422 188.343,198.640 188.748 L 199.984 189.195 202.612 188.556 C 205.488 187.857,206.045 187.810,207.726 188.134 C 208.673 188.316,209.289 188.269,211.563 187.843 C 215.310 187.141,215.137 187.130,214.604 188.033 M168.256 192.212 C 166.208 194.222,164.614 195.940,164.714 196.031 C 164.814 196.122,166.349 197.158,168.125 198.333 C 169.901 199.508,171.448 200.565,171.563 200.682 C 171.910 201.036,171.337 200.676,167.733 198.274 L 164.320 195.999 161.638 198.674 C 160.163 200.146,158.981 201.413,159.010 201.490 C 159.039 201.567,160.586 202.862,162.448 204.368 L 165.833 207.106 165.871 204.230 L 165.908 201.354 166.056 205.000 C 166.171 207.829,166.345 209.323,166.835 211.667 L 167.467 214.688 166.394 218.789 C 165.805 221.045,165.287 222.857,165.245 222.815 C 165.203 222.773,165.332 221.007,165.531 218.892 L 165.893 215.045 165.106 211.845 C 164.673 210.086,164.250 208.569,164.165 208.474 C 163.906 208.185,154.536 205.797,154.369 205.977 C 154.082 206.287,151.294 216.250,151.494 216.250 C 151.603 216.250,151.642 216.330,151.581 216.429 C 151.192 217.057,164.331 267.918,165.078 268.676 C 165.663 269.270,181.314 276.248,181.575 276.031 C 181.780 275.861,181.818 275.902,181.738 276.207 C 181.673 276.455,182.886 279.107,184.972 283.277 L 188.310 289.950 194.151 293.324 L 199.991 296.698 205.792 293.350 L 211.592 290.002 215.063 283.163 L 218.534 276.324 226.611 272.619 C 231.053 270.582,234.794 268.807,234.923 268.676 C 235.561 268.030,246.655 225.699,246.326 225.164 C 246.116 224.822,245.217 225.484,245.303 225.917 C 245.351 226.157,245.449 226.635,245.521 226.979 C 245.640 227.546,245.622 227.574,245.324 227.282 C 244.969 226.934,244.064 222.627,244.274 222.287 C 244.473 221.965,245.208 222.050,245.208 222.396 C 245.208 222.568,245.307 222.708,245.427 222.708 C 245.548 222.708,245.781 223.030,245.945 223.423 C 246.473 224.687,246.609 224.442,247.585 220.468 C 248.758 215.692,248.814 216.786,247.089 210.784 L 245.637 205.729 243.358 203.542 C 242.105 202.339,238.116 198.458,234.493 194.918 C 230.871 191.378,227.872 188.518,227.828 188.563 C 227.785 188.609,225.091 192.693,221.843 197.638 L 215.938 206.631 212.469 209.763 L 209.000 212.895 204.448 214.064 L 199.896 215.233 195.272 214.118 L 190.648 213.002 187.355 209.856 L 184.063 206.710 178.125 197.632 C 174.859 192.639,172.141 188.555,172.083 188.556 C 172.026 188.557,170.304 190.202,168.256 192.212 M211.458 192.917 C 210.537 194.292,209.830 195.417,209.888 195.417 C 209.945 195.417,210.745 194.292,211.667 192.917 C 212.588 191.542,213.295 190.417,213.237 190.417 C 213.180 190.417,212.380 191.542,211.458 192.917 M231.912 195.889 C 236.101 199.294,239.375 203.243,239.375 204.889 C 239.375 206.164,237.514 207.038,236.087 206.432 C 235.604 206.227,235.208 206.106,235.208 206.163 C 235.208 206.570,237.095 208.629,238.046 209.260 C 238.684 209.684,239.171 210.065,239.128 210.108 C 239.025 210.212,234.620 211.250,234.284 211.250 C 234.080 211.250,234.067 210.987,234.225 210.068 C 234.391 209.108,234.133 206.042,233.887 206.042 C 233.868 206.042,233.222 206.222,232.450 206.443 L 231.048 206.844 229.653 206.078 L 228.259 205.313 227.795 203.229 C 226.977 199.558,226.902 195.843,227.616 194.350 C 228.352 192.809,227.944 192.663,231.912 195.889 M227.990 196.586 C 228.055 196.917,228.215 198.083,228.345 199.178 C 228.550 200.893,228.645 201.196,229.031 201.366 C 229.304 201.485,229.505 201.791,229.546 202.145 C 229.599 202.607,229.693 202.701,230.003 202.603 C 230.441 202.464,230.918 203.051,231.157 204.023 C 231.240 204.360,231.409 204.567,231.555 204.511 C 231.694 204.457,231.938 204.493,232.095 204.591 C 232.261 204.693,232.489 204.679,232.636 204.557 C 232.809 204.414,233.032 204.422,233.333 204.583 C 233.660 204.758,233.850 204.759,234.057 204.588 C 234.251 204.427,234.380 204.423,234.473 204.573 C 234.673 204.897,235.000 204.838,235.000 204.479 C 235.000 204.307,235.164 204.164,235.365 204.161 C 235.637 204.157,235.558 204.013,235.050 203.588 C 234.387 203.034,234.116 202.358,234.635 202.553 C 234.779 202.607,235.121 202.722,235.396 202.808 L 235.896 202.965 235.396 202.274 C 235.121 201.895,234.747 201.157,234.566 200.636 C 234.217 199.635,234.025 199.496,229.092 196.682 L 227.871 195.985 227.990 196.586 M229.903 198.461 C 230.526 198.870,230.681 200.625,230.094 200.625 C 229.688 200.625,228.765 199.595,228.757 199.132 C 228.738 198.146,229.100 197.935,229.903 198.461 M233.039 199.410 C 234.101 200.173,234.331 201.042,233.470 201.042 C 233.044 201.042,231.250 199.286,231.250 198.869 C 231.250 198.532,232.229 198.828,233.039 199.410 M232.065 200.724 C 233.077 202.327,233.058 202.222,232.336 202.222 C 231.588 202.222,231.143 201.625,230.955 200.365 C 230.754 199.011,231.042 199.105,232.065 200.724 M194.167 209.167 C 196.234 210.242,199.792 210.440,199.792 209.479 L 199.792 208.958 197.448 208.956 C 195.975 208.955,194.724 208.839,194.081 208.644 C 192.463 208.153,192.486 208.292,194.167 209.167 M152.813 217.708 C 153.377 218.281,153.792 218.750,153.734 218.750 C 153.677 218.750,153.168 218.281,152.604 217.708 C 152.040 217.135,151.625 216.667,151.682 216.667 C 151.740 216.667,152.248 217.135,152.813 217.708 M186.210 217.813 L 187.935 218.854 190.943 223.776 L 193.951 228.698 193.790 231.588 L 193.630 234.479 194.344 235.938 C 195.487 238.273,196.497 240.538,196.294 240.313 C 196.191 240.198,195.197 239.008,194.085 237.669 L 192.063 235.234 191.039 231.523 C 189.301 225.218,187.387 220.748,185.907 219.535 C 184.848 218.667,184.212 217.629,184.170 216.701 C 184.165 216.591,184.385 216.710,186.210 217.813 M172.890 220.370 L 174.322 223.726 171.522 227.019 C 168.748 230.282,168.723 230.320,168.846 231.153 C 168.914 231.615,169.011 232.730,169.060 233.632 C 169.138 235.069,169.219 235.345,169.718 235.865 C 170.030 236.191,170.241 236.458,170.187 236.458 C 170.132 236.458,169.669 236.018,169.158 235.479 C 168.647 234.941,168.409 234.636,168.629 234.802 C 169.105 235.162,169.081 234.980,168.259 232.038 L 167.751 230.222 170.196 226.960 L 172.641 223.699 172.053 220.756 C 171.729 219.137,171.408 217.578,171.340 217.292 C 171.108 216.317,171.457 217.011,172.890 220.370 M156.458 221.606 C 156.458 221.762,156.271 221.597,155.408 220.677 L 154.479 219.688 155.469 220.616 C 156.013 221.127,156.458 221.572,156.458 221.606 M225.500 223.274 C 225.704 223.700,226.060 224.182,226.292 224.345 C 226.525 224.508,226.934 225.137,227.202 225.743 C 227.470 226.349,228.209 227.517,228.845 228.340 C 229.480 229.162,230.000 229.980,230.000 230.157 C 230.000 230.334,230.378 231.134,230.839 231.935 C 231.994 233.938,231.817 233.854,229.850 231.467 L 228.155 229.409 226.989 229.883 C 226.348 230.144,225.781 230.399,225.729 230.451 C 225.677 230.503,225.818 231.613,226.042 232.917 C 226.509 235.643,226.515 235.611,225.733 234.796 C 225.238 234.279,225.097 233.871,224.859 232.262 C 224.703 231.208,224.487 230.240,224.380 230.110 C 224.273 229.981,224.192 229.505,224.200 229.052 C 224.213 228.362,223.729 225.712,223.219 223.679 C 223.112 223.253,223.196 223.099,223.679 222.837 C 224.656 222.308,225.089 222.412,225.500 223.274 M159.167 224.523 C 159.167 224.679,158.980 224.514,158.116 223.594 L 157.188 222.604 158.177 223.533 C 158.721 224.044,159.167 224.489,159.167 224.523 M244.172 224.871 C 244.689 227.110,244.649 228.080,244.091 226.823 C 243.722 225.992,243.550 225.911,242.893 226.263 C 242.406 226.523,242.492 227.010,243.340 228.802 C 243.900 229.984,243.351 229.551,242.610 228.227 C 242.187 227.469,241.708 226.798,241.546 226.736 C 241.385 226.674,241.302 226.542,241.363 226.444 C 241.424 226.345,241.283 225.890,241.050 225.432 C 240.512 224.379,240.510 223.958,241.042 223.958 C 241.271 223.958,241.458 224.079,241.458 224.227 C 241.458 225.219,242.198 225.964,242.899 225.678 C 243.627 225.381,243.685 224.963,243.216 223.385 C 243.114 223.041,243.162 222.917,243.398 222.917 C 243.633 222.917,243.842 223.443,244.172 224.871 M238.535 223.735 C 238.674 224.071,238.924 224.397,239.091 224.461 C 239.258 224.525,239.540 224.930,239.720 225.362 C 239.899 225.793,240.381 226.604,240.790 227.163 C 241.200 227.723,241.889 228.895,242.323 229.767 L 243.111 231.354 242.232 230.319 C 241.749 229.749,241.120 229.020,240.833 228.697 L 240.313 228.111 239.431 228.461 C 238.714 228.745,238.567 228.893,238.644 229.249 C 238.883 230.354,239.159 232.160,239.097 232.222 C 238.843 232.476,238.130 231.162,237.947 230.104 C 237.828 229.417,237.686 228.620,237.631 228.333 C 236.947 224.792,236.810 223.502,237.098 223.320 C 237.698 222.940,238.275 223.107,238.535 223.735 M245.005 223.906 C 245.001 224.446,245.085 224.583,245.417 224.583 C 245.935 224.583,245.935 224.413,245.417 223.750 L 245.009 223.229 245.005 223.906 M222.083 224.679 C 222.083 224.731,222.462 226.406,222.926 228.400 C 223.623 231.403,223.757 232.327,223.707 233.772 L 223.646 235.519 223.043 233.749 C 222.258 231.446,222.359 231.510,220.554 232.169 C 218.859 232.787,218.842 232.822,219.500 234.302 C 219.660 234.663,219.792 235.138,219.792 235.356 C 219.792 235.575,219.929 235.936,220.098 236.158 C 220.266 236.381,220.406 236.839,220.410 237.176 C 220.414 237.533,220.628 238.013,220.921 238.322 C 221.199 238.615,221.487 239.229,221.562 239.688 C 221.732 240.728,221.762 240.769,219.330 236.621 C 217.667 233.784,217.327 233.329,216.790 233.210 C 216.201 233.081,216.190 233.059,216.567 232.784 C 216.950 232.503,216.933 232.431,216.080 230.710 C 215.594 229.730,215.139 228.513,215.070 228.005 L 214.943 227.083 215.909 227.083 L 216.875 227.083 216.875 228.040 C 216.875 228.708,216.991 229.100,217.262 229.342 C 217.475 229.532,217.816 230.156,218.021 230.729 C 218.226 231.302,218.413 231.796,218.437 231.827 C 218.461 231.858,219.221 231.566,220.126 231.177 L 221.771 230.470 221.724 229.245 C 221.698 228.572,221.451 227.247,221.175 226.302 L 220.674 224.583 221.378 224.583 C 221.766 224.583,222.083 224.626,222.083 224.679 M236.654 227.376 C 237.103 229.274,237.293 230.558,237.251 231.386 L 237.188 232.604 236.676 231.088 C 236.275 229.900,236.095 229.602,235.843 229.710 C 235.666 229.786,235.193 229.967,234.792 230.112 C 234.036 230.386,233.751 230.918,234.147 231.314 C 234.272 231.439,234.375 231.739,234.375 231.981 C 234.375 232.223,234.513 232.602,234.681 232.825 C 234.849 233.047,234.990 233.409,234.993 233.629 C 234.997 233.850,235.130 234.178,235.289 234.359 C 235.570 234.677,235.962 236.042,235.773 236.042 C 235.721 236.042,235.004 234.879,234.178 233.458 C 233.164 231.712,232.531 230.834,232.224 230.749 C 231.871 230.652,231.834 230.584,232.057 230.440 C 232.292 230.289,232.240 230.033,231.773 229.034 C 230.775 226.897,230.743 226.458,231.584 226.458 C 232.250 226.458,232.292 226.500,232.292 227.165 C 232.292 227.556,232.414 227.919,232.565 227.977 C 232.715 228.034,232.953 228.466,233.094 228.937 C 233.396 229.946,233.251 229.915,234.682 229.282 C 236.038 228.682,236.130 228.275,235.419 226.008 C 235.192 225.282,235.004 224.664,235.003 224.635 C 235.001 224.607,235.224 224.583,235.497 224.583 C 235.964 224.583,236.036 224.755,236.654 227.376 M237.917 224.673 C 237.917 226.148,238.414 227.519,238.928 227.459 C 239.725 227.367,239.681 226.915,238.746 225.628 C 238.290 224.999,237.917 224.569,237.917 224.673 M224.812 225.104 C 224.852 228.044,225.716 229.388,226.975 228.466 C 227.379 228.171,227.371 228.139,226.615 227.051 C 225.285 225.135,224.806 224.618,224.812 225.104 M162.083 227.648 C 162.083 227.804,161.896 227.639,161.033 226.719 L 160.104 225.729 161.094 226.658 C 161.638 227.169,162.083 227.614,162.083 227.648 M163.854 229.583 C 164.418 230.156,164.833 230.625,164.776 230.625 C 164.719 230.625,164.210 230.156,163.646 229.583 C 163.082 229.010,162.667 228.542,162.724 228.542 C 162.781 228.542,163.290 229.010,163.854 229.583 M167.500 233.481 C 167.500 233.637,167.313 233.472,166.450 232.552 L 165.521 231.563 166.510 232.491 C 167.055 233.002,167.500 233.447,167.500 233.481 M171.771 238.125 C 172.218 238.583,172.538 238.958,172.480 238.958 C 172.423 238.958,172.010 238.583,171.563 238.125 C 171.115 237.667,170.796 237.292,170.853 237.292 C 170.910 237.292,171.323 237.667,171.771 238.125 M174.167 240.729 C 174.555 241.130,174.827 241.458,174.769 241.458 C 174.712 241.458,174.347 241.130,173.958 240.729 C 173.570 240.328,173.298 240.000,173.356 240.000 C 173.413 240.000,173.778 240.328,174.167 240.729 M176.563 243.333 C 177.010 243.792,177.329 244.167,177.272 244.167 C 177.215 244.167,176.802 243.792,176.354 243.333 C 175.907 242.875,175.587 242.500,175.645 242.500 C 175.702 242.500,176.115 242.875,176.563 243.333 M178.854 245.833 C 179.302 246.292,179.621 246.667,179.564 246.667 C 179.506 246.667,179.093 246.292,178.646 245.833 C 178.198 245.375,177.879 245.000,177.936 245.000 C 177.994 245.000,178.407 245.375,178.854 245.833 M182.083 249.314 C 182.083 249.471,181.896 249.305,181.033 248.385 L 180.104 247.396 181.094 248.325 C 181.638 248.835,182.083 249.281,182.083 249.314 M183.646 251.042 C 184.093 251.500,184.413 251.875,184.355 251.875 C 184.298 251.875,183.885 251.500,183.438 251.042 C 182.990 250.583,182.671 250.208,182.728 250.208 C 182.785 250.208,183.198 250.583,183.646 251.042 M185.938 253.542 C 186.385 254.000,186.704 254.375,186.647 254.375 C 186.590 254.375,186.177 254.000,185.729 253.542 C 185.282 253.083,184.962 252.708,185.020 252.708 C 185.077 252.708,185.490 253.083,185.938 253.542 M189.167 257.023 C 189.167 257.179,188.980 257.014,188.116 256.094 L 187.188 255.104 188.177 256.033 C 188.721 256.544,189.167 256.989,189.167 257.023 M188.854 262.083 C 188.108 263.573,187.450 264.792,187.393 264.792 C 187.336 264.792,187.899 263.573,188.646 262.083 C 189.392 260.594,190.050 259.375,190.107 259.375 C 190.164 259.375,189.601 260.594,188.854 262.083 " stroke="none" fill="#c6c4c9" fill-rule="evenodd"></path><path id="path1" d="M0.000 200.000 L 0.000 400.000 200.000 400.000 L 400.000 400.000 400.000 200.000 L 400.000 0.000 200.000 0.000 L 0.000 0.000 0.000 200.000 M231.636 96.875 C 232.271 101.456,232.450 100.822,229.569 104.221 C 228.186 105.852,226.988 107.212,226.907 107.242 C 226.826 107.271,226.382 105.771,225.921 103.908 L 225.083 100.521 228.010 96.948 C 229.620 94.983,230.994 93.436,231.063 93.511 C 231.131 93.585,231.389 95.099,231.636 96.875 M179.954 101.250 C 180.856 103.524,181.000 104.098,181.092 105.772 L 181.197 107.689 182.701 109.782 C 183.529 110.933,184.250 111.875,184.303 111.875 C 184.356 111.875,184.350 111.795,184.290 111.697 C 184.229 111.600,184.382 110.029,184.628 108.208 L 185.075 104.896 186.158 103.269 L 187.240 101.643 187.386 103.194 L 187.531 104.746 191.578 108.154 C 193.804 110.029,195.695 111.580,195.781 111.601 C 195.867 111.623,196.828 110.484,197.917 109.072 L 199.896 106.504 200.000 110.677 L 200.104 114.850 201.947 112.842 C 204.135 110.458,203.704 110.526,206.200 112.171 L 208.229 113.508 210.365 113.652 L 212.500 113.795 212.504 115.283 L 212.508 116.771 214.378 117.604 C 215.407 118.063,216.289 118.438,216.337 118.438 C 216.589 118.438,223.305 108.870,223.192 108.671 C 223.119 108.543,222.738 107.992,222.345 107.448 C 221.509 106.288,221.427 106.306,224.397 107.003 L 226.719 107.547 226.589 108.565 C 226.517 109.125,226.399 110.044,226.327 110.608 L 226.196 111.632 227.002 111.855 L 227.809 112.077 229.269 110.640 C 230.580 109.349,236.628 106.184,237.048 106.568 C 237.106 106.621,236.648 108.334,235.645 111.811 C 235.483 112.372,235.542 112.616,236.021 113.373 C 236.334 113.867,236.846 114.708,237.159 115.243 L 237.727 116.215 234.165 115.282 L 230.604 114.350 228.427 115.541 C 226.388 116.658,226.250 116.774,226.253 117.377 C 226.254 117.731,226.391 120.631,226.556 123.820 L 226.858 129.620 229.250 133.404 C 230.565 135.485,231.784 137.375,231.956 137.604 L 232.271 138.021 232.175 137.604 C 232.122 137.375,231.758 135.471,231.365 133.374 L 230.650 129.560 231.919 126.866 L 233.187 124.171 235.493 123.450 C 236.761 123.054,237.814 122.748,237.833 122.771 C 237.893 122.843,236.648 131.756,236.532 132.083 C 236.461 132.286,236.306 132.103,236.094 131.563 C 235.654 130.445,235.730 130.472,234.670 131.051 C 233.545 131.664,233.624 131.323,233.327 136.893 C 233.093 141.292,233.188 142.734,233.758 143.400 C 234.003 143.686,236.586 140.160,236.716 139.363 C 236.780 138.969,237.519 136.678,238.357 134.274 L 239.882 129.901 241.764 127.884 C 242.799 126.774,243.710 125.929,243.789 126.006 C 243.867 126.083,244.307 127.202,244.767 128.493 L 245.602 130.840 244.883 134.535 C 244.299 137.537,240.068 152.776,239.756 153.003 C 236.636 155.274,233.721 157.655,233.643 157.997 C 232.668 162.249,231.137 174.748,231.541 175.152 C 231.598 175.209,240.335 178.473,250.958 182.406 C 261.580 186.339,270.386 189.680,270.525 189.831 C 271.459 190.836,276.917 203.429,276.540 203.708 C 276.323 203.868,271.613 206.992,266.073 210.651 L 256.000 217.303 258.581 220.058 C 262.452 224.189,275.048 237.761,275.487 238.272 C 275.864 238.712,275.858 238.729,275.070 239.437 C 274.631 239.832,268.880 244.819,262.292 250.520 C 255.703 256.220,249.943 261.217,249.492 261.623 L 248.671 262.362 247.175 270.400 C 246.353 274.821,245.469 279.576,245.211 280.967 L 244.742 283.496 233.465 289.910 C 227.262 293.437,222.146 296.355,222.096 296.395 C 222.046 296.435,222.265 300.082,222.583 304.501 C 222.901 308.919,223.129 312.562,223.091 312.596 C 223.052 312.631,217.844 314.349,211.517 316.415 L 200.012 320.172 190.579 317.071 C 185.391 315.365,180.173 313.666,178.985 313.294 L 176.823 312.618 176.936 311.361 C 177.258 307.782,177.995 296.469,177.910 296.398 C 177.856 296.353,172.742 293.433,166.545 289.909 L 155.277 283.502 153.356 273.157 C 152.299 267.468,151.391 262.672,151.337 262.500 C 151.284 262.328,145.155 256.938,137.718 250.521 C 130.282 244.104,124.190 238.799,124.182 238.732 C 124.174 238.665,128.613 233.837,134.047 228.003 C 143.205 218.171,143.901 217.371,143.578 217.062 C 143.386 216.878,138.706 213.750,133.177 210.110 C 127.648 206.470,123.125 203.453,123.125 203.406 C 123.125 203.182,129.264 190.070,129.480 189.831 C 129.617 189.681,132.203 188.642,135.229 187.524 C 138.254 186.405,146.776 183.257,154.167 180.527 C 161.557 177.798,167.678 175.499,167.769 175.419 C 167.860 175.339,167.077 171.846,166.029 167.657 L 164.125 160.040 163.216 160.349 C 162.158 160.710,162.582 160.939,159.055 158.092 L 156.562 156.081 154.332 148.405 C 153.105 144.183,151.807 139.237,151.448 137.414 L 150.795 134.099 151.680 131.841 C 152.167 130.599,152.632 129.583,152.715 129.583 C 153.072 129.583,156.619 133.740,159.328 137.334 L 162.266 141.230 163.066 145.233 L 163.866 149.235 165.885 143.628 C 166.995 140.544,167.949 137.693,168.004 137.292 C 168.059 136.891,168.157 136.084,168.222 135.500 L 168.339 134.437 164.691 131.574 C 162.684 129.999,161.042 128.664,161.042 128.608 C 161.042 128.552,162.167 126.884,163.543 124.902 L 166.044 121.298 167.717 121.718 C 168.637 121.949,169.421 122.103,169.459 122.059 C 169.498 122.015,170.252 120.343,171.135 118.343 C 172.019 116.343,172.898 114.406,173.090 114.039 L 173.438 113.371 177.700 114.698 C 180.044 115.427,181.983 116.003,182.009 115.978 C 182.034 115.952,180.796 113.981,179.257 111.598 C 177.718 109.215,176.458 107.128,176.458 106.961 C 176.458 106.615,178.794 98.516,178.871 98.595 C 178.899 98.623,179.386 99.818,179.954 101.250 M157.586 120.596 C 159.124 124.651,159.089 124.496,158.601 125.088 C 158.404 125.326,158.826 124.961,159.538 124.277 L 160.833 123.034 160.833 127.057 L 160.833 131.081 159.337 129.696 C 157.623 128.108,157.792 128.015,156.967 131.014 L 156.373 133.174 155.705 131.704 C 154.597 129.268,154.561 129.519,156.279 127.735 C 157.121 126.861,157.392 126.543,156.880 127.028 L 155.950 127.910 155.477 126.195 L 155.005 124.479 155.469 120.581 C 155.725 118.438,155.997 116.750,156.074 116.831 C 156.150 116.913,156.831 118.607,157.586 120.596 M216.383 137.281 C 217.468 138.207,220.837 139.649,221.160 139.326 C 221.244 139.242,215.568 136.250,215.326 136.250 C 215.243 136.250,215.719 136.714,216.383 137.281 M180.067 148.125 C 180.067 148.870,180.104 149.174,180.151 148.802 C 180.197 148.430,180.197 147.820,180.151 147.448 C 180.104 147.076,180.067 147.380,180.067 148.125 M173.315 151.422 C 174.344 153.468,174.341 153.296,173.348 153.373 L 172.529 153.438 175.428 155.786 L 178.327 158.134 177.591 156.515 C 176.524 154.168,174.916 151.823,173.606 150.704 L 172.463 149.728 173.315 151.422 M209.896 152.395 C 205.333 154.267,205.068 154.350,204.322 154.126 C 203.262 153.809,203.254 153.845,203.925 155.843 L 204.513 157.593 208.454 158.483 L 212.396 159.374 216.323 158.971 C 220.637 158.529,220.549 158.553,220.218 157.935 C 219.923 157.383,221.066 154.616,222.497 152.415 C 223.026 151.603,223.530 150.820,223.617 150.677 C 223.741 150.472,222.812 150.418,219.231 150.423 L 214.688 150.429 209.896 152.395 M175.128 151.927 C 175.212 152.070,175.649 152.736,176.099 153.406 C 177.729 155.830,178.796 158.473,178.431 159.179 L 178.114 159.792 179.109 159.812 C 179.783 159.826,179.953 159.877,179.636 159.969 C 179.277 160.073,179.874 160.366,182.195 161.226 C 183.859 161.843,185.166 162.406,185.098 162.476 C 185.031 162.547,184.161 162.806,183.165 163.052 L 181.354 163.499 183.917 163.520 L 186.479 163.542 189.844 162.080 C 193.752 160.382,193.781 160.379,192.797 161.841 C 191.837 163.266,191.876 163.277,193.802 162.119 C 195.593 161.042,195.560 161.121,195.124 158.958 L 194.851 157.604 194.593 158.281 C 194.451 158.654,194.185 158.958,194.002 158.958 C 193.701 158.958,193.701 158.934,193.998 158.698 C 194.280 158.473,195.504 155.226,195.361 155.083 C 195.332 155.054,194.924 155.134,194.453 155.260 C 193.629 155.479,193.420 155.416,188.897 153.577 L 184.197 151.667 179.586 151.667 C 175.955 151.667,175.008 151.722,175.128 151.927 M216.875 151.979 C 217.161 152.143,217.302 152.277,217.188 152.277 C 217.073 152.277,216.745 152.143,216.458 151.979 C 216.172 151.815,216.031 151.681,216.146 151.681 C 216.260 151.681,216.589 151.815,216.875 151.979 M219.017 152.875 L 220.221 153.438 218.913 154.602 L 217.604 155.766 214.792 156.137 L 211.979 156.509 210.365 155.767 C 209.477 155.358,208.750 154.932,208.750 154.820 C 208.750 154.568,210.650 152.919,210.938 152.921 C 211.052 152.922,211.029 152.997,210.886 153.088 C 210.698 153.207,210.813 153.434,211.303 153.908 C 213.428 155.965,216.477 155.489,217.308 152.970 C 217.575 152.164,217.503 152.168,219.017 152.875 M183.941 152.575 C 183.893 152.616,183.573 152.713,183.229 152.790 C 182.773 152.892,182.688 152.872,182.917 152.718 C 183.198 152.527,184.150 152.395,183.941 152.575 M181.937 153.290 L 181.270 153.646 181.651 154.496 C 182.606 156.631,184.847 157.012,187.051 155.416 C 188.047 154.694,188.149 154.270,187.371 154.075 C 187.071 154.000,186.871 153.893,186.926 153.838 C 187.247 153.517,190.000 155.503,190.000 156.055 C 190.000 156.129,189.251 156.528,188.334 156.941 L 186.669 157.691 183.938 157.296 C 182.058 157.024,181.069 156.784,180.760 156.525 C 180.514 156.318,179.912 155.792,179.422 155.357 L 178.531 154.565 179.734 154.050 C 180.396 153.766,181.219 153.401,181.563 153.239 C 182.445 152.821,182.740 152.862,181.937 153.290 M181.722 160.147 C 181.465 160.196,180.997 160.197,180.680 160.149 C 180.363 160.102,180.573 160.061,181.146 160.060 C 181.719 160.058,181.978 160.097,181.722 160.147 M183.802 160.355 C 183.544 160.405,183.122 160.405,182.865 160.355 C 182.607 160.306,182.818 160.265,183.333 160.265 C 183.849 160.265,184.060 160.306,183.802 160.355 M185.677 160.564 C 185.419 160.613,184.997 160.613,184.740 160.564 C 184.482 160.514,184.693 160.473,185.208 160.473 C 185.724 160.473,185.935 160.514,185.677 160.564 M177.206 168.594 C 177.140 169.310,177.167 170.458,177.266 171.146 C 177.429 172.280,177.448 172.159,177.473 169.844 C 177.502 167.061,177.393 166.548,177.206 168.594 M170.000 173.475 C 170.000 173.705,170.188 174.064,170.417 174.271 C 170.832 174.646,170.832 174.644,170.489 173.939 C 170.040 173.014,170.000 172.976,170.000 173.475 M212.350 184.063 C 212.362 184.521,212.303 185.177,212.218 185.521 C 212.074 186.105,212.092 186.095,212.493 185.369 C 212.884 184.662,212.895 184.533,212.624 183.911 L 212.327 183.229 212.350 184.063 M211.177 188.011 C 208.897 188.437,208.593 188.450,207.218 188.184 C 205.756 187.901,205.678 187.908,202.835 188.614 L 199.940 189.332 198.772 188.920 C 197.681 188.534,197.262 188.517,192.396 188.649 C 187.113 188.792,186.752 188.829,187.298 189.175 C 187.701 189.430,187.454 189.427,186.775 189.168 C 186.325 188.997,186.501 189.312,187.796 190.991 C 190.081 193.956,192.536 195.327,196.318 195.749 C 200.189 196.182,199.792 196.374,199.792 194.073 L 199.792 192.104 198.594 192.029 C 197.460 191.958,197.477 191.952,198.932 191.914 C 205.492 191.746,210.218 190.560,213.490 188.260 C 214.813 187.330,214.819 187.330,211.177 188.011 M195.313 191.664 L 196.563 191.818 195.521 191.837 C 194.948 191.848,194.198 191.718,193.854 191.550 C 193.510 191.382,193.417 191.304,193.646 191.377 C 193.875 191.450,194.625 191.579,195.313 191.664 M227.721 194.350 L 227.107 195.566 227.308 198.356 C 227.419 199.890,227.708 202.095,227.950 203.255 L 228.392 205.364 229.782 206.037 L 231.173 206.710 232.467 206.347 C 233.179 206.147,233.812 206.034,233.874 206.096 C 234.250 206.472,234.533 208.712,234.348 209.858 C 234.101 211.390,233.859 211.304,236.615 210.670 C 239.309 210.050,239.288 210.072,237.941 209.285 C 236.992 208.731,234.307 205.597,235.025 205.882 C 235.183 205.945,235.702 206.153,236.178 206.346 C 237.606 206.923,239.167 206.156,239.167 204.876 C 239.167 203.141,236.179 199.510,231.866 196.004 L 228.335 193.134 227.721 194.350 M234.697 200.731 C 234.964 201.387,235.391 202.147,235.647 202.420 C 236.214 203.022,236.079 203.228,235.339 202.891 C 234.552 202.532,234.379 202.866,235.052 203.445 C 235.702 204.005,235.761 204.167,235.313 204.167 C 235.137 204.167,235.000 204.353,235.000 204.591 C 235.000 204.938,234.931 204.978,234.615 204.809 C 234.353 204.668,234.157 204.677,233.999 204.834 C 233.829 205.004,233.693 205.004,233.488 204.834 C 233.194 204.590,231.933 204.595,231.541 204.842 C 231.398 204.932,231.214 204.655,231.052 204.108 C 230.716 202.973,230.244 202.420,229.873 202.727 C 229.662 202.902,229.569 202.819,229.462 202.362 C 229.385 202.037,229.132 201.618,228.898 201.432 C 228.566 201.166,228.415 200.648,228.203 199.036 C 227.730 195.446,227.436 195.583,231.065 197.701 L 234.212 199.539 234.697 200.731 M229.064 198.390 C 228.843 199.048,228.890 199.319,229.332 199.939 C 229.940 200.793,230.417 200.650,230.415 199.613 C 230.414 198.808,229.271 197.774,229.064 198.390 M232.134 199.844 C 232.939 200.822,233.750 201.131,233.750 200.459 C 233.750 200.006,232.378 198.958,231.785 198.958 C 231.471 198.958,231.532 199.114,232.134 199.844 M231.046 200.073 C 231.039 201.055,231.613 202.031,232.198 202.031 L 232.706 202.031 232.280 201.276 C 232.046 200.861,231.674 200.286,231.453 200.000 L 231.051 199.479 231.046 200.073 M156.465 203.639 C 155.385 204.724,154.543 205.646,154.594 205.687 C 154.645 205.728,156.797 206.305,159.375 206.968 C 164.968 208.406,164.238 207.809,165.229 211.749 L 166.048 215.005 165.723 218.257 C 165.544 220.046,165.429 221.540,165.466 221.577 C 165.503 221.614,165.936 220.079,166.429 218.166 L 167.325 214.688 166.605 210.988 C 165.988 207.816,165.814 207.232,165.390 206.896 C 165.118 206.681,163.536 205.416,161.875 204.086 C 160.214 202.756,158.759 201.667,158.642 201.667 C 158.525 201.667,157.545 202.554,156.465 203.639 M184.435 217.198 C 184.499 217.421,184.611 217.814,184.684 218.071 C 184.758 218.328,185.352 218.949,186.004 219.450 L 187.190 220.363 188.796 224.504 C 189.679 226.782,190.797 230.099,191.279 231.875 L 192.157 235.104 193.903 237.240 C 194.863 238.414,195.687 239.375,195.733 239.375 C 195.780 239.375,195.299 238.273,194.666 236.927 L 193.514 234.479 193.652 231.563 L 193.790 228.646 190.849 223.829 C 187.954 219.088,187.887 218.999,186.610 218.219 C 185.896 217.782,185.089 217.283,184.816 217.108 C 184.351 216.811,184.328 216.817,184.435 217.198 M171.743 218.542 C 171.799 218.828,172.051 220.114,172.304 221.398 L 172.764 223.734 170.311 226.968 L 167.858 230.202 168.400 232.028 L 168.941 233.854 168.820 232.188 C 168.753 231.271,168.687 230.460,168.672 230.386 C 168.658 230.312,169.895 228.780,171.422 226.982 L 174.199 223.712 173.117 221.179 C 171.909 218.353,171.582 217.726,171.743 218.542 M244.448 222.214 C 244.269 222.288,244.276 222.614,244.475 223.500 C 244.622 224.153,244.749 224.828,244.758 225.000 C 244.789 225.582,245.155 227.099,245.300 227.244 C 245.379 227.323,245.380 226.904,245.301 226.312 L 245.158 225.237 245.913 225.095 C 246.789 224.931,246.783 224.946,246.282 224.210 C 246.070 223.900,245.672 223.295,245.396 222.866 C 244.882 222.065,244.856 222.047,244.448 222.214 M223.647 222.994 C 223.267 223.272,223.273 223.356,223.836 226.030 C 224.155 227.543,224.363 228.981,224.299 229.227 C 224.235 229.472,224.306 229.816,224.457 229.992 C 224.608 230.168,224.845 231.156,224.984 232.188 C 225.170 233.564,225.353 234.187,225.675 234.530 C 226.291 235.189,226.313 235.070,225.949 232.992 C 225.437 230.063,225.293 230.321,227.929 229.454 C 228.149 229.382,228.683 229.874,229.580 230.976 C 231.355 233.157,231.417 233.207,230.656 231.850 C 230.295 231.205,230.000 230.525,230.000 230.337 C 230.000 230.150,229.396 229.204,228.657 228.236 C 227.918 227.267,227.200 226.098,227.062 225.636 C 226.924 225.175,226.587 224.651,226.314 224.472 C 226.041 224.293,225.663 223.823,225.474 223.427 C 225.096 222.634,224.373 222.463,223.647 222.994 M243.454 223.876 C 243.617 224.416,243.750 224.981,243.750 225.132 C 243.750 225.396,242.734 226.042,242.317 226.042 C 242.087 226.042,241.458 224.875,241.458 224.447 C 241.458 224.293,241.318 224.167,241.146 224.167 C 240.604 224.167,241.064 225.498,242.265 227.412 C 242.971 228.536,243.087 228.519,242.604 227.364 C 242.187 226.364,242.184 226.373,243.036 226.064 C 243.884 225.758,243.829 225.733,244.122 226.563 C 244.331 227.155,244.343 227.160,244.350 226.667 C 244.363 225.805,243.655 223.059,243.398 222.973 C 243.230 222.917,243.246 223.184,243.454 223.876 M245.967 224.479 C 245.801 225.036,245.054 224.801,244.924 224.151 C 244.673 222.898,244.772 222.776,245.416 223.542 C 245.754 223.943,246.002 224.365,245.967 224.479 M237.136 223.505 C 236.932 223.634,236.967 224.089,237.300 225.614 C 237.534 226.683,237.700 227.709,237.670 227.894 C 237.639 228.078,237.678 228.330,237.755 228.453 C 237.832 228.576,237.992 229.273,238.109 230.003 C 238.227 230.732,238.477 231.475,238.666 231.654 C 238.982 231.952,239.000 231.935,238.887 231.450 C 238.819 231.158,238.705 230.408,238.632 229.783 L 238.500 228.646 239.460 228.306 L 240.420 227.967 241.291 229.036 C 242.492 230.511,242.637 230.639,242.117 229.767 C 241.869 229.353,241.667 228.892,241.667 228.745 C 241.667 228.597,241.285 227.981,240.818 227.376 C 240.351 226.771,239.765 225.907,239.516 225.457 C 238.351 223.355,237.924 223.004,237.136 223.505 M227.139 228.385 C 226.937 228.609,226.509 228.750,226.031 228.750 L 225.251 228.750 225.024 227.448 C 224.900 226.732,224.739 225.677,224.668 225.104 L 224.538 224.063 226.002 226.042 C 227.357 227.872,227.442 228.048,227.139 228.385 M239.075 225.942 C 239.920 227.170,239.850 227.708,238.843 227.708 C 238.324 227.708,238.234 227.524,238.021 226.042 C 237.947 225.526,237.833 224.917,237.767 224.689 C 237.585 224.053,238.140 224.584,239.075 225.942 M220.905 224.932 C 221.692 227.659,221.857 228.387,221.902 229.318 C 221.965 230.625,222.133 230.441,220.066 231.326 L 218.372 232.051 217.916 230.831 C 217.665 230.160,217.291 229.459,217.085 229.272 C 216.800 229.014,216.736 228.736,216.820 228.112 L 216.930 227.292 215.992 227.292 L 215.054 227.292 215.227 228.217 C 215.322 228.725,215.787 229.912,216.260 230.854 C 217.067 232.458,217.097 232.580,216.738 232.783 C 216.385 232.982,216.396 233.009,216.875 233.119 C 217.277 233.212,217.808 233.926,219.205 236.255 C 221.456 240.005,221.509 240.080,221.353 239.271 C 221.287 238.927,221.049 238.490,220.824 238.300 C 220.558 238.074,220.417 237.692,220.417 237.200 C 220.417 236.746,220.301 236.401,220.126 236.334 C 219.966 236.272,219.774 235.814,219.699 235.316 C 219.624 234.817,219.427 234.296,219.261 234.158 C 218.230 233.303,220.186 231.563,222.176 231.563 C 222.284 231.563,222.678 232.406,223.050 233.438 L 223.728 235.313 223.729 233.750 C 223.731 230.998,222.103 224.707,221.366 224.620 C 220.898 224.564,220.815 224.620,220.905 224.932 M235.208 224.692 C 235.208 224.769,235.342 225.315,235.504 225.905 C 235.667 226.496,235.856 227.401,235.924 227.917 L 236.047 228.854 234.734 229.396 L 233.422 229.938 232.857 228.735 C 232.546 228.074,232.292 227.291,232.292 226.996 C 232.292 226.538,232.200 226.458,231.667 226.458 C 230.837 226.458,230.855 226.809,231.779 228.738 C 232.304 229.833,232.446 230.321,232.273 230.428 C 232.107 230.531,232.154 230.621,232.420 230.708 C 232.636 230.779,233.405 231.868,234.130 233.127 C 234.855 234.386,235.479 235.417,235.517 235.417 C 235.688 235.417,235.342 234.572,235.082 234.356 C 234.922 234.224,234.792 233.898,234.792 233.633 C 234.792 233.367,234.698 233.092,234.583 233.021 C 234.469 232.950,234.374 232.734,234.374 232.540 C 234.373 232.346,234.232 231.919,234.061 231.591 C 233.522 230.558,233.645 230.318,234.914 229.917 C 236.247 229.497,236.237 229.493,236.703 230.796 L 237.051 231.771 237.058 230.625 C 237.067 228.956,236.006 224.706,235.559 224.620 C 235.366 224.583,235.208 224.616,235.208 224.692 " stroke="none" fill="#242424" fill-rule="evenodd"></path><path id="path2" d="M153.750 130.729 C 154.139 131.130,154.504 131.458,154.561 131.458 C 154.618 131.458,154.347 131.130,153.958 130.729 C 153.570 130.328,153.205 130.000,153.147 130.000 C 153.090 130.000,153.361 130.328,153.750 130.729 M224.858 149.659 C 224.150 150.248,223.564 150.846,223.556 150.990 C 223.548 151.133,223.448 151.250,223.333 151.250 C 223.219 151.250,223.125 151.391,223.125 151.563 C 223.125 151.734,223.026 151.875,222.904 151.875 C 222.783 151.875,222.742 151.969,222.813 152.085 C 222.885 152.200,222.797 152.351,222.617 152.420 C 222.438 152.488,222.292 152.675,222.292 152.835 C 222.292 152.994,222.218 153.125,222.129 153.125 C 221.958 153.125,221.384 154.367,221.431 154.635 C 221.446 154.721,221.359 154.792,221.238 154.792 C 221.116 154.792,221.075 154.885,221.146 155.000 C 221.217 155.115,221.160 155.208,221.019 155.208 C 220.879 155.208,220.827 155.271,220.904 155.348 C 220.980 155.425,220.900 155.706,220.725 155.973 C 220.550 156.240,220.480 156.460,220.568 156.462 C 220.657 156.463,220.589 156.556,220.417 156.667 C 220.201 156.806,220.187 156.870,220.369 156.872 C 220.515 156.874,221.904 155.844,223.456 154.583 C 226.156 152.391,226.247 152.292,225.570 152.292 C 224.531 152.292,224.524 152.192,225.440 150.370 C 226.461 148.339,226.456 148.332,224.858 149.659 M175.599 152.999 C 176.259 153.967,177.206 155.658,177.702 156.757 C 178.199 157.857,178.641 158.720,178.684 158.677 C 178.984 158.377,175.312 151.805,174.598 151.363 C 174.488 151.295,174.938 152.031,175.599 152.999 M182.917 152.718 C 182.688 152.872,182.773 152.892,183.229 152.790 C 183.995 152.618,184.161 152.499,183.628 152.503 C 183.409 152.505,183.089 152.602,182.917 152.718 M209.258 154.219 L 208.646 154.896 209.323 154.284 C 209.695 153.947,210.000 153.643,210.000 153.607 C 210.000 153.446,209.828 153.588,209.258 154.219 M203.525 158.130 L 203.211 160.009 204.262 160.604 C 204.840 160.931,205.682 161.417,206.133 161.685 C 207.021 162.211,207.009 162.156,205.870 160.564 C 204.900 159.206,204.856 159.201,208.906 160.951 L 212.492 162.500 215.256 162.484 C 216.777 162.475,217.927 162.434,217.813 162.393 C 217.698 162.353,216.684 162.113,215.560 161.860 C 214.436 161.608,213.592 161.333,213.685 161.250 C 213.778 161.167,215.287 160.557,217.038 159.896 C 219.800 158.852,221.333 158.073,219.337 158.726 C 218.957 158.851,218.365 158.957,218.021 158.961 C 217.677 158.966,216.880 159.021,216.250 159.085 C 215.620 159.149,214.729 159.220,214.270 159.244 C 213.811 159.268,213.315 159.361,213.168 159.452 C 212.855 159.646,211.303 159.421,211.140 159.158 C 211.079 159.058,210.900 159.026,210.744 159.086 C 210.587 159.146,210.402 159.104,210.333 158.992 C 210.264 158.880,210.031 158.835,209.815 158.892 C 209.599 158.948,209.362 158.897,209.288 158.777 C 209.214 158.658,209.025 158.609,208.869 158.669 C 208.712 158.729,208.524 158.682,208.452 158.565 C 208.379 158.448,208.181 158.405,208.012 158.470 C 207.842 158.535,207.578 158.485,207.426 158.358 C 207.274 158.232,207.094 158.184,207.026 158.252 C 206.958 158.320,206.783 158.301,206.637 158.211 C 206.491 158.121,206.133 158.022,205.842 157.991 C 204.739 157.874,204.412 157.696,204.204 157.102 C 204.088 156.768,204.047 156.439,204.114 156.372 C 204.181 156.305,204.147 156.250,204.037 156.250 C 203.928 156.250,203.698 157.096,203.525 158.130 M194.480 157.914 C 194.404 158.258,194.186 158.631,193.994 158.742 C 193.699 158.914,193.695 158.947,193.967 158.952 C 194.320 158.959,195.054 157.558,194.784 157.391 C 194.692 157.335,194.555 157.570,194.480 157.914 M178.711 159.972 C 178.965 160.133,180.000 160.052,180.000 159.872 C 180.000 159.828,179.648 159.793,179.219 159.795 C 178.721 159.797,178.537 159.861,178.711 159.972 M180.680 160.149 C 180.997 160.197,181.465 160.196,181.722 160.147 C 181.978 160.097,181.719 160.058,181.146 160.060 C 180.573 160.061,180.363 160.102,180.680 160.149 M182.865 160.355 C 183.122 160.405,183.544 160.405,183.802 160.355 C 184.060 160.306,183.849 160.265,183.333 160.265 C 182.818 160.265,182.607 160.306,182.865 160.355 M184.740 160.564 C 184.997 160.613,185.419 160.613,185.677 160.564 C 185.935 160.514,185.724 160.473,185.208 160.473 C 184.693 160.473,184.482 160.514,184.740 160.564 M177.348 166.458 C 177.348 166.974,177.389 167.185,177.439 166.927 C 177.488 166.669,177.488 166.247,177.439 165.990 C 177.389 165.732,177.348 165.943,177.348 166.458 M166.010 167.357 C 166.162 167.540,166.229 167.781,166.160 167.893 C 166.091 168.005,166.137 168.159,166.261 168.236 C 166.385 168.313,166.438 168.504,166.377 168.660 C 166.317 168.817,166.364 169.004,166.482 169.077 C 166.599 169.149,166.646 169.337,166.586 169.494 C 166.526 169.650,166.573 169.838,166.690 169.910 C 166.807 169.983,166.854 170.170,166.794 170.327 C 166.734 170.484,166.781 170.671,166.898 170.744 C 167.016 170.816,167.063 171.004,167.002 171.160 C 166.942 171.317,166.989 171.504,167.107 171.577 C 167.224 171.649,167.271 171.837,167.211 171.994 C 167.151 172.150,167.198 172.338,167.315 172.410 C 167.432 172.483,167.479 172.670,167.419 172.827 C 167.359 172.984,167.406 173.171,167.523 173.244 C 167.641 173.316,167.688 173.504,167.627 173.660 C 167.567 173.817,167.614 174.004,167.732 174.077 C 167.849 174.149,167.899 174.329,167.843 174.475 C 167.787 174.621,167.845 174.845,167.971 174.971 C 168.327 175.327,171.106 174.261,135.542 187.408 C 132.345 188.590,129.617 189.680,129.481 189.830 C 129.264 190.069,123.125 203.182,123.125 203.406 C 123.125 203.453,127.648 206.470,133.177 210.110 C 138.706 213.750,143.386 216.878,143.578 217.062 C 143.901 217.371,143.205 218.171,134.047 228.003 C 128.613 233.837,124.174 238.665,124.182 238.732 C 124.190 238.799,130.282 244.104,137.718 250.521 C 145.155 256.938,151.284 262.328,151.337 262.500 C 151.391 262.672,152.299 267.468,153.356 273.157 L 155.277 283.502 166.545 289.909 C 172.742 293.433,177.856 296.353,177.910 296.398 C 177.995 296.469,177.258 307.782,176.936 311.361 L 176.823 312.618 178.985 313.294 C 180.173 313.666,185.391 315.365,190.579 317.071 L 200.012 320.172 211.517 316.415 C 217.844 314.349,223.052 312.631,223.091 312.596 C 223.129 312.562,222.901 308.919,222.583 304.501 C 222.265 300.082,222.046 296.435,222.096 296.395 C 222.146 296.355,227.262 293.437,233.465 289.910 L 244.742 283.496 245.211 280.967 C 245.469 279.576,246.353 274.821,247.175 270.400 L 248.671 262.362 249.492 261.623 C 249.943 261.217,255.703 256.220,262.292 250.520 C 268.880 244.819,274.631 239.832,275.070 239.437 C 275.858 238.729,275.864 238.712,275.487 238.272 C 275.048 237.761,262.452 224.189,258.581 220.058 L 256.000 217.303 266.073 210.651 C 271.613 206.992,276.323 203.868,276.539 203.708 C 276.981 203.382,271.104 190.188,270.280 189.655 C 269.811 189.351,231.448 175.146,231.360 175.243 C 231.326 175.281,230.140 177.891,228.726 181.042 L 226.155 186.771 220.960 193.958 C 218.103 197.911,215.382 201.665,214.914 202.300 C 214.446 202.934,212.891 204.571,211.458 205.938 C 210.026 207.304,208.826 208.487,208.791 208.567 C 208.723 208.722,214.608 207.222,215.332 206.900 C 215.573 206.792,218.349 202.776,221.562 197.884 C 224.749 193.032,227.471 188.894,227.611 188.688 C 227.840 188.352,228.793 189.218,236.798 197.038 L 245.729 205.764 247.231 210.964 L 248.733 216.163 245.317 230.217 C 242.469 241.934,235.442 268.371,235.076 268.746 C 235.018 268.805,231.297 270.544,226.808 272.608 L 218.646 276.363 215.117 283.233 L 211.589 290.104 205.775 293.458 L 199.961 296.811 194.105 293.420 L 188.249 290.029 184.802 283.203 L 181.354 276.377 173.229 272.653 C 168.760 270.604,165.032 268.858,164.943 268.772 C 164.540 268.381,157.630 242.479,154.600 230.000 L 151.235 216.146 152.701 211.042 L 154.167 205.938 162.865 197.338 C 167.648 192.608,171.703 188.658,171.875 188.561 C 172.123 188.420,173.421 190.267,178.125 197.448 L 184.063 206.513 187.381 209.698 L 190.700 212.883 195.090 213.943 C 197.504 214.526,199.594 215.003,199.735 215.002 C 199.924 215.000,199.990 214.365,199.984 212.604 L 199.976 210.208 197.824 210.208 L 195.671 210.208 192.992 208.861 C 190.526 207.621,190.130 207.336,188.021 205.289 C 185.755 203.090,185.751 203.083,187.604 204.709 C 188.875 205.825,189.305 206.119,188.938 205.625 C 188.640 205.224,187.477 203.630,186.352 202.083 C 185.228 200.536,182.906 197.362,181.194 195.028 C 176.593 188.760,175.837 187.037,173.981 178.589 L 172.595 172.283 169.164 169.654 C 167.277 168.207,165.858 167.174,166.010 167.357 M177.439 173.486 C 177.594 175.062,177.708 175.149,177.708 173.693 C 177.708 173.050,177.621 172.471,177.515 172.405 C 177.399 172.333,177.369 172.769,177.439 173.486 M170.489 173.939 C 170.832 174.644,170.832 174.646,170.417 174.271 C 170.188 174.064,170.000 173.705,170.000 173.475 C 170.000 172.976,170.040 173.014,170.489 173.939 M192.239 178.310 C 191.083 178.732,198.243 184.375,199.933 184.375 C 201.136 184.375,203.726 182.770,205.781 180.751 C 208.215 178.360,208.229 178.332,207.031 178.336 C 205.608 178.341,205.383 178.486,203.958 180.321 L 202.604 182.064 199.997 182.074 L 197.390 182.083 196.144 180.492 C 194.555 178.464,193.474 177.860,192.239 178.310 M174.391 187.865 C 174.885 188.523,175.150 188.950,174.978 188.811 C 174.628 188.528,173.257 186.667,173.400 186.667 C 173.450 186.667,173.896 187.206,174.391 187.865 M213.646 188.116 C 213.073 188.541,211.760 189.254,210.729 189.700 C 209.698 190.146,208.785 190.607,208.701 190.724 C 208.617 190.842,208.547 190.865,208.545 190.777 C 208.543 190.689,208.178 190.802,207.734 191.029 C 207.290 191.255,206.883 191.397,206.831 191.345 C 206.778 191.292,205.337 191.389,203.628 191.561 C 201.919 191.733,199.818 191.892,198.958 191.914 C 197.483 191.952,197.464 191.958,198.607 192.029 L 199.819 192.105 199.753 194.178 L 199.688 196.251 200.625 196.145 C 201.141 196.087,202.629 195.947,203.932 195.836 L 206.301 195.633 209.585 193.181 C 212.649 190.894,212.936 190.620,213.860 189.109 C 215.033 187.190,215.013 187.100,213.646 188.116 M191.094 188.685 C 191.294 188.738,191.622 188.738,191.823 188.685 C 192.023 188.633,191.859 188.590,191.458 188.590 C 191.057 188.590,190.893 188.633,191.094 188.685 M186.365 188.935 C 186.779 189.322,187.626 189.472,187.245 189.090 C 187.058 188.903,186.739 188.750,186.536 188.750 C 186.311 188.750,186.244 188.822,186.365 188.935 M179.586 194.688 C 181.567 197.323,182.999 199.292,182.770 199.063 C 182.540 198.833,180.731 196.490,178.750 193.854 C 176.769 191.219,175.336 189.250,175.566 189.479 C 175.796 189.708,177.605 192.052,179.586 194.688 M193.854 191.550 C 194.198 191.718,194.948 191.848,195.521 191.837 L 196.563 191.818 195.313 191.664 C 194.625 191.579,193.875 191.450,193.646 191.377 C 193.417 191.304,193.510 191.382,193.854 191.550 M184.583 201.250 C 185.281 202.167,185.805 202.917,185.748 202.917 C 185.691 202.917,185.073 202.167,184.375 201.250 C 183.677 200.333,183.153 199.583,183.210 199.583 C 183.268 199.583,183.886 200.333,184.583 201.250 M215.472 227.233 C 215.788 227.281,216.257 227.279,216.513 227.230 C 216.770 227.181,216.510 227.141,215.938 227.143 C 215.365 227.144,215.155 227.185,215.472 227.233 M237.148 231.146 C 237.149 231.833,237.188 232.089,237.234 231.715 C 237.281 231.341,237.280 230.778,237.232 230.465 C 237.185 230.152,237.147 230.458,237.148 231.146 " stroke="none" fill="#4f2c50" fill-rule="evenodd"></path><path id="path3" d="M190.152 116.609 C 190.521 116.655,191.178 116.655,191.610 116.610 C 192.042 116.565,191.740 116.528,190.938 116.527 C 190.135 116.526,189.782 116.563,190.152 116.609 M195.985 116.817 C 196.355 116.863,197.011 116.864,197.443 116.819 C 197.876 116.774,197.573 116.736,196.771 116.735 C 195.969 116.734,195.615 116.771,195.985 116.817 M226.298 121.042 C 226.298 121.443,226.341 121.607,226.394 121.406 C 226.446 121.206,226.446 120.878,226.394 120.677 C 226.341 120.477,226.298 120.641,226.298 121.042 M226.511 125.313 C 226.513 125.771,226.556 125.934,226.606 125.675 C 226.656 125.416,226.654 125.041,226.601 124.841 C 226.549 124.642,226.509 124.854,226.511 125.313 M240.930 128.802 L 239.896 129.896 240.990 128.862 C 241.591 128.293,242.083 127.801,242.083 127.768 C 242.083 127.613,241.890 127.786,240.930 128.802 M242.233 133.404 C 241.456 134.797,239.834 137.672,238.628 139.792 L 236.435 143.646 236.559 142.292 C 236.628 141.547,236.725 140.563,236.775 140.104 C 236.845 139.462,236.827 139.391,236.693 139.796 C 236.470 140.472,233.950 143.769,233.750 143.646 C 233.667 143.594,233.914 144.745,234.299 146.203 C 234.684 147.661,234.999 148.928,234.999 149.018 C 235.002 149.671,236.987 147.537,239.581 144.093 L 242.629 140.046 243.194 135.514 C 243.505 133.021,243.734 130.956,243.703 130.926 C 243.671 130.895,243.010 132.010,242.233 133.404 M155.208 132.357 C 155.208 132.393,155.513 132.697,155.885 133.034 L 156.563 133.646 155.951 132.969 C 155.380 132.338,155.208 132.196,155.208 132.357 M152.709 134.497 C 152.710 134.716,152.937 136.675,153.214 138.849 C 153.491 141.023,153.684 142.854,153.645 142.919 C 153.605 142.983,155.018 144.942,156.786 147.272 L 160.000 151.507 159.972 148.514 C 159.956 146.868,159.901 145.741,159.850 146.009 C 159.779 146.383,158.958 145.074,156.324 140.388 C 152.555 133.682,152.708 133.932,152.709 134.497 M159.632 143.958 C 159.632 144.359,159.675 144.523,159.727 144.323 C 159.779 144.122,159.779 143.794,159.727 143.594 C 159.675 143.393,159.632 143.557,159.632 143.958 M179.598 144.740 C 179.590 145.112,179.677 145.417,179.792 145.417 C 180.039 145.417,180.039 145.055,179.792 144.479 C 179.642 144.130,179.610 144.172,179.598 144.740 M179.844 147.813 C 179.847 148.271,179.889 148.434,179.939 148.175 C 179.989 147.916,179.987 147.541,179.935 147.341 C 179.883 147.142,179.842 147.354,179.844 147.813 M168.763 148.414 L 168.480 148.943 167.886 148.520 C 167.203 148.033,167.188 148.082,167.602 149.446 C 167.872 150.334,167.871 150.525,167.600 151.050 C 167.180 151.862,167.204 151.927,167.870 151.781 C 168.403 151.664,168.494 151.742,169.004 152.754 L 169.558 153.854 169.571 152.559 C 169.582 151.447,169.648 151.230,170.040 151.020 L 170.496 150.776 169.936 150.294 C 169.588 149.995,169.369 149.591,169.360 149.229 C 169.333 148.136,169.089 147.803,168.763 148.414 M220.521 149.341 L 215.521 150.313 219.688 150.417 L 223.854 150.521 224.421 149.896 C 224.734 149.552,224.991 149.353,224.994 149.453 C 225.002 149.700,225.600 149.186,225.852 148.715 C 226.113 148.227,226.465 148.185,220.521 149.341 M172.241 149.513 C 172.385 149.571,172.441 149.719,172.365 149.842 C 172.289 149.964,172.319 150.008,172.430 149.939 C 172.542 149.870,173.142 150.230,173.763 150.740 L 174.893 151.667 179.686 151.638 C 182.322 151.623,184.245 151.569,183.958 151.518 C 183.672 151.468,180.984 150.965,177.985 150.401 C 172.915 149.447,171.556 149.237,172.241 149.513 M225.156 152.230 C 225.414 152.280,225.836 152.280,226.094 152.230 C 226.352 152.181,226.141 152.140,225.625 152.140 C 225.109 152.140,224.898 152.181,225.156 152.230 M161.771 153.333 C 162.218 153.792,162.631 154.167,162.689 154.167 C 162.746 154.167,162.427 153.792,161.979 153.333 C 161.532 152.875,161.119 152.500,161.061 152.500 C 161.004 152.500,161.323 152.875,161.771 153.333 M189.074 155.222 C 189.526 155.744,189.938 156.140,189.990 156.100 C 190.041 156.060,189.672 155.632,189.168 155.149 L 188.252 154.271 189.074 155.222 M216.094 159.102 C 216.294 159.154,216.622 159.154,216.823 159.102 C 217.023 159.050,216.859 159.007,216.458 159.007 C 216.057 159.007,215.893 159.050,216.094 159.102 M214.010 159.310 C 214.211 159.363,214.539 159.363,214.740 159.310 C 214.940 159.258,214.776 159.215,214.375 159.215 C 213.974 159.215,213.810 159.258,214.010 159.310 M192.712 160.983 C 192.710 161.123,192.568 161.183,192.396 161.117 C 192.224 161.051,192.083 161.106,192.083 161.240 C 192.083 161.374,191.990 161.425,191.875 161.354 C 191.760 161.283,191.667 161.330,191.667 161.458 C 191.667 161.586,191.573 161.633,191.458 161.563 C 191.344 161.492,191.250 161.530,191.250 161.648 C 191.250 161.766,191.109 161.808,190.938 161.742 C 190.766 161.676,190.625 161.731,190.625 161.865 C 190.625 161.999,190.531 162.050,190.417 161.979 C 190.302 161.908,190.208 161.955,190.208 162.083 C 190.208 162.211,190.115 162.258,190.000 162.188 C 189.885 162.117,189.792 162.155,189.792 162.273 C 189.792 162.391,189.651 162.433,189.479 162.367 C 189.307 162.301,189.167 162.356,189.167 162.490 C 189.167 162.624,189.073 162.675,188.958 162.604 C 188.844 162.533,188.750 162.580,188.750 162.708 C 188.750 162.836,188.656 162.883,188.542 162.813 C 188.427 162.742,188.333 162.780,188.333 162.898 C 188.333 163.016,188.193 163.058,188.021 162.992 C 187.849 162.926,187.708 162.981,187.708 163.115 C 187.708 163.249,187.615 163.300,187.500 163.229 C 187.385 163.158,187.292 163.205,187.292 163.333 C 187.292 163.461,187.198 163.508,187.083 163.438 C 186.969 163.367,186.875 163.385,186.875 163.477 C 186.876 163.570,185.540 163.598,183.907 163.539 C 182.274 163.480,180.819 163.468,180.674 163.511 C 180.529 163.553,182.777 164.193,185.669 164.932 C 188.561 165.670,190.941 166.292,190.957 166.314 C 190.973 166.336,190.810 168.510,190.593 171.146 C 190.042 177.869,189.749 177.517,193.333 174.433 C 194.995 173.004,196.567 171.664,196.826 171.457 L 197.299 171.080 196.443 166.321 C 195.724 162.324,195.208 160.279,195.208 161.429 C 195.208 161.573,195.114 161.633,194.999 161.562 C 194.883 161.490,194.733 161.578,194.664 161.756 C 194.596 161.935,194.456 162.029,194.353 161.966 C 194.251 161.902,194.167 161.955,194.167 162.083 C 194.167 162.211,194.072 162.258,193.957 162.187 C 193.841 162.115,193.691 162.203,193.623 162.381 C 193.554 162.560,193.414 162.654,193.312 162.591 C 193.209 162.527,193.125 162.580,193.125 162.708 C 193.125 162.836,193.035 162.885,192.924 162.817 C 192.814 162.749,192.533 162.884,192.299 163.117 C 192.066 163.351,191.875 163.442,191.875 163.321 C 191.875 163.200,191.758 163.161,191.615 163.235 C 191.471 163.309,191.589 163.166,191.875 162.917 C 192.161 162.668,192.255 162.527,192.083 162.604 C 191.911 162.681,192.005 162.551,192.292 162.314 C 192.578 162.078,192.724 161.882,192.616 161.880 C 192.509 161.877,192.577 161.758,192.769 161.615 C 193.017 161.429,193.060 161.265,192.916 161.042 C 192.789 160.844,192.714 160.823,192.712 160.983 M177.193 165.526 C 177.111 166.514,177.088 167.366,177.142 167.420 C 177.196 167.474,177.308 166.711,177.390 165.724 C 177.473 164.736,177.495 163.884,177.441 163.830 C 177.387 163.776,177.275 164.539,177.193 165.526 M231.875 167.008 C 231.875 167.119,230.851 168.095,229.600 169.178 L 227.325 171.146 225.642 175.000 C 224.236 178.222,223.771 179.589,222.812 183.333 C 221.413 188.800,221.725 188.099,219.031 191.812 L 216.793 194.896 216.534 197.495 C 216.391 198.925,216.298 200.117,216.326 200.145 C 216.354 200.173,218.571 197.176,221.252 193.484 L 226.126 186.771 228.774 180.919 L 231.421 175.066 231.717 171.023 C 231.880 168.799,231.982 166.940,231.944 166.892 C 231.906 166.845,231.875 166.896,231.875 167.008 M177.574 170.729 C 177.573 171.760,177.609 172.209,177.652 171.725 C 177.696 171.242,177.696 170.398,177.653 169.850 C 177.610 169.302,177.575 169.698,177.574 170.729 M172.725 172.614 C 172.716 172.734,173.307 175.546,174.038 178.864 C 175.890 187.260,176.550 188.701,181.877 195.970 C 185.948 201.525,186.387 202.079,185.570 200.625 C 179.844 190.440,178.761 188.202,175.843 180.537 C 174.270 176.403,172.929 172.880,172.862 172.708 C 172.796 172.536,172.734 172.494,172.725 172.614 M177.535 175.104 C 177.532 175.333,177.610 175.708,177.708 175.938 C 177.936 176.468,177.936 175.921,177.708 175.208 C 177.574 174.790,177.540 174.769,177.535 175.104 M206.719 178.269 C 206.919 178.321,207.247 178.321,207.448 178.269 C 207.648 178.216,207.484 178.173,207.083 178.173 C 206.682 178.173,206.518 178.216,206.719 178.269 M194.184 178.385 C 194.232 178.414,194.552 178.672,194.896 178.958 L 195.521 179.479 195.016 178.906 C 194.738 178.591,194.418 178.333,194.304 178.333 C 194.190 178.333,194.136 178.357,194.184 178.385 M205.838 180.729 L 203.655 183.021 205.933 180.789 C 207.186 179.562,208.168 178.531,208.116 178.497 C 208.064 178.464,207.039 179.468,205.838 180.729 M193.955 180.677 C 195.156 181.909,196.164 182.917,196.194 182.917 C 196.345 182.917,196.091 182.650,194.010 180.621 L 191.771 178.438 193.955 180.677 M197.266 181.934 C 197.356 182.023,198.641 182.070,200.121 182.037 L 202.813 181.977 199.958 181.874 C 198.387 181.817,197.176 181.844,197.266 181.934 M194.740 188.484 C 195.112 188.530,195.721 188.530,196.094 188.484 C 196.466 188.438,196.161 188.400,195.417 188.400 C 194.672 188.400,194.367 188.438,194.740 188.484 M168.747 191.615 L 165.729 194.688 168.802 191.669 C 171.657 188.866,171.969 188.542,171.820 188.542 C 171.790 188.542,170.407 189.924,168.747 191.615 M188.906 188.692 C 189.279 188.739,189.888 188.739,190.260 188.692 C 190.633 188.646,190.328 188.608,189.583 188.608 C 188.839 188.608,188.534 188.646,188.906 188.692 M214.167 188.750 C 213.995 188.861,213.942 188.953,214.050 188.955 C 214.158 188.957,214.064 189.106,213.842 189.286 C 213.619 189.467,213.578 189.553,213.750 189.479 C 213.922 189.405,213.881 189.492,213.658 189.672 C 213.436 189.852,213.336 190.000,213.438 190.000 C 213.539 190.000,213.439 190.148,213.217 190.328 C 212.994 190.508,212.939 190.591,213.094 190.511 C 213.249 190.431,212.614 191.502,211.684 192.891 C 210.753 194.280,209.945 195.417,209.887 195.417 C 209.829 195.417,210.441 194.435,211.245 193.236 C 212.050 192.037,212.708 191.004,212.708 190.942 C 212.708 190.880,211.265 191.912,209.501 193.236 L 206.293 195.644 203.107 195.919 C 200.415 196.151,199.547 196.149,197.512 195.901 C 195.074 195.604,189.418 195.545,187.719 195.799 L 186.792 195.938 190.219 197.581 L 193.646 199.225 196.979 198.705 C 200.272 198.191,200.356 198.189,203.935 198.485 C 206.952 198.735,207.586 198.739,207.730 198.507 C 207.824 198.354,207.979 198.229,208.075 198.229 C 208.170 198.229,209.818 197.292,211.737 196.146 L 215.227 194.063 214.052 193.999 C 212.695 193.927,212.719 194.292,213.834 190.781 C 214.225 189.549,214.531 188.543,214.512 188.545 C 214.494 188.547,214.339 188.639,214.167 188.750 M231.875 192.396 C 233.189 193.714,234.311 194.792,234.368 194.792 C 234.425 194.792,233.397 193.714,232.083 192.396 C 230.769 191.078,229.647 190.000,229.590 190.000 C 229.533 190.000,230.561 191.078,231.875 192.396 M164.375 195.931 C 164.375 195.989,165.898 197.051,167.760 198.292 C 171.338 200.677,171.909 201.036,171.563 200.682 C 171.237 200.350,164.375 195.814,164.375 195.931 M161.257 198.847 C 159.832 200.275,158.709 201.471,158.760 201.503 C 158.812 201.536,160.022 200.367,161.449 198.906 C 162.877 197.445,164.000 196.250,163.946 196.250 C 163.892 196.250,162.682 197.419,161.257 198.847 M227.136 197.813 C 227.138 198.271,227.181 198.434,227.231 198.175 C 227.281 197.916,227.279 197.541,227.226 197.341 C 227.174 197.142,227.134 197.354,227.136 197.813 M240.000 200.313 C 241.314 201.630,242.436 202.708,242.493 202.708 C 242.550 202.708,241.522 201.630,240.208 200.313 C 238.894 198.995,237.772 197.917,237.715 197.917 C 237.658 197.917,238.686 198.995,240.000 200.313 M231.250 198.946 C 231.250 199.054,231.358 199.209,231.491 199.291 C 231.634 199.379,231.675 199.348,231.592 199.214 C 231.511 199.084,231.652 198.950,231.924 198.897 C 232.332 198.819,232.319 198.803,231.823 198.778 C 231.508 198.763,231.250 198.838,231.250 198.946 M227.340 200.833 C 227.340 201.234,227.383 201.398,227.435 201.198 C 227.488 200.997,227.488 200.669,227.435 200.469 C 227.383 200.268,227.340 200.432,227.340 200.833 M165.916 204.375 C 165.916 206.036,165.948 206.716,165.988 205.885 C 166.028 205.055,166.028 203.695,165.988 202.865 C 165.948 202.034,165.916 202.714,165.916 204.375 M234.375 202.787 C 234.375 202.945,234.539 203.203,234.740 203.360 C 235.068 203.617,235.077 203.611,234.826 203.290 C 234.673 203.095,234.608 202.837,234.682 202.717 C 234.756 202.598,234.717 202.500,234.596 202.500 C 234.474 202.500,234.375 202.629,234.375 202.787 M212.583 204.526 C 212.251 204.839,211.909 205.097,211.823 205.099 C 211.737 205.102,211.690 205.169,211.719 205.249 C 211.747 205.328,211.444 205.750,211.044 206.186 C 210.645 206.622,210.996 206.325,211.826 205.526 C 212.655 204.727,213.333 204.048,213.333 204.016 C 213.333 203.870,213.141 204.001,212.583 204.526 M239.226 204.896 C 239.228 205.469,239.268 205.678,239.316 205.362 C 239.364 205.045,239.363 204.576,239.313 204.320 C 239.264 204.064,239.225 204.323,239.226 204.896 M188.125 205.279 C 188.526 205.718,189.135 206.265,189.479 206.495 L 190.104 206.911 189.626 206.488 C 189.363 206.255,189.152 206.012,189.158 205.949 C 189.163 205.885,189.096 205.829,189.010 205.824 C 188.924 205.818,188.526 205.514,188.125 205.147 L 187.396 204.479 188.125 205.279 M185.625 208.229 C 186.709 209.318,187.643 210.208,187.700 210.208 C 187.757 210.208,186.917 209.318,185.833 208.229 C 184.749 207.141,183.816 206.250,183.758 206.250 C 183.701 206.250,184.541 207.141,185.625 208.229 M215.521 206.764 C 215.058 207.078,208.750 208.775,208.750 208.584 C 208.750 208.518,208.961 208.224,209.218 207.930 C 209.637 207.452,209.618 207.457,209.039 207.980 C 207.981 208.934,203.960 210.032,201.803 209.956 L 200.104 209.896 200.096 209.298 L 200.087 208.700 197.700 208.733 C 195.468 208.765,191.438 208.027,190.428 207.403 C 190.307 207.328,190.208 207.321,190.208 207.387 C 190.208 207.453,191.437 208.115,192.940 208.858 L 195.671 210.208 197.824 210.208 L 199.976 210.208 199.984 212.590 C 199.991 214.676,199.947 214.983,199.631 215.066 C 199.321 215.147,199.326 215.163,199.670 215.184 C 199.890 215.197,202.085 214.686,204.548 214.047 L 209.027 212.886 212.170 210.053 C 216.519 206.133,216.680 205.975,215.521 206.764 M194.081 208.644 C 194.724 208.839,195.975 208.955,197.448 208.956 L 199.792 208.958 199.792 209.479 C 199.792 210.440,196.234 210.242,194.167 209.167 C 192.486 208.292,192.463 208.153,194.081 208.644 M189.473 211.823 C 190.157 212.539,190.860 213.118,191.035 213.109 C 191.314 213.094,191.315 213.078,191.042 212.980 C 190.870 212.918,190.167 212.340,189.479 211.694 L 188.229 210.521 189.473 211.823 M151.530 216.988 C 151.462 217.165,151.465 217.368,151.537 217.440 C 151.608 217.511,151.667 217.393,151.667 217.178 C 151.667 216.876,151.918 217.024,152.760 217.820 L 153.854 218.854 152.820 217.760 C 151.655 216.527,151.697 216.553,151.530 216.988 M155.408 220.677 C 156.271 221.597,156.458 221.762,156.458 221.606 C 156.458 221.572,156.013 221.127,155.469 220.616 L 154.479 219.688 155.408 220.677 M158.116 223.594 C 158.980 224.514,159.167 224.679,159.167 224.523 C 159.167 224.489,158.721 224.044,158.177 223.533 L 157.188 222.604 158.116 223.594 M161.033 226.719 C 161.896 227.639,162.083 227.804,162.083 227.648 C 162.083 227.614,161.638 227.169,161.094 226.658 L 160.104 225.729 161.033 226.719 M244.323 226.776 C 244.268 227.065,244.304 227.352,244.403 227.413 C 244.502 227.474,244.583 227.238,244.583 226.887 C 244.583 226.114,244.460 226.061,244.323 226.776 M163.646 229.583 C 164.210 230.156,164.719 230.625,164.776 230.625 C 164.833 230.625,164.418 230.156,163.854 229.583 C 163.290 229.010,162.781 228.542,162.724 228.542 C 162.667 228.542,163.082 229.010,163.646 229.583 M193.810 229.479 C 193.811 230.052,193.852 230.262,193.899 229.945 C 193.947 229.628,193.946 229.160,193.897 228.903 C 193.847 228.647,193.808 228.906,193.810 229.479 M166.450 232.552 C 167.313 233.472,167.500 233.637,167.500 233.481 C 167.500 233.447,167.055 233.002,166.510 232.491 L 165.521 231.563 166.450 232.552 M193.598 233.542 C 193.598 234.057,193.639 234.268,193.689 234.010 C 193.738 233.753,193.738 233.331,193.689 233.073 C 193.639 232.815,193.598 233.026,193.598 233.542 M234.768 233.696 C 234.706 234.068,234.702 234.325,234.759 234.269 C 234.816 234.212,235.057 234.330,235.296 234.531 C 235.719 234.888,235.721 234.886,235.384 234.479 C 235.194 234.250,235.002 233.828,234.959 233.542 C 234.888 233.071,234.869 233.086,234.768 233.696 M169.158 235.479 C 169.669 236.018,170.132 236.458,170.188 236.458 C 170.244 236.458,170.002 236.154,169.650 235.781 C 169.298 235.409,169.038 234.985,169.072 234.839 C 169.107 234.692,169.086 234.673,169.027 234.795 C 168.952 234.947,168.809 234.936,168.573 234.759 C 168.384 234.617,168.647 234.941,169.158 235.479 M171.563 238.125 C 172.010 238.583,172.423 238.958,172.480 238.958 C 172.538 238.958,172.218 238.583,171.771 238.125 C 171.323 237.667,170.910 237.292,170.853 237.292 C 170.796 237.292,171.115 237.667,171.563 238.125 M173.958 240.729 C 174.347 241.130,174.712 241.458,174.769 241.458 C 174.827 241.458,174.555 241.130,174.167 240.729 C 173.778 240.328,173.413 240.000,173.356 240.000 C 173.298 240.000,173.570 240.328,173.958 240.729 M176.354 243.333 C 176.802 243.792,177.215 244.167,177.272 244.167 C 177.329 244.167,177.010 243.792,176.563 243.333 C 176.115 242.875,175.702 242.500,175.645 242.500 C 175.587 242.500,175.907 242.875,176.354 243.333 M178.646 245.833 C 179.093 246.292,179.506 246.667,179.564 246.667 C 179.621 246.667,179.302 246.292,178.854 245.833 C 178.407 245.375,177.994 245.000,177.936 245.000 C 177.879 245.000,178.198 245.375,178.646 245.833 M181.033 248.385 C 181.896 249.305,182.083 249.471,182.083 249.314 C 182.083 249.281,181.638 248.835,181.094 248.325 L 180.104 247.396 181.033 248.385 M183.438 251.042 C 183.885 251.500,184.298 251.875,184.355 251.875 C 184.413 251.875,184.093 251.500,183.646 251.042 C 183.198 250.583,182.785 250.208,182.728 250.208 C 182.671 250.208,182.990 250.583,183.438 251.042 M185.729 253.542 C 186.177 254.000,186.590 254.375,186.647 254.375 C 186.704 254.375,186.385 254.000,185.938 253.542 C 185.490 253.083,185.077 252.708,185.020 252.708 C 184.962 252.708,185.282 253.083,185.729 253.542 M188.116 256.094 C 188.980 257.014,189.167 257.179,189.167 257.023 C 189.167 256.989,188.721 256.544,188.177 256.033 L 187.188 255.104 188.116 256.094 M188.646 262.083 C 187.899 263.573,187.336 264.792,187.393 264.792 C 187.450 264.792,188.108 263.573,188.854 262.083 C 189.601 260.594,190.164 259.375,190.107 259.375 C 190.050 259.375,189.392 260.594,188.646 262.083 " stroke="none" fill="#6f6c7b" fill-rule="evenodd"></path><path id="path4" d="M228.010 96.948 L 225.083 100.521 225.921 103.908 C 226.382 105.771,226.826 107.271,226.907 107.242 C 227.469 107.036,232.083 101.186,232.084 100.679 C 232.084 99.822,231.207 93.667,231.063 93.511 C 230.994 93.436,229.620 94.983,228.010 96.948 M177.640 102.600 C 176.990 104.831,176.458 106.793,176.458 106.961 C 176.458 107.214,181.587 115.383,182.062 115.887 C 182.144 115.973,182.653 115.893,183.194 115.709 C 184.114 115.395,184.269 115.399,185.579 115.760 C 186.349 115.972,187.073 116.146,187.188 116.146 C 187.302 116.146,187.443 116.202,187.500 116.271 C 187.669 116.476,200.467 116.879,206.719 116.877 L 212.500 116.875 212.500 115.335 L 212.500 113.795 210.365 113.652 L 208.229 113.508 206.200 112.171 C 203.704 110.526,204.135 110.458,201.947 112.842 L 200.104 114.850 200.000 110.677 L 199.896 106.504 197.917 109.072 C 196.828 110.484,195.867 111.623,195.781 111.601 C 195.695 111.580,193.804 110.029,191.578 108.154 L 187.531 104.746 187.386 103.194 L 187.240 101.643 186.158 103.269 L 185.075 104.896 184.628 108.208 C 184.382 110.029,184.229 111.600,184.290 111.697 C 184.350 111.795,184.356 111.875,184.303 111.875 C 184.250 111.875,183.529 110.933,182.701 109.782 L 181.197 107.689 181.092 105.772 C 181.002 104.130,179.484 99.223,178.871 98.595 C 178.844 98.566,178.290 100.369,177.640 102.600 M222.345 107.448 C 222.738 107.992,223.119 108.543,223.192 108.671 C 223.265 108.800,221.779 111.041,219.889 113.652 C 218.000 116.262,216.481 118.426,216.515 118.460 C 216.549 118.494,218.723 118.140,221.345 117.674 L 226.113 116.826 228.353 115.586 L 230.594 114.347 234.160 115.281 L 237.727 116.215 237.159 115.243 C 236.846 114.708,236.334 113.867,236.021 113.373 C 235.542 112.616,235.483 112.372,235.645 111.811 C 236.648 108.334,237.106 106.621,237.048 106.568 C 236.628 106.184,230.580 109.349,229.269 110.640 L 227.809 112.077 227.002 111.855 L 226.196 111.632 226.327 110.608 C 226.399 110.044,226.517 109.125,226.589 108.565 L 226.719 107.547 224.397 107.003 C 221.427 106.306,221.509 106.288,222.345 107.448 M155.469 120.581 L 155.005 124.479 155.477 126.195 L 155.950 127.910 156.880 127.028 C 157.392 126.543,157.121 126.861,156.279 127.735 C 154.561 129.519,154.597 129.268,155.705 131.704 L 156.373 133.174 156.967 131.014 C 157.792 128.015,157.623 128.108,159.337 129.696 L 160.833 131.081 160.833 127.057 L 160.833 123.034 159.538 124.277 C 158.826 124.961,158.404 125.326,158.601 125.088 C 158.797 124.850,158.958 124.555,158.958 124.434 C 158.958 124.146,156.256 117.024,156.074 116.831 C 155.997 116.750,155.725 118.438,155.469 120.581 M163.517 124.939 C 161.392 128.001,161.036 128.624,161.277 128.855 C 161.857 129.414,168.222 134.347,168.284 134.286 C 168.361 134.209,169.369 123.460,169.373 122.682 C 169.375 122.171,169.264 122.107,167.710 121.717 L 166.044 121.298 163.517 124.939 M235.396 123.459 L 233.189 124.168 231.919 126.864 L 230.650 129.560 231.350 133.270 C 231.734 135.310,232.094 137.260,232.149 137.604 C 232.205 137.948,232.421 138.885,232.631 139.688 L 233.013 141.146 233.151 139.792 C 233.227 139.047,233.357 136.971,233.441 135.179 C 233.610 131.557,233.565 131.716,234.608 131.083 C 235.623 130.466,235.723 130.493,236.044 131.465 C 236.454 132.709,236.557 132.374,237.164 127.813 C 237.469 125.521,237.765 123.435,237.822 123.177 C 237.946 122.610,238.097 122.592,235.396 123.459 M156.710 134.167 C 156.768 134.339,157.433 136.167,158.188 138.229 C 159.444 141.662,159.581 142.199,159.805 144.580 C 160.042 147.093,160.082 147.234,160.989 148.795 L 161.927 150.409 162.786 149.898 C 163.905 149.233,163.899 149.371,163.018 144.983 L 162.258 141.201 159.638 137.736 C 156.821 134.011,156.545 133.674,156.710 134.167 M186.458 203.815 C 186.458 203.851,186.763 204.156,187.135 204.492 L 187.813 205.104 187.201 204.427 C 186.630 203.796,186.458 203.654,186.458 203.815 " stroke="none" fill="#286345" fill-rule="evenodd"></path></g></svg>